<svg xmlns="http://www.w3.org/2000/svg" xmlns:xlink="http://www.w3.org/1999/xlink" width="42.088mm" height="42.088mm" viewBox="4037.6 3038.5 165.7 165.7"><title></title><style type="text/css">
*[layerid="1"] {stroke:#000000;fill:#000000;}
*[layerid="2"] {stroke:#000000;fill:#000000;}
*[layerid="3"] {stroke:#000000;fill:#000000;}
*[layerid="4"] {stroke:#000000;fill:#000000;}
*[layerid="5"] {stroke:#000000;fill:#000000;}
*[layerid="6"] {stroke:#000000;fill:#000000;}
*[layerid="7"] {stroke:#000000;fill:#000000;}
*[layerid="8"] {stroke:#000000;fill:#000000;}
*[layerid="9"] {stroke:#000000;fill:#000000;}
*[layerid="10"] {stroke:#000000;fill:#000000;}
*[layerid="11"] {stroke:#000000;fill:#000000;}
*[layerid="12"] {stroke:#000000;fill:#000000;}
*[layerid="13"] {stroke:#000000;fill:#000000;}
*[layerid="14"] {stroke:#000000;fill:#000000;}
*[layerid="15"] {stroke:#000000;fill:#000000;}
*[layerid="19"] {stroke:#000000;fill:#000000;}
*[layerid="21"] {stroke:#000000;fill:#000000;}
*[layerid="22"] {stroke:#000000;fill:#000000;}
*[layerid="23"] {stroke:#000000;fill:#000000;}
*[layerid="24"] {stroke:#000000;fill:#000000;}
*[layerid="25"] {stroke:#000000;fill:#000000;}
*[layerid="26"] {stroke:#000000;fill:#000000;}
*[layerid="27"] {stroke:#000000;fill:#000000;}
*[layerid="28"] {stroke:#000000;fill:#000000;}
*[layerid="29"] {stroke:#000000;fill:#000000;}
*[layerid="30"] {stroke:#000000;fill:#000000;}
*[layerid="31"] {stroke:#000000;fill:#000000;}
*[layerid="32"] {stroke:#000000;fill:#000000;}
*[layerid="33"] {stroke:#000000;fill:#000000;}
*[layerid="34"] {stroke:#000000;fill:#000000;}
*[layerid="35"] {stroke:#000000;fill:#000000;}
*[layerid="36"] {stroke:#000000;fill:#000000;}
*[layerid="37"] {stroke:#000000;fill:#000000;}
*[layerid="38"] {stroke:#000000;fill:#000000;}
*[layerid="39"] {stroke:#000000;fill:#000000;}
*[layerid="40"] {stroke:#000000;fill:#000000;}
*[layerid="41"] {stroke:#000000;fill:#000000;}
*[layerid="42"] {stroke:#000000;fill:#000000;}
*[layerid="43"] {stroke:#000000;fill:#000000;}
*[layerid="44"] {stroke:#000000;fill:#000000;}
*[layerid="45"] {stroke:#000000;fill:#000000;}
*[layerid="46"] {stroke:#000000;fill:#000000;}
*[layerid="47"] {stroke:#000000;fill:#000000;}
*[layerid="48"] {stroke:#000000;fill:#000000;}
*[layerid="49"] {stroke:#000000;fill:#000000;}
*[layerid="50"] {stroke:#000000;fill:#000000;}
*[layerid="51"] {stroke:#000000;fill:#000000;}
*[layerid="52"] {stroke:#000000;fill:#000000;}
*[layerid="99"] {stroke:#000000;fill:#000000;}
*[layerid="100"] {stroke:#000000;fill:#000000;}
*[layerid="101"] {stroke:#000000;fill:#000000;}
*[layerid="Hole"] {stroke:#000000;fill:#000000;}
*[layerid="DRCError"] {stroke:#000000;fill:#000000;}
*[fill="none"] {fill: none;}
*[stroke="none"] {stroke: none;}
path, polyline, polygon, line {stroke-linecap:round;}
g[c_partid="part_pad"][layerid="1"] ellipse:not([c_etype="pad_outer"]) {fill:#000000;}
g[c_partid="part_pad"][layerid="1"] polygon:not([c_etype="pad_outer"]) {fill:#000000;}
g[c_partid="part_pad"][layerid="1"] polyline:not([c_etype="pad_outer"]) {stroke:#000000;}
g[c_partid="part_pad"][layerid="2"] ellipse:not([c_etype="pad_outer"]) {fill:#000000;}
g[c_partid="part_pad"][layerid="2"] polygon:not([c_etype="pad_outer"]) {fill:#000000;}
g[c_partid="part_pad"][layerid="2"] polyline:not([c_etype="pad_outer"]) {stroke:#000000;}
g[c_partid="part_pad"][layerid="11"] ellipse:not([c_etype="pad_outer"]) {fill:#000000;}
g[c_partid="part_pad"][layerid="11"] polygon:not([c_etype="pad_outer"]) {fill:#000000;}
g[c_partid="part_pad"][layerid="11"] polyline:not([c_etype="pad_outer"]) {stroke:#000000;}
g[c_partid="part_pad"][layerid="11"] circle {fill:#FFFFFF;}
g[c_partid="part_pad"][layerid="11"] > polyline:nth-of-type(2) {stroke:#FFFFFF;}
g[c_partid="part_pad"][layerid="11"][c_shape="ELLIPSE"]  polyline:nth-last-of-type(1) {stroke:#FFFFFF;}
g[c_partid="part_pad"][layerid="11"][c_shape="RECT"]  polyline:nth-last-of-type(1) {stroke:#FFFFFF;}
g[c_partid="part_pad"][layerid="11"][c_shape="POLYGON"]  polyline:nth-last-of-type(1) {stroke:#FFFFFF;}
g[c_partid="part_via"] > * + circle, #gCurParts g[c_partid="part_via"] > * + circle {fill:#FFFFFF;}
g[c_partid="part_pad"] > polygon[c_etype="pad_outer"], #gCurParts g[c_partid="part_pad"] > polygon[c_etype="pad_outer"] {stroke-linejoin: miter;stroke-miterlimit: 100;}
g[c_partid="part_hole"] > circle {fill: #FFFFFF;}path, polyline, polygon {stroke-linejoin:round;}
rect, circle, ellipse, polyline, line, polygon, path {shape-rendering:crispEdges;}
</style>
<rect x="4037.6" y="3038.5" width="165.7" height="165.7" fill="#FFFFFF" stroke="none"/><path d="M 4180.20355 3185.47611 L 4180.06737 3185.5 4056.9 3185.5 4056.74693 3185.46955 4056.61716 3185.38284 4056.53045 3185.25307 4056.5 3185.1 4056.5 3061.55209 4056.53524 3061.38792 4056.63475 3061.25269 4056.781 3061.1702 4057.21296 3061.0356 4057.76567 3060.78684 4058.28437 3060.47328 4058.76149 3060.09948 4059.19008 3059.67089 4059.56388 3059.19377 4059.86656 3058.69306 4059.9559 3058.59016 4060.07459 3058.52321 4060.20888 3058.5 4183.1 3058.5 4183.25307 3058.53045 4183.38284 3058.61716 4183.46955 3058.74693 4183.5 3058.9 4183.5 3181.34559 4183.47107 3181.49493 4183.38848 3181.62268 4183.26417 3181.71035 4183.02173 3181.81946 4182.50303 3182.13302 4182.02591 3182.50682 4181.59732 3182.93541 4181.22352 3183.41253 4180.90996 3183.93123 4180.6612 3184.48394 4180.48088 3185.06261 4180.46082 3185.1721 4180.41277 3185.30174 4180.32345 3185.40728 4180.20355 3185.47611 Z M 4084.32535 3180.99624 L 4084.50873 3181.00425 4119.49127 3181.00425 4119.67465 3180.99624 4119.84797 3180.97343 4120.01864 3180.93559 4120.18536 3180.88302 4120.34687 3180.81612 4120.50193 3180.7354 4120.64937 3180.64147 4120.78806 3180.53505 4120.92339 3180.41105 4145.41105 3155.92339 4145.53505 3155.78806 4145.64147 3155.64937 4145.7354 3155.50193 4145.81612 3155.34687 4145.88302 3155.18536 4145.93559 3155.01864 4145.97343 3154.84797 4145.99624 3154.67465 4146.00425 3154.49127 4146.00425 3087.17637 4146.03917 3087.01292 4146.13782 3086.87801 4146.28299 3086.79519 4146.44933 3086.77891 4146.6078 3086.83203 4146.73073 3086.94526 4147.02333 3087.3586 4147.41478 3087.788 4147.85602 3088.16603 4148.34038 3088.48698 4148.6 3088.61626 4148.6 3086.5 4146.40425 3086.5 4146.25118 3086.46955 4146.12141 3086.38284 4146.0347 3086.25307 4146.00425 3086.1 4146.00425 3082.7 4146.0347 3082.54693 4146.12141 3082.41716 4146.25118 3082.33045 4146.40425 3082.3 4148.6 3082.3 4148.6 3080.18374 4148.34038 3080.31302 4147.85602 3080.63397 4147.41478 3081.012 4147.02333 3081.4414 4146.73073 3081.85474 4146.6078 3081.96797 4146.44933 3082.02109 4146.28299 3082.00481 4146.13782 3081.92199 4146.03917 3081.78708 4146.00425 3081.62363 4146.00425 3074.29587 4146.0347 3074.1428 4146.12141 3074.01303 4148.92485 3071.20958 4149.04801 3071.12569 4149.19333 3071.09269 4149.97611 3071.26339 4150.55467 3071.317 4151.13544 3071.29911 4151.7096 3071.20998 4152.26846 3071.05097 4152.80355 3070.82449 4153.30674 3070.53397 4153.77042 3070.18381 4154.18756 3069.77933 4154.55183 3069.32665 4154.85771 3068.83264 4155.10056 3068.30479 4155.2767 3067.75109 4155.38347 3067.17994 4155.41924 3066.6 4155.38347 3066.02006 4155.2767 3065.44891 4155.10056 3064.89521 4154.85771 3064.36736 4154.55183 3063.87335 4154.18756 3063.42067 4153.77042 3063.01619 4153.30674 3062.66603 4152.80355 3062.37551 4152.26846 3062.14903 4151.7096 3061.99002 4151.13544 3061.90089 4150.55467 3061.883 4149.97611 3061.93661 4149.40852 3062.06091 4148.86051 3062.25403 4148.34038 3062.51302 4147.85602 3062.83397 4147.41478 3063.212 4147.02333 3063.6414 4146.68762 3064.11564 4146.41273 3064.62754 4146.20284 3065.16935 4146.06111 3065.73284 4145.98971 3066.30948 4145.98971 3066.89052 4146.06111 3067.46716 4146.19414 3067.99609 4146.20432 3068.1326 4146.16788 3068.26456 4146.08907 3068.37649 4142.58895 3071.87661 4142.46495 3072.01194 4142.35853 3072.15063 4142.2646 3072.29807 4142.18388 3072.45313 4142.11698 3072.61464 4142.06441 3072.78136 4142.02657 3072.95203 4142.00376 3073.12535 4141.99575 3073.30873 4141.99575 3153.50413 4141.9653 3153.6572 4141.87859 3153.78697 4118.78697 3176.87859 4118.6572 3176.9653 4118.50413 3176.99575 4085.49587 3176.99575 4085.3428 3176.9653 4085.21303 3176.87859 4080.12141 3171.78697 4080.0347 3171.6572 4080.00425 3171.50413 4080.00425 3165.49587 4080.0347 3165.3428 4080.12141 3165.21303 4085.21303 3160.12141 4085.3428 3160.0347 4085.49587 3160.00425 4087.21823 3160.00425 4087.36758 3160.03318 4087.49532 3160.11577 4087.58299 3160.24008 4087.61144 3160.30329 4087.92107 3160.81548 4088.29018 3161.28661 4088.71339 3161.70982 4089.18452 3162.07893 4089.69671 3162.38856 4090.24481 3162.63524 4090.36913 3162.72291 4090.45172 3162.85066 4090.48065 3163 4090.45172 3163.14934 4090.36913 3163.27709 4090.24481 3163.36476 4089.69671 3163.61144 4089.18452 3163.92107 4088.71339 3164.29018 4088.29018 3164.71339 4087.92107 3165.18452 4087.61144 3165.69671 4087.36581 3166.24248 4087.18775 3166.81389 4087.07987 3167.40259 4087.04373 3168 4087.07987 3168.59741 4087.18775 3169.18611 4087.36581 3169.75752 4087.61144 3170.30329 4087.92107 3170.81548 4088.29018 3171.28661 4088.71339 3171.70982 4089.18452 3172.07893 4089.69671 3172.38856 4090.24248 3172.63419 4090.81389 3172.81225 4091.40259 3172.92013 4092 3172.95627 4092.59741 3172.92013 4093.18611 3172.81225 4093.75752 3172.63419 4094.30329 3172.38856 4094.81548 3172.07893 4095.28661 3171.70982 4095.70982 3171.28661 4096.07893 3170.81548 4096.38856 3170.30329 4096.63524 3169.75519 4096.72291 3169.63087 4096.85066 3169.54828 4097 3169.51935 4097.14934 3169.54828 4097.27709 3169.63087 4097.36476 3169.75519 4097.61144 3170.30329 4097.92107 3170.81548 4098.29018 3171.28661 4098.71339 3171.70982 4099.18452 3172.07893 4099.69671 3172.38856 4100.24248 3172.63419 4100.81389 3172.81225 4101.40259 3172.92013 4102 3172.95627 4102.59741 3172.92013 4103.18611 3172.81225 4103.75752 3172.63419 4104.30329 3172.38856 4104.81548 3172.07893 4105.28661 3171.70982 4105.70982 3171.28661 4106.07893 3170.81548 4106.38856 3170.30329 4106.41701 3170.24008 4106.50468 3170.11577 4106.63242 3170.03318 4106.78177 3170.00425 4116.99127 3170.00425 4117.17465 3169.99624 4117.34797 3169.97343 4117.51864 3169.93559 4117.68536 3169.88302 4117.84687 3169.81612 4118.00193 3169.7354 4118.14937 3169.64147 4118.28806 3169.53505 4118.42339 3169.41105 4124.91105 3162.92339 4125.03505 3162.78806 4125.14147 3162.64937 4125.2354 3162.50193 4125.31612 3162.34687 4125.38302 3162.18536 4125.43559 3162.01864 4125.47343 3161.84797 4125.49624 3161.67465 4125.50425 3161.49127 4125.50425 3141.50873 4125.49624 3141.32535 4125.47343 3141.15203 4125.43559 3140.98136 4125.38302 3140.81464 4125.31612 3140.65313 4125.2354 3140.49807 4125.14147 3140.35063 4125.03505 3140.21194 4124.91105 3140.07661 4121.36728 3136.53284 4121.28057 3136.40307 4121.25012 3136.25 4121.28057 3136.09693 4121.36728 3135.96716 4137.41105 3119.92339 4137.53505 3119.78806 4137.64147 3119.64937 4137.7354 3119.50193 4137.81612 3119.34687 4137.88302 3119.18536 4137.93559 3119.01864 4137.97343 3118.84797 4137.99624 3118.67465 4138.00425 3118.49127 4138.00425 3075.00873 4137.99624 3074.82535 4137.97343 3074.65203 4137.93559 3074.48136 4137.88302 3074.31464 4137.81612 3074.15313 4137.7354 3073.99807 4137.64147 3073.85063 4137.53505 3073.71194 4137.41105 3073.57661 4129.92339 3066.08895 4129.78806 3065.96495 4129.64937 3065.85853 4129.50193 3065.7646 4129.34687 3065.68388 4129.18536 3065.61698 4129.01864 3065.56441 4128.84797 3065.52657 4128.67465 3065.50376 4128.49127 3065.49575 4068.50873 3065.49575 4068.32535 3065.50376 4068.15203 3065.52657 4067.98136 3065.56441 4067.81464 3065.61698 4067.65313 3065.68388 4067.49807 3065.7646 4067.35063 3065.85853 4067.21194 3065.96495 4067.07661 3066.08895 4058.08895 3075.07661 4057.96495 3075.21194 4057.85853 3075.35063 4057.7646 3075.49807 4057.68388 3075.65313 4057.61698 3075.81464 4057.56441 3075.98136 4057.52657 3076.15203 4057.50376 3076.32535 4057.49575 3076.50873 4057.49575 3146.99127 4057.50376 3147.17465 4057.52657 3147.34797 4057.56441 3147.51864 4057.61698 3147.68536 4057.68388 3147.84687 4057.7646 3148.00193 4057.85853 3148.14937 4057.96495 3148.28806 4058.08895 3148.42339 4062.87859 3153.21303 4062.9653 3153.3428 4062.99575 3153.49587 4062.99575 3171.69717 4062.96945 3171.83982 4062.89401 3171.96371 4062.77934 3172.05255 4062.64054 3172.09465 4062.38859 3172.12304 4062.17354 3172.19829 4061.98062 3172.31951 4061.81951 3172.48062 4061.69829 3172.67354 4061.62304 3172.88859 4061.595 3173.13746 4061.595 3177.86254 4061.62304 3178.11141 4061.69829 3178.32646 4061.81951 3178.51938 4061.98062 3178.68049 4062.17354 3178.80171 4062.38859 3178.87696 4062.63746 3178.905 4067.36254 3178.905 4067.61141 3178.87696 4067.82646 3178.80171 4068.01938 3178.68049 4068.18049 3178.51938 4068.30171 3178.32646 4068.37696 3178.11141 4068.405 3177.86254 4068.405 3173.13746 4068.37696 3172.88859 4068.30171 3172.67354 4068.18049 3172.48062 4068.01938 3172.31951 4067.82646 3172.19829 4067.61141 3172.12304 4067.35946 3172.09465 4067.22066 3172.05255 4067.10599 3171.96371 4067.03055 3171.83982 4067.00425 3171.69717 4067.00425 3152.50873 4066.99624 3152.32535 4066.97343 3152.15203 4066.93559 3151.98136 4066.88302 3151.81464 4066.81612 3151.65313 4066.7354 3151.49807 4066.64147 3151.35063 4066.53505 3151.21194 4066.41105 3151.07661 4061.62141 3146.28697 4061.5347 3146.1572 4061.50425 3146.00413 4061.50425 3139.10491 4061.54006 3138.93949 4061.64107 3138.80368 4061.78921 3138.72181 4061.95794 3138.70853 4062.11706 3138.76622 4062.17354 3138.80171 4062.38859 3138.87696 4062.63746 3138.905 4067.36254 3138.905 4067.61141 3138.87696 4067.82646 3138.80171 4068.01938 3138.68049 4068.18049 3138.51938 4068.30171 3138.32646 4068.37696 3138.11141 4068.40535 3137.85946 4068.44745 3137.72066 4068.53629 3137.60599 4068.66018 3137.53055 4068.80283 3137.50425 4072.64927 3137.50425 4072.79862 3137.53318 4072.92636 3137.61577 4073.01403 3137.74008 4073.05566 3137.83257 4073.36922 3138.35127 4073.74302 3138.82839 4074.17161 3139.25698 4074.64873 3139.63078 4075.16743 3139.94434 4075.59159 3140.13524 4075.7159 3140.22291 4075.7985 3140.35066 4075.82742 3140.5 4075.7985 3140.64934 4075.7159 3140.77709 4075.59159 3140.86476 4075.16743 3141.05566 4074.64873 3141.36922 4074.17161 3141.74302 4073.74302 3142.17161 4073.36922 3142.64873 4073.05566 3143.16743 4072.8069 3143.72014 4072.62658 3144.29881 4072.51733 3144.89499 4072.48073 3145.5 4072.51733 3146.10501 4072.62658 3146.70119 4072.8069 3147.27986 4073.05566 3147.83257 4073.36922 3148.35127 4073.74302 3148.82839 4074.17161 3149.25698 4074.64873 3149.63078 4075.16743 3149.94434 4075.72014 3150.1931 4076.29881 3150.37342 4076.89499 3150.48267 4077.5 3150.51927 4078.10501 3150.48267 4078.70119 3150.37342 4079.27986 3150.1931 4079.83257 3149.94434 4080.35127 3149.63078 4080.82839 3149.25698 4081.25698 3148.82839 4081.63078 3148.35127 4081.94434 3147.83257 4082.1931 3147.27986 4082.37342 3146.70119 4082.48267 3146.10501 4082.51927 3145.5 4082.48267 3144.89499 4082.37342 3144.29881 4082.1931 3143.72014 4081.94434 3143.16743 4081.63078 3142.64873 4081.25698 3142.17161 4080.82839 3141.74302 4080.35127 3141.36922 4079.83257 3141.05566 4079.40841 3140.86476 4079.2841 3140.77709 4079.2015 3140.64934 4079.17258 3140.5 4079.2015 3140.35066 4079.2841 3140.22291 4079.40841 3140.13524 4079.83257 3139.94434 4080.35127 3139.63078 4080.82839 3139.25698 4081.25698 3138.82839 4081.63078 3138.35127 4081.94434 3137.83257 4082.1931 3137.27986 4082.37342 3136.70119 4082.48267 3136.10501 4082.51927 3135.5 4082.48267 3134.89499 4082.37342 3134.29881 4082.1931 3133.72014 4081.94434 3133.16743 4081.63078 3132.64873 4081.25698 3132.17161 4080.82839 3131.74302 4080.35127 3131.36922 4079.83257 3131.05566 4079.40841 3130.86476 4079.2841 3130.77709 4079.2015 3130.64934 4079.17258 3130.5 4079.2015 3130.35066 4079.2841 3130.22291 4079.40841 3130.13524 4079.83257 3129.94434 4080.35127 3129.63078 4080.82839 3129.25698 4081.25698 3128.82839 4081.63078 3128.35127 4081.94434 3127.83257 4082.1931 3127.27986 4082.37342 3126.70119 4082.48267 3126.10501 4082.51927 3125.5 4082.48267 3124.89499 4082.37342 3124.29881 4082.1931 3123.72014 4081.94434 3123.16743 4081.63078 3122.64873 4081.25698 3122.17161 4080.82839 3121.74302 4080.35127 3121.36922 4079.83257 3121.05566 4079.40841 3120.86476 4079.2841 3120.77709 4079.2015 3120.64934 4079.17258 3120.5 4079.2015 3120.35066 4079.2841 3120.22291 4079.40841 3120.13524 4079.83257 3119.94434 4080.35127 3119.63078 4080.82839 3119.25698 4081.25698 3118.82839 4081.63078 3118.35127 4081.94434 3117.83257 4082.1931 3117.27986 4082.37342 3116.70119 4082.48267 3116.10501 4082.51927 3115.5 4082.48267 3114.89499 4082.37342 3114.29881 4082.1931 3113.72014 4081.94434 3113.16743 4081.63078 3112.64873 4081.25698 3112.17161 4080.82839 3111.74302 4080.35127 3111.36922 4079.83257 3111.05566 4079.27986 3110.8069 4078.70119 3110.62658 4078.10501 3110.51733 4077.5 3110.48073 4076.89499 3110.51733 4076.29881 3110.62658 4075.72014 3110.8069 4075.16743 3111.05566 4074.64873 3111.36922 4074.17161 3111.74302 4073.74302 3112.17161 4073.36922 3112.64873 4073.05566 3113.16743 4072.8069 3113.72014 4072.62658 3114.29881 4072.51733 3114.89499 4072.48073 3115.5 4072.51733 3116.10501 4072.62658 3116.70119 4072.8069 3117.27986 4073.05566 3117.83257 4073.36922 3118.35127 4073.74302 3118.82839 4074.17161 3119.25698 4074.64873 3119.63078 4075.16743 3119.94434 4075.59159 3120.13524 4075.7159 3120.22291 4075.7985 3120.35066 4075.82742 3120.5 4075.7985 3120.64934 4075.7159 3120.77709 4075.59159 3120.86476 4075.16743 3121.05566 4074.64873 3121.36922 4074.17161 3121.74302 4073.74302 3122.17161 4073.36922 3122.64873 4073.05566 3123.16743 4072.8069 3123.72014 4072.62658 3124.29881 4072.51733 3124.89499 4072.48073 3125.5 4072.51733 3126.10501 4072.62658 3126.70119 4072.8069 3127.27986 4073.05566 3127.83257 4073.36922 3128.35127 4073.74302 3128.82839 4074.17161 3129.25698 4074.64873 3129.63078 4075.16743 3129.94434 4075.59159 3130.13524 4075.7159 3130.22291 4075.7985 3130.35066 4075.82742 3130.5 4075.7985 3130.64934 4075.7159 3130.77709 4075.59159 3130.86476 4075.16743 3131.05566 4074.64873 3131.36922 4074.17161 3131.74302 4073.74302 3132.17161 4073.36922 3132.64873 4073.05566 3133.16743 4073.01403 3133.25992 4072.92636 3133.38423 4072.79862 3133.46682 4072.64927 3133.49575 4068.80283 3133.49575 4068.66018 3133.46945 4068.53629 3133.39401 4068.44745 3133.27934 4068.40535 3133.14054 4068.37696 3132.88859 4068.30171 3132.67354 4068.18049 3132.48062 4068.01938 3132.31951 4067.82646 3132.19829 4067.61141 3132.12304 4067.36254 3132.095 4062.63746 3132.095 4062.38859 3132.12304 4062.17354 3132.19829 4062.11706 3132.23378 4061.95794 3132.29147 4061.78921 3132.27819 4061.64107 3132.19632 4061.54006 3132.06051 4061.50425 3131.89509 4061.50425 3077.49587 4061.5347 3077.3428 4061.62141 3077.21303 4069.21303 3069.62141 4069.3428 3069.5347 4069.49587 3069.50425 4127.50413 3069.50425 4127.6572 3069.5347 4127.78697 3069.62141 4133.87859 3075.71303 4133.9653 3075.8428 4133.99575 3075.99587 4133.99575 3117.50413 4133.9653 3117.6572 4133.87859 3117.78697 4117.92276 3133.7428 4117.80534 3133.82415 4117.66682 3133.85905 4117.52488 3133.84306 4117.3976 3133.77821 4117.30123 3133.67277 4117.18049 3133.48062 4117.01938 3133.31951 4116.82646 3133.19829 4116.61141 3133.12304 4116.36254 3133.095 4111.63746 3133.095 4111.38859 3133.12304 4111.17354 3133.19829 4110.98062 3133.31951 4110.81951 3133.48062 4110.69829 3133.67354 4110.62304 3133.88859 4110.595 3134.13746 4110.595 3138.86254 4110.62304 3139.11141 4110.69829 3139.32646 4110.81951 3139.51938 4110.98062 3139.68049 4111.17354 3139.80171 4111.38859 3139.87696 4111.63746 3139.905 4116.36254 3139.905 4116.61141 3139.87696 4116.82646 3139.80171 4117.01938 3139.68049 4117.18049 3139.51938 4117.30171 3139.32646 4117.442 3138.94751 4117.56925 3138.82824 4117.73516 3138.77446 4117.90818 3138.79639 4118.05543 3138.88986 4121.37859 3142.21303 4121.4653 3142.3428 4121.49575 3142.49587 4121.49575 3160.50413 4121.4653 3160.6572 4121.37859 3160.78697 4116.28697 3165.87859 4116.1572 3165.9653 4116.00413 3165.99575 4106.78177 3165.99575 4106.63242 3165.96682 4106.50468 3165.88423 4106.41701 3165.75992 4106.38856 3165.69671 4106.07893 3165.18452 4105.70982 3164.71339 4105.28661 3164.29018 4104.81548 3163.92107 4104.30329 3163.61144 4103.75519 3163.36476 4103.63087 3163.27709 4103.54828 3163.14934 4103.51935 3163 4103.54828 3162.85066 4103.63087 3162.72291 4103.75519 3162.63524 4104.30329 3162.38856 4104.81548 3162.07893 4105.28661 3161.70982 4105.70982 3161.28661 4106.07893 3160.81548 4106.38856 3160.30329 4106.63419 3159.75752 4106.81225 3159.18611 4106.92013 3158.59741 4106.95627 3158 4106.92013 3157.40259 4106.81225 3156.81389 4106.6961 3156.44114 4106.67871 3156.29799 4106.71322 3156.15797 4106.79514 3156.0393 4108.71303 3154.12141 4108.8428 3154.0347 4108.99587 3154.00425 4110.69717 3154.00425 4110.83982 3154.03055 4110.96371 3154.10599 4111.05255 3154.22066 4111.09465 3154.35946 4111.12304 3154.61141 4111.19829 3154.82646 4111.31951 3155.01938 4111.48062 3155.18049 4111.67354 3155.30171 4111.88859 3155.37696 4112.13746 3155.405 4116.86254 3155.405 4117.11141 3155.37696 4117.32646 3155.30171 4117.51938 3155.18049 4117.68049 3155.01938 4117.80171 3154.82646 4117.87696 3154.61141 4117.905 3154.36254 4117.905 3149.63746 4117.87696 3149.38859 4117.80171 3149.17354 4117.68049 3148.98062 4117.51938 3148.81951 4117.32646 3148.69829 4117.11141 3148.62304 4116.86254 3148.595 4112.13746 3148.595 4111.88859 3148.62304 4111.67354 3148.69829 4111.48062 3148.81951 4111.31951 3148.98062 4111.19829 3149.17354 4111.12304 3149.38859 4111.09465 3149.64054 4111.05255 3149.77934 4110.96371 3149.89401 4110.83982 3149.96945 4110.69717 3149.99575 4108.00873 3149.99575 4107.82535 3150.00376 4107.65203 3150.02657 4107.48136 3150.06441 4107.19378 3150.16704 4107.04675 3150.19744 4106.89887 3150.17149 4106.77097 3150.09285 4106.68107 3149.97259 4106.64185 3149.82767 4106.65882 3149.67849 4106.81225 3149.18611 4106.92013 3148.59741 4106.95627 3148 4106.92013 3147.40259 4106.81225 3146.81389 4106.63419 3146.24248 4106.38856 3145.69671 4106.07893 3145.18452 4105.70982 3144.71339 4105.28661 3144.29018 4104.81548 3143.92107 4104.30329 3143.61144 4103.75519 3143.36476 4103.18611 3143.18775 4102.59741 3143.07987 4102 3143.04373 4101.40259 3143.07987 4100.81389 3143.18775 4100.3005 3143.34773 4100.24481 3143.36476 4099.69671 3143.61144 4099.18452 3143.92107 4098.71339 3144.29018 4098.29018 3144.71339 4097.92107 3145.18452 4097.61144 3145.69671 4097.36476 3146.24481 4097.27709 3146.36913 4097.14934 3146.45172 4097 3146.48065 4096.85066 3146.45172 4096.72291 3146.36913 4096.63524 3146.24481 4096.38856 3145.69671 4096.07893 3145.18452 4095.70982 3144.71339 4095.28661 3144.29018 4094.81548 3143.92107 4094.30329 3143.61144 4093.75519 3143.36476 4093.63087 3143.27709 4093.54828 3143.14934 4093.51935 3143 4093.54828 3142.85066 4093.63087 3142.72291 4093.75519 3142.63524 4094.30329 3142.38856 4094.81548 3142.07893 4095.28661 3141.70982 4095.70982 3141.28661 4096.07893 3140.81548 4096.38856 3140.30329 4096.63524 3139.75519 4096.81225 3139.18611 4096.92013 3138.59741 4096.95627 3138 4096.92013 3137.40259 4096.81225 3136.81389 4096.65227 3136.3005 4096.63524 3136.24481 4096.38856 3135.69671 4096.07893 3135.18452 4095.70982 3134.71339 4095.28661 3134.29018 4094.81548 3133.92107 4094.30329 3133.61144 4093.75752 3133.36581 4093.18611 3133.18775 4092.59741 3133.07987 4092 3133.04373 4091.40259 3133.07987 4090.81389 3133.18775 4090.24248 3133.36581 4089.69671 3133.61144 4089.18452 3133.92107 4088.71339 3134.29018 4088.29018 3134.71339 4087.92107 3135.18452 4087.61144 3135.69671 4087.36581 3136.24248 4087.18775 3136.81389 4087.07987 3137.40259 4087.04373 3138 4087.07987 3138.59741 4087.18775 3139.18611 4087.36581 3139.75752 4087.61144 3140.30329 4087.92107 3140.81548 4088.29018 3141.28661 4088.71339 3141.70982 4089.18452 3142.07893 4089.69671 3142.38856 4090.24481 3142.63524 4090.36913 3142.72291 4090.45172 3142.85066 4090.48065 3143 4090.45172 3143.14934 4090.36913 3143.27709 4090.24481 3143.36476 4089.69671 3143.61144 4089.18452 3143.92107 4088.71339 3144.29018 4088.29018 3144.71339 4087.92107 3145.18452 4087.61144 3145.69671 4087.36581 3146.24248 4087.18775 3146.81389 4087.07987 3147.40259 4087.04373 3148 4087.07987 3148.59741 4087.18775 3149.18611 4087.36581 3149.75752 4087.61144 3150.30329 4087.92107 3150.81548 4088.29018 3151.28661 4088.71339 3151.70982 4089.18452 3152.07893 4089.69671 3152.38856 4090.24481 3152.63524 4090.36913 3152.72291 4090.45172 3152.85066 4090.48065 3153 4090.45172 3153.14934 4090.36913 3153.27709 4090.24481 3153.36476 4089.69671 3153.61144 4089.18452 3153.92107 4088.71339 3154.29018 4088.29018 3154.71339 4087.92107 3155.18452 4087.61144 3155.69671 4087.58299 3155.75992 4087.49532 3155.88423 4087.36758 3155.96682 4087.21823 3155.99575 4084.50873 3155.99575 4084.32535 3156.00376 4084.15203 3156.02657 4083.98136 3156.06441 4083.81464 3156.11698 4083.65313 3156.18388 4083.49807 3156.2646 4083.35063 3156.35853 4083.21194 3156.46495 4083.07661 3156.58895 4076.58895 3163.07661 4076.46495 3163.21194 4076.35853 3163.35063 4076.2646 3163.49807 4076.18388 3163.65313 4076.11698 3163.81464 4076.06441 3163.98136 4076.02657 3164.15203 4076.00376 3164.32535 4075.99575 3164.50873 4075.99575 3172.49127 4076.00376 3172.67465 4076.02657 3172.84797 4076.06441 3173.01864 4076.11698 3173.18536 4076.18388 3173.34687 4076.2646 3173.50193 4076.35853 3173.64937 4076.46495 3173.78806 4076.58895 3173.92339 4083.07661 3180.41105 4083.21194 3180.53505 4083.35063 3180.64147 4083.49807 3180.7354 4083.65313 3180.81612 4083.81464 3180.88302 4083.98136 3180.93559 4084.15203 3180.97343 4084.32535 3180.99624 Z M 4173.77754 3176.32 L 4174.02641 3176.29196 4174.24146 3176.21671 4174.43438 3176.09549 4174.59549 3175.93438 4174.71671 3175.74146 4174.79196 3175.52641 4174.82 3175.27754 4174.82 3167.72246 4174.79196 3167.47359 4174.71671 3167.25854 4174.59549 3167.06562 4174.43438 3166.90451 4174.32963 3166.83869 4174.21364 3166.72779 4174.15057 3166.58024 4174.15057 3166.41976 4174.21364 3166.27221 4174.32963 3166.16131 4174.43438 3166.09549 4174.59549 3165.93438 4174.71671 3165.74146 4174.79196 3165.52641 4174.82 3165.27754 4174.82 3163.65 4172.15 3163.65 4172.15 3166.28 4172.11955 3166.43307 4172.03284 3166.56284 4171.90307 3166.64955 4171.75 3166.68 4168.25 3166.68 4168.09693 3166.64955 4167.96716 3166.56284 4167.88045 3166.43307 4167.85 3166.28 4167.85 3163.65 4165.18 3163.65 4165.18 3165.27754 4165.20804 3165.52641 4165.28329 3165.74146 4165.40451 3165.93438 4165.56562 3166.09549 4165.67037 3166.16131 4165.78636 3166.27221 4165.84943 3166.41976 4165.84943 3166.58024 4165.78636 3166.72779 4165.67037 3166.83869 4165.56562 3166.90451 4165.40451 3167.06562 4165.28329 3167.25854 4165.20804 3167.47359 4165.18 3167.72246 4165.18 3169.09575 4165.14955 3169.24882 4165.06284 3169.37859 4164.93307 3169.4653 4164.78 3169.49575 4161.99587 3169.49575 4161.8428 3169.4653 4161.71303 3169.37859 4156.62141 3164.28697 4156.5347 3164.1572 4156.50425 3164.00413 4156.50425 3155.80283 4156.53055 3155.66018 4156.60599 3155.53629 4156.72066 3155.44745 4156.85946 3155.40535 4157.11141 3155.37696 4157.32646 3155.30171 4157.51938 3155.18049 4157.68049 3155.01938 4157.80171 3154.82646 4157.87696 3154.61141 4157.905 3154.36254 4157.905 3149.63746 4157.87696 3149.38859 4157.80171 3149.17354 4157.68049 3148.98062 4157.51938 3148.81951 4157.32646 3148.69829 4157.11141 3148.62304 4156.86254 3148.595 4152.13746 3148.595 4151.88859 3148.62304 4151.67354 3148.69829 4151.48062 3148.81951 4151.31951 3148.98062 4151.19829 3149.17354 4151.12304 3149.38859 4151.095 3149.63746 4151.095 3154.36254 4151.12304 3154.61141 4151.19829 3154.82646 4151.31951 3155.01938 4151.48062 3155.18049 4151.67354 3155.30171 4151.88859 3155.37696 4152.14054 3155.40535 4152.27934 3155.44745 4152.39401 3155.53629 4152.46945 3155.66018 4152.49575 3155.80283 4152.49575 3164.99127 4152.50376 3165.17465 4152.52657 3165.34797 4152.56441 3165.51864 4152.61698 3165.68536 4152.68388 3165.84687 4152.7646 3166.00193 4152.85853 3166.14937 4152.96495 3166.28806 4153.08895 3166.42339 4159.57661 3172.91105 4159.71194 3173.03505 4159.85063 3173.14147 4159.99807 3173.2354 4160.15313 3173.31612 4160.31464 3173.38302 4160.48136 3173.43559 4160.65203 3173.47343 4160.82535 3173.49624 4161.00873 3173.50425 4164.78 3173.50425 4164.93307 3173.5347 4165.06284 3173.62141 4165.14955 3173.75118 4165.18 3173.90425 4165.18 3175.27754 4165.20804 3175.52641 4165.28329 3175.74146 4165.40451 3175.93438 4165.56562 3176.09549 4165.75854 3176.21671 4165.97359 3176.29196 4166.22246 3176.32 4173.77754 3176.32 Z M 4116.36859 3104.12196 L 4116.61746 3104.15 4128.38254 3104.15 4128.63141 3104.12196 4128.84646 3104.04671 4129.03938 3103.92549 4129.20049 3103.76438 4129.32171 3103.57146 4129.39696 3103.35641 4129.425 3103.10754 4129.425 3081.89246 4129.39696 3081.64359 4129.32171 3081.42854 4129.20049 3081.23562 4129.03938 3081.07451 4128.84646 3080.95329 4128.63141 3080.87804 4128.38254 3080.85 4116.61746 3080.85 4116.36859 3080.87804 4116.15354 3080.95329 4115.96062 3081.07451 4115.79951 3081.23562 4115.67829 3081.42854 4115.60304 3081.64359 4115.575 3081.89246 4115.575 3103.10754 4115.60304 3103.35641 4115.67829 3103.57146 4115.79951 3103.76438 4115.96062 3103.92549 4116.15354 3104.04671 4116.36859 3104.12196 Z M 4091.36859 3104.12196 L 4091.61746 3104.15 4103.38254 3104.15 4103.63141 3104.12196 4103.84646 3104.04671 4104.03938 3103.92549 4104.20049 3103.76438 4104.32171 3103.57146 4104.39696 3103.35641 4104.425 3103.10754 4104.425 3081.89246 4104.39696 3081.64359 4104.32171 3081.42854 4104.20049 3081.23562 4104.03938 3081.07451 4103.84646 3080.95329 4103.63141 3080.87804 4103.38254 3080.85 4091.61746 3080.85 4091.36859 3080.87804 4091.15354 3080.95329 4090.96062 3081.07451 4090.79951 3081.23562 4090.67829 3081.42854 4090.60304 3081.64359 4090.575 3081.89246 4090.575 3103.10754 4090.60304 3103.35641 4090.67829 3103.57146 4090.79951 3103.76438 4090.96062 3103.92549 4091.15354 3104.04671 4091.36859 3104.12196 Z M 4167.5 3150.51927 L 4168.10501 3150.48267 4168.70119 3150.37342 4169.27986 3150.1931 4169.83257 3149.94434 4170.35127 3149.63078 4170.82839 3149.25698 4171.25698 3148.82839 4171.63078 3148.35127 4171.94434 3147.83257 4172.1931 3147.27986 4172.37342 3146.70119 4172.48267 3146.10501 4172.51927 3145.5 4172.48267 3144.89499 4172.37342 3144.29881 4172.1931 3143.72014 4171.94434 3143.16743 4171.63078 3142.64873 4171.25698 3142.17161 4170.82839 3141.74302 4170.35127 3141.36922 4169.83257 3141.05566 4169.40841 3140.86476 4169.2841 3140.77709 4169.2015 3140.64934 4169.17258 3140.5 4169.2015 3140.35066 4169.2841 3140.22291 4169.40841 3140.13524 4169.83257 3139.94434 4170.35127 3139.63078 4170.82839 3139.25698 4171.25698 3138.82839 4171.63078 3138.35127 4171.94434 3137.83257 4172.1931 3137.27986 4172.37342 3136.70119 4172.48267 3136.10501 4172.51927 3135.5 4172.48267 3134.89499 4172.37342 3134.29881 4172.1931 3133.72014 4171.94434 3133.16743 4171.63078 3132.64873 4171.25698 3132.17161 4170.82839 3131.74302 4170.35127 3131.36922 4169.83257 3131.05566 4169.40841 3130.86476 4169.2841 3130.77709 4169.2015 3130.64934 4169.17258 3130.5 4169.2015 3130.35066 4169.2841 3130.22291 4169.40841 3130.13524 4169.83257 3129.94434 4170.35127 3129.63078 4170.82839 3129.25698 4171.25698 3128.82839 4171.63078 3128.35127 4171.94434 3127.83257 4172.1931 3127.27986 4172.37342 3126.70119 4172.48267 3126.10501 4172.51927 3125.5 4172.48267 3124.89499 4172.37342 3124.29881 4172.1931 3123.72014 4171.94434 3123.16743 4171.63078 3122.64873 4171.25698 3122.17161 4170.82839 3121.74302 4170.35127 3121.36922 4169.83257 3121.05566 4169.40841 3120.86476 4169.3192 3120.80185 4169.231 3120.79168 4168.70119 3120.62658 4168.10501 3120.51733 4167.5 3120.48073 4166.89499 3120.51733 4166.29881 3120.62658 4165.769 3120.79168 4165.6808 3120.80185 4165.59159 3120.86476 4165.16743 3121.05566 4164.64873 3121.36922 4164.17161 3121.74302 4163.74302 3122.17161 4163.36922 3122.64873 4163.05566 3123.16743 4162.8069 3123.72014 4162.62658 3124.29881 4162.51733 3124.89499 4162.48073 3125.5 4162.51733 3126.10501 4162.62658 3126.70119 4162.8069 3127.27986 4163.05566 3127.83257 4163.36922 3128.35127 4163.74302 3128.82839 4164.17161 3129.25698 4164.64873 3129.63078 4165.16743 3129.94434 4165.59159 3130.13524 4165.7159 3130.22291 4165.7985 3130.35066 4165.82742 3130.5 4165.7985 3130.64934 4165.7159 3130.77709 4165.59159 3130.86476 4165.16743 3131.05566 4164.64873 3131.36922 4164.17161 3131.74302 4163.74302 3132.17161 4163.36922 3132.64873 4163.05566 3133.16743 4162.8069 3133.72014 4162.62658 3134.29881 4162.51733 3134.89499 4162.48073 3135.5 4162.51733 3136.10501 4162.62658 3136.70119 4162.8069 3137.27986 4163.05566 3137.83257 4163.36922 3138.35127 4163.74302 3138.82839 4164.17161 3139.25698 4164.64873 3139.63078 4165.16743 3139.94434 4165.59159 3140.13524 4165.7159 3140.22291 4165.7985 3140.35066 4165.82742 3140.5 4165.7985 3140.64934 4165.7159 3140.77709 4165.59159 3140.86476 4165.16743 3141.05566 4164.64873 3141.36922 4164.17161 3141.74302 4163.74302 3142.17161 4163.36922 3142.64873 4163.05566 3143.16743 4162.8069 3143.72014 4162.62658 3144.29881 4162.51733 3144.89499 4162.48073 3145.5 4162.51733 3146.10501 4162.62658 3146.70119 4162.8069 3147.27986 4163.05566 3147.83257 4163.36922 3148.35127 4163.74302 3148.82839 4164.17161 3149.25698 4164.64873 3149.63078 4165.16743 3149.94434 4165.72014 3150.1931 4166.29881 3150.37342 4166.89499 3150.48267 4167.5 3150.51927 Z M 4171.47754 3100.52 L 4171.72641 3100.49196 4171.94146 3100.41671 4172.13438 3100.29549 4172.29549 3100.13438 4172.41671 3099.94146 4172.49196 3099.72641 4172.52 3099.47754 4172.52 3091.52246 4172.49196 3091.27359 4172.41671 3091.05854 4172.29549 3090.86562 4172.13438 3090.70451 4171.94146 3090.58329 4171.72641 3090.50804 4171.47754 3090.48 4163.52246 3090.48 4163.27359 3090.50804 4163.05854 3090.58329 4162.86562 3090.70451 4162.70451 3090.86562 4162.58329 3091.05854 4162.50804 3091.27359 4162.48 3091.52246 4162.48 3099.47754 4162.50804 3099.72641 4162.58329 3099.94146 4162.70451 3100.13438 4162.86562 3100.29549 4163.05854 3100.41671 4163.27359 3100.49196 4163.52246 3100.52 4171.47754 3100.52 Z M 4176.15467 3071.317 L 4176.73544 3071.29911 4177.3096 3071.20998 4177.86846 3071.05097 4178.40355 3070.82449 4178.90674 3070.53397 4179.37042 3070.18381 4179.78756 3069.77933 4180.15183 3069.32665 4180.45771 3068.83264 4180.70056 3068.30479 4180.8767 3067.75109 4180.98347 3067.17994 4181.01924 3066.6 4180.98347 3066.02006 4180.8767 3065.44891 4180.70056 3064.89521 4180.45771 3064.36736 4180.15183 3063.87335 4179.78756 3063.42067 4179.37042 3063.01619 4178.90674 3062.66603 4178.40355 3062.37551 4177.86846 3062.14903 4177.3096 3061.99002 4176.73544 3061.90089 4176.15467 3061.883 4175.57611 3061.93661 4175.00852 3062.06091 4174.46051 3062.25403 4173.94038 3062.51302 4173.45602 3062.83397 4173.01478 3063.212 4172.62333 3063.6414 4172.28762 3064.11564 4172.01273 3064.62754 4171.80284 3065.16935 4171.66111 3065.73284 4171.58971 3066.30948 4171.58971 3066.89052 4171.66111 3067.46716 4171.80284 3068.03065 4172.01273 3068.57246 4172.28762 3069.08436 4172.62333 3069.5586 4173.01478 3069.988 4173.45602 3070.36603 4173.94038 3070.68698 4174.46051 3070.94597 4175.00852 3071.13909 4175.57611 3071.26339 4176.15467 3071.317 Z M 4176.15467 3089.117 L 4176.73544 3089.09911 4177.3096 3089.00998 4177.86846 3088.85097 4178.40355 3088.62449 4178.90674 3088.33397 4179.37042 3087.98381 4179.78756 3087.57933 4180.15183 3087.12665 4180.45771 3086.63264 4180.70056 3086.10479 4180.8767 3085.55109 4180.98347 3084.97994 4181.01924 3084.4 4180.98347 3083.82006 4180.8767 3083.24891 4180.70056 3082.69521 4180.45771 3082.16736 4180.15183 3081.67335 4179.78756 3081.22067 4179.37042 3080.81619 4178.90674 3080.46603 4178.40355 3080.17551 4177.86846 3079.94903 4177.3096 3079.79002 4176.73544 3079.70089 4176.15467 3079.683 4175.57611 3079.73661 4175.00852 3079.86091 4174.46051 3080.05403 4173.94038 3080.31302 4173.45602 3080.63397 4173.01478 3081.012 4172.62333 3081.4414 4172.28762 3081.91564 4172.01273 3082.42754 4171.80284 3082.96935 4171.66111 3083.53284 4171.58971 3084.10948 4171.58971 3084.69052 4171.66111 3085.26716 4171.80284 3085.83065 4172.01273 3086.37246 4172.28762 3086.88436 4172.62333 3087.3586 4173.01478 3087.788 4173.45602 3088.16603 4173.94038 3088.48698 4174.46051 3088.74597 4175.00852 3088.93909 4175.57611 3089.06339 4176.15467 3089.117 Z M 4069.2975 3104.15 L 4069.2975 3098.065 4065.575 3098.065 4065.575 3103.10754 4065.60304 3103.35641 4065.67829 3103.57146 4065.79951 3103.76438 4065.96062 3103.92549 4066.15354 3104.04671 4066.36859 3104.12196 4066.61746 3104.15 4069.2975 3104.15 Z M 4065.575 3081.89246 L 4065.575 3086.935 4069.2975 3086.935 4069.2975 3080.85 4066.61746 3080.85 4066.36859 3080.87804 4066.15354 3080.95329 4065.96062 3081.07451 4065.79951 3081.23562 4065.67829 3081.42854 4065.60304 3081.64359 4065.575 3081.89246 Z M 4075.7025 3098.065 L 4075.7025 3104.15 4078.38254 3104.15 4078.63141 3104.12196 4078.84646 3104.04671 4079.03938 3103.92549 4079.20049 3103.76438 4079.32171 3103.57146 4079.39696 3103.35641 4079.425 3103.10754 4079.425 3098.065 4075.7025 3098.065 Z M 4079.425 3086.935 L 4079.425 3081.89246 4079.39696 3081.64359 4079.32171 3081.42854 4079.20049 3081.23562 4079.03938 3081.07451 4078.84646 3080.95329 4078.63141 3080.87804 4078.38254 3080.85 4075.7025 3080.85 4075.7025 3086.935 4079.425 3086.935 Z M 4165.18 3157.72246 L 4165.18 3159.35 4167.85 3159.35 4167.85 3156.68 4166.22246 3156.68 4165.97359 3156.70804 4165.75854 3156.78329 4165.56562 3156.90451 4165.40451 3157.06562 4165.28329 3157.25854 4165.20804 3157.47359 4165.18 3157.72246 Z M 4174.82 3159.35 L 4174.82 3157.72246 4174.79196 3157.47359 4174.71671 3157.25854 4174.59549 3157.06562 4174.43438 3156.90451 4174.24146 3156.78329 4174.02641 3156.70804 4173.77754 3156.68 4172.15 3156.68 4172.15 3159.35 4174.82 3159.35 Z M 4169.75 3117.75 L 4169.75 3119.9815 4169.83257 3119.94434 4170.35127 3119.63078 4170.82839 3119.25698 4171.25698 3118.82839 4171.63078 3118.35127 4171.94434 3117.83257 4171.9815 3117.75 4169.75 3117.75 Z M 4165.16743 3119.94434 L 4165.25 3119.9815 4165.25 3117.75 4163.0185 3117.75 4163.05566 3117.83257 4163.36922 3118.35127 4163.74302 3118.82839 4164.17161 3119.25698 4164.64873 3119.63078 4165.16743 3119.94434 Z M 4165.25 3113.25 L 4165.25 3111.0185 4165.16743 3111.05566 4164.64873 3111.36922 4164.17161 3111.74302 4163.74302 3112.17161 4163.36922 3112.64873 4163.05566 3113.16743 4163.0185 3113.25 4165.25 3113.25 Z M 4171.9815 3113.25 L 4171.94434 3113.16743 4171.63078 3112.64873 4171.25698 3112.17161 4170.82839 3111.74302 4170.35127 3111.36922 4169.83257 3111.05566 4169.75 3111.0185 4169.75 3113.25 4171.9815 3113.25 Z M 4104.2185 3133.57328 L 4104.2185 3135.7815 4106.42672 3135.7815 4106.38856 3135.69671 4106.07893 3135.18452 4105.70982 3134.71339 4105.28661 3134.29018 4104.81548 3133.92107 4104.30329 3133.61144 4104.2185 3133.57328 Z M 4097.61144 3135.69671 L 4097.57328 3135.7815 4099.7815 3135.7815 4099.7815 3133.57328 4099.69671 3133.61144 4099.18452 3133.92107 4098.71339 3134.29018 4098.29018 3134.71339 4097.92107 3135.18452 4097.61144 3135.69671 Z M 4104.2185 3140.2185 L 4104.2185 3142.42672 4104.30329 3142.38856 4104.81548 3142.07893 4105.28661 3141.70982 4105.70982 3141.28661 4106.07893 3140.81548 4106.38856 3140.30329 4106.42672 3140.2185 4104.2185 3140.2185 Z M 4099.69671 3142.38856 L 4099.7815 3142.42672 4099.7815 3140.2185 4097.57328 3140.2185 4097.61144 3140.30329 4097.92107 3140.81548 4098.29018 3141.28661 4098.71339 3141.70982 4099.18452 3142.07893 4099.69671 3142.38856 Z M 4154.91873 3082.3 L 4154.85771 3082.16736 4154.55183 3081.67335 4154.18756 3081.22067 4153.77042 3080.81619 4153.30674 3080.46603 4152.8 3080.17402 4152.8 3082.3 4154.91873 3082.3 Z M 4152.8 3088.62598 L 4153.30674 3088.33397 4153.77042 3087.98381 4154.18756 3087.57933 4154.55183 3087.12665 4154.85771 3086.63264 4154.91873 3086.5 4152.8 3086.5 4152.8 3088.62598 Z M 4156.36254 3139.905 L 4156.61141 3139.87696 4156.82646 3139.80171 4157.01938 3139.68049 4157.18049 3139.51938 4157.30171 3139.32646 4157.37696 3139.11141 4157.405 3138.86254 4157.405 3137.9425 4155.4425 3137.9425 4155.4425 3139.905 4156.36254 3139.905 Z M 4157.405 3135.0575 L 4157.405 3134.13746 4157.37696 3133.88859 4157.30171 3133.67354 4157.18049 3133.48062 4157.01938 3133.31951 4156.82646 3133.19829 4156.61141 3133.12304 4156.36254 3133.095 4155.4425 3133.095 4155.4425 3135.0575 4157.405 3135.0575 Z M 4152.5575 3139.905 L 4152.5575 3137.9425 4150.595 3137.9425 4150.595 3138.86254 4150.62304 3139.11141 4150.69829 3139.32646 4150.81951 3139.51938 4150.98062 3139.68049 4151.17354 3139.80171 4151.38859 3139.87696 4151.63746 3139.905 4152.5575 3139.905 Z M 4152.5575 3135.0575 L 4152.5575 3133.095 4151.63746 3133.095 4151.38859 3133.12304 4151.17354 3133.19829 4150.98062 3133.31951 4150.81951 3133.48062 4150.69829 3133.67354 4150.62304 3133.88859 4150.595 3134.13746 4150.595 3135.0575 4152.5575 3135.0575 Z " stroke-width="0" layerid="1" attachedcopperid="gge426" c_shapetype="line" id="gge426_0" class=""></path><polyline points="4065 3175.5 4065 3152.5 4059.5 3147 4059.5 3076.5 4068.5 3067.5 4128.5 3067.5 4136 3075 4136 3113" stroke-width="1.9685"  stroke-linecap="round" fill="none" layerid="1" net="MK1_4" id="gge398" locked="0" /><polyline points="4114 3136.5 4118 3136.5 4136 3118.5 4136 3113" stroke-width="1.9685"  stroke-linecap="round" fill="none" layerid="1" net="MK1_4" id="gge399" locked="0" /><polyline points="4150.7 3066.6 4144 3073.3 4144 3154.5 4119.5 3179 4084.5 3179 4078 3172.5 4078 3164.5 4084.5 3158 4092 3158" stroke-width="1.9685"  stroke-linecap="round" fill="none" layerid="1" net="MK1_6" id="gge387" locked="0" /><polyline points="4150.7 3084.4 4150.5 3084.6 4150.5 3106.5 4159.5 3115.5 4167.5 3115.5" stroke-width="1.9685"  stroke-linecap="round" fill="none" layerid="1" net="GND" id="gge389" locked="0" /><polyline points="4167.5 3115.5 4173 3115.5 4178.5 3121 4178.5 3156 4173 3161.5 4170 3161.5" stroke-width="1.9685"  stroke-linecap="round" fill="none" layerid="1" net="GND" id="gge380" locked="0" /><polyline points="4154.5 3152 4154.5 3165 4161 3171.5 4170 3171.5" stroke-width="1.9685"  stroke-linecap="round" fill="none" layerid="1" net="JP1_2" id="gge378" locked="0" /><polyline points="4154 3136.5 4154 3121 4159.5 3115.5 4167.5 3115.5" stroke-width="1.9685"  stroke-linecap="round" fill="none" layerid="1" net="GND" id="gge379" locked="0" /><polyline points="4065 3135.5 4077.5 3135.5" stroke-width="1.9685"  stroke-linecap="round" fill="none" layerid="1" net="1K_1" id="gge382" locked="0" /><polyline points="4114 3136.5 4118.5 3136.5 4123.5 3141.5 4123.5 3161.5 4117 3168 4102 3168" stroke-width="1.9685"  stroke-linecap="round" fill="none" layerid="1" net="MK1_4" id="gge372" locked="0" /><polyline points="4102 3158 4108 3152 4114.5 3152" stroke-width="1.9685"  stroke-linecap="round" fill="none" layerid="1" net="MK1_3" id="gge371" locked="0" /><g c_partid="part_pad" c_etype="pinpart" c_origin="4170,3161.5" layerid="11" number="1" net="GND" plated ="Y"  id="gge114" locked="0" c_rotation="180" c_width="7.6" c_height="7.6" title="GND" c_shape="RECT" pasteexpansion="0" solderexpansion="0.4"><polygon  c_etype="pad_shell" points="4173.8 3165.3 4166.2 3165.3 4166.2 3157.7 4173.8 3157.7" layerid="11" stroke-width="0" /><circle c_etype="pad_hole" cx="4170" cy="3161.5" r="1.97" layerid="11" stroke-width="0"/></g><g c_partid="part_pad" c_etype="pinpart" c_origin="4170,3171.5" layerid="11" number="2" net="JP1_2" plated ="Y"  id="gge119" locked="0" c_rotation="180" c_width="7.6" c_height="7.6" title="JP1_2" c_shape="RECT" pasteexpansion="0" solderexpansion="0.4"><polygon  c_etype="pad_shell" points="4173.8 3175.3 4166.2 3175.3 4166.2 3167.7 4173.8 3167.7" layerid="11" stroke-width="0" /><circle c_etype="pad_hole" cx="4170" cy="3171.5" r="1.97" layerid="11" stroke-width="0"/></g><g c_partid="part_pad" c_etype="pinpart" c_origin="4092,3138" layerid="11" number="8" net="MK1_8" plated ="Y"  id="gge145" locked="0" c_rotation="270" c_width="7.874" c_height="7.874" title="MK1_8" c_shape="ELLIPSE" pasteexpansion="0" solderexpansion="0.2"><ellipse c_etype="pad_shell" cx="4092" cy="3138" rx="3.937" ry="3.937" layerid="11" stroke-width="0"/><circle c_etype="pad_hole" cx="4092" cy="3138" r="2.362" layerid="11" stroke-width="0"/></g><g c_partid="part_pad" c_etype="pinpart" c_origin="4092,3148" layerid="11" number="7" net="MK1_7" plated ="Y"  id="gge150" locked="0" c_rotation="270" c_width="7.874" c_height="7.874" title="MK1_7" c_shape="ELLIPSE" pasteexpansion="0" solderexpansion="0.2"><ellipse c_etype="pad_shell" cx="4092" cy="3148" rx="3.937" ry="3.937" layerid="11" stroke-width="0"/><circle c_etype="pad_hole" cx="4092" cy="3148" r="2.362" layerid="11" stroke-width="0"/></g><g c_partid="part_pad" c_etype="pinpart" c_origin="4092,3158" layerid="11" number="6" net="MK1_6" plated ="Y"  id="gge155" locked="0" c_rotation="270" c_width="7.874" c_height="7.874" title="MK1_6" c_shape="ELLIPSE" pasteexpansion="0" solderexpansion="0.2"><ellipse c_etype="pad_shell" cx="4092" cy="3158" rx="3.937" ry="3.937" layerid="11" stroke-width="0"/><circle c_etype="pad_hole" cx="4092" cy="3158" r="2.362" layerid="11" stroke-width="0"/></g><g c_partid="part_pad" c_etype="pinpart" c_origin="4092,3168" layerid="11" number="5" net="MK1_5" plated ="Y"  id="gge160" locked="0" c_rotation="270" c_width="7.874" c_height="7.874" title="MK1_5" c_shape="ELLIPSE" pasteexpansion="0" solderexpansion="0.2"><ellipse c_etype="pad_shell" cx="4092" cy="3168" rx="3.937" ry="3.937" layerid="11" stroke-width="0"/><circle c_etype="pad_hole" cx="4092" cy="3168" r="2.362" layerid="11" stroke-width="0"/></g><g c_partid="part_pad" c_etype="pinpart" c_origin="4102,3168" layerid="11" number="4" net="MK1_4" plated ="Y"  id="gge165" locked="0" c_rotation="270" c_width="7.874" c_height="7.874" title="MK1_4" c_shape="ELLIPSE" pasteexpansion="0" solderexpansion="0.2"><ellipse c_etype="pad_shell" cx="4102" cy="3168" rx="3.937" ry="3.937" layerid="11" stroke-width="0"/><circle c_etype="pad_hole" cx="4102" cy="3168" r="2.362" layerid="11" stroke-width="0"/></g><g c_partid="part_pad" c_etype="pinpart" c_origin="4102,3158" layerid="11" number="3" net="MK1_3" plated ="Y"  id="gge170" locked="0" c_rotation="270" c_width="7.874" c_height="7.874" title="MK1_3" c_shape="ELLIPSE" pasteexpansion="0" solderexpansion="0.2"><ellipse c_etype="pad_shell" cx="4102" cy="3158" rx="3.937" ry="3.937" layerid="11" stroke-width="0"/><circle c_etype="pad_hole" cx="4102" cy="3158" r="2.362" layerid="11" stroke-width="0"/></g><g c_partid="part_pad" c_etype="pinpart" c_origin="4102,3148" layerid="11" number="2" net="MK1_2" plated ="Y"  id="gge175" locked="0" c_rotation="270" c_width="7.874" c_height="7.874" title="MK1_2" c_shape="ELLIPSE" pasteexpansion="0" solderexpansion="0.2"><ellipse c_etype="pad_shell" cx="4102" cy="3148" rx="3.937" ry="3.937" layerid="11" stroke-width="0"/><circle c_etype="pad_hole" cx="4102" cy="3148" r="2.362" layerid="11" stroke-width="0"/></g><g c_partid="part_pad" c_etype="pinpart" c_origin="4102,3138" layerid="11" number="1" net="GND" plated ="Y"  id="gge180" locked="0" c_rotation="270" c_width="7.874" c_height="7.874" title="GND" c_shape="ELLIPSE" pasteexpansion="0" solderexpansion="0.2"><ellipse c_etype="pad_shell" cx="4102" cy="3138" rx="3.937" ry="3.937" layerid="11" stroke-width="0"/><circle c_etype="pad_hole" cx="4102" cy="3138" r="2.362" layerid="11" stroke-width="0"/></g><g c_partid="part_pad" c_etype="pinpart" c_origin="4150.7,3066.6" layerid="11" number="1" net="MK1_6" plated ="Y"  id="gge213" locked="0" c_rotation="0" c_width="7.4" c_height="7.4" title="MK1_6" c_shape="ELLIPSE" pasteexpansion="0" solderexpansion="0.4"><ellipse c_etype="pad_shell" cx="4150.7" cy="3066.6" rx="3.7" ry="3.7" layerid="11" stroke-width="0"/><circle c_etype="pad_hole" cx="4150.7" cy="3066.6" r="2" layerid="11" stroke-width="0"/></g><g c_partid="part_pad" c_etype="pinpart" c_origin="4176.3,3066.6" layerid="11" number="2" net="" plated ="Y"  id="gge218" locked="0" c_rotation="0" c_width="7.4" c_height="7.4" title="" c_shape="ELLIPSE" pasteexpansion="0" solderexpansion="0.4"><ellipse c_etype="pad_shell" cx="4176.3" cy="3066.6" rx="3.7" ry="3.7" layerid="11" stroke-width="0"/><circle c_etype="pad_hole" cx="4176.3" cy="3066.6" r="2" layerid="11" stroke-width="0"/></g><g c_partid="part_pad" c_etype="pinpart" c_origin="4150.7,3084.4" layerid="11" number="3" net="GND" plated ="Y"  id="gge223" locked="0" c_rotation="0" c_width="7.4" c_height="7.4" title="GND" c_shape="ELLIPSE" pasteexpansion="0" solderexpansion="0.4"><ellipse c_etype="pad_shell" cx="4150.7" cy="3084.4" rx="3.7" ry="3.7" layerid="11" stroke-width="0"/><circle c_etype="pad_hole" cx="4150.7" cy="3084.4" r="2" layerid="11" stroke-width="0"/></g><g c_partid="part_pad" c_etype="pinpart" c_origin="4176.3,3084.4" layerid="11" number="4" net="" plated ="Y"  id="gge228" locked="0" c_rotation="0" c_width="7.4" c_height="7.4" title="" c_shape="ELLIPSE" pasteexpansion="0" solderexpansion="0.4"><ellipse c_etype="pad_shell" cx="4176.3" cy="3084.4" rx="3.7" ry="3.7" layerid="11" stroke-width="0"/><circle c_etype="pad_hole" cx="4176.3" cy="3084.4" r="2" layerid="11" stroke-width="0"/></g><g c_partid="part_pad" c_etype="pinpart" c_origin="4072.501,3092.5" layerid="11" number="3" net="GND" plated ="Y"  id="gge317" locked="0" c_rotation="270" c_width="21.26" c_height="11.81" title="GND" c_shape="RECT" pasteexpansion="0" solderexpansion="0.4"><polygon  c_etype="pad_shell" points="4078.408 3081.87 4078.408 3103.13 4066.593 3103.13 4066.593 3081.87" layerid="11" stroke-width="0" /><circle c_etype="pad_hole" cx="4072.5" cy="3092.5" r="2.95" layerid="11" stroke-width="0"/></g><g c_partid="part_pad" c_etype="pinpart" c_origin="4097.501,3092.5" layerid="11" number="2" net="MK1_5" plated ="Y"  id="gge322" locked="0" c_rotation="270" c_width="21.26" c_height="11.81" title="MK1_5" c_shape="RECT" pasteexpansion="0" solderexpansion="0.4"><polygon  c_etype="pad_shell" points="4103.408 3081.87 4103.408 3103.13 4091.593 3103.13 4091.593 3081.87" layerid="11" stroke-width="0" /><circle c_etype="pad_hole" cx="4097.5" cy="3092.5" r="2.95" layerid="11" stroke-width="0"/></g><g c_partid="part_pad" c_etype="pinpart" c_origin="4122.501,3092.5" layerid="11" number="1" net="X1_1" plated ="Y"  id="gge327" locked="0" c_rotation="270" c_width="21.26" c_height="11.81" title="X1_1" c_shape="RECT" pasteexpansion="0" solderexpansion="0.4"><polygon  c_etype="pad_shell" points="4128.408 3081.87 4128.408 3103.13 4116.593 3103.13 4116.593 3081.87" layerid="11" stroke-width="0" /><circle c_etype="pad_hole" cx="4122.5" cy="3092.5" r="2.95" layerid="11" stroke-width="0"/></g><g c_partid="part_pad" c_etype="pinpart" c_origin="4154.5,3152" layerid="11" number="1" net="JP1_2" plated ="Y"  id="gge25" locked="0" c_rotation="0" c_width="4.77" c_height="4.77" title="JP1_2" c_shape="RECT" pasteexpansion="0" solderexpansion="0.4"><polygon  c_etype="pad_shell" points="4156.885 3149.615 4152.115 3149.615 4152.115 3154.385 4156.885 3154.385" layerid="11" stroke-width="0" /><circle c_etype="pad_hole" cx="4154.5" cy="3152" r="1.6" layerid="11" stroke-width="0"/></g><g c_partid="part_pad" c_etype="pinpart" c_origin="4114.5,3152" layerid="11" number="2" net="MK1_3" plated ="Y"  id="gge30" locked="0" c_rotation="0" c_width="4.77" c_height="4.77" title="MK1_3" c_shape="RECT" pasteexpansion="0" solderexpansion="0.4"><polygon  c_etype="pad_shell" points="4116.885 3149.615 4112.115 3149.615 4112.115 3154.385 4116.885 3154.385" layerid="11" stroke-width="0" /><circle c_etype="pad_hole" cx="4114.5" cy="3152" r="1.6" layerid="11" stroke-width="0"/></g><g c_partid="part_pad" c_etype="pinpart" c_origin="4065,3135.5" layerid="11" number="1" net="1K_1" plated ="Y"  id="gge59" locked="0" c_rotation="90" c_width="4.77" c_height="4.77" title="1K_1" c_shape="RECT" pasteexpansion="0" solderexpansion="0.4"><polygon  c_etype="pad_shell" points="4062.615 3133.115 4062.615 3137.885 4067.385 3137.885 4067.385 3133.115" layerid="11" stroke-width="0" /><circle c_etype="pad_hole" cx="4065" cy="3135.5" r="1.6" layerid="11" stroke-width="0"/></g><g c_partid="part_pad" c_etype="pinpart" c_origin="4065,3175.5" layerid="11" number="2" net="MK1_4" plated ="Y"  id="gge64" locked="0" c_rotation="90" c_width="4.77" c_height="4.77" title="MK1_4" c_shape="RECT" pasteexpansion="0" solderexpansion="0.4"><polygon  c_etype="pad_shell" points="4062.615 3173.115 4062.615 3177.885 4067.385 3177.885 4067.385 3173.115" layerid="11" stroke-width="0" /><circle c_etype="pad_hole" cx="4065" cy="3175.5" r="1.6" layerid="11" stroke-width="0"/></g><g c_partid="part_pad" c_etype="pinpart" c_origin="4154,3136.5" layerid="11" number="1" net="GND" plated ="Y"  id="gge93" locked="0" c_rotation="0" c_width="4.77" c_height="4.77" title="GND" c_shape="RECT" pasteexpansion="0" solderexpansion="0.4"><polygon  c_etype="pad_shell" points="4156.385 3134.115 4151.615 3134.115 4151.615 3138.885 4156.385 3138.885" layerid="11" stroke-width="0" /><circle c_etype="pad_hole" cx="4154" cy="3136.5" r="1.6" layerid="11" stroke-width="0"/></g><g c_partid="part_pad" c_etype="pinpart" c_origin="4114,3136.5" layerid="11" number="2" net="MK1_4" plated ="Y"  id="gge98" locked="0" c_rotation="0" c_width="4.77" c_height="4.77" title="MK1_4" c_shape="RECT" pasteexpansion="0" solderexpansion="0.4"><polygon  c_etype="pad_shell" points="4116.385 3134.115 4111.615 3134.115 4111.615 3138.885 4116.385 3138.885" layerid="11" stroke-width="0" /><circle c_etype="pad_hole" cx="4114" cy="3136.5" r="1.6" layerid="11" stroke-width="0"/></g><g c_partid="part_pad" c_etype="pinpart" c_origin="4167.5,3135.5" layerid="11" number="4" net="U1_4" plated ="Y"  id="gge243" locked="1" c_rotation="180" c_width="8" c_height="8" title="U1_4" c_shape="ELLIPSE" pasteexpansion="0" solderexpansion="0.4"><ellipse c_etype="pad_shell" cx="4167.5" cy="3135.5" rx="4" ry="4" layerid="11" stroke-width="0"/><circle c_etype="pad_hole" cx="4167.5" cy="3135.5" r="2" layerid="11" stroke-width="0"/></g><g c_partid="part_pad" c_etype="pinpart" c_origin="4077.5,3115.5" layerid="11" number="9" net="U1_9" plated ="Y"  id="gge248" locked="1" c_rotation="180" c_width="8" c_height="8" title="U1_9" c_shape="ELLIPSE" pasteexpansion="0" solderexpansion="0.4"><ellipse c_etype="pad_shell" cx="4077.5" cy="3115.5" rx="4" ry="4" layerid="11" stroke-width="0"/><circle c_etype="pad_hole" cx="4077.5" cy="3115.5" r="2" layerid="11" stroke-width="0"/></g><g c_partid="part_pad" c_etype="pinpart" c_origin="4077.5,3125.5" layerid="11" number="8" net="U1_8" plated ="Y"  id="gge253" locked="1" c_rotation="180" c_width="8" c_height="8" title="U1_8" c_shape="ELLIPSE" pasteexpansion="0" solderexpansion="0.4"><ellipse c_etype="pad_shell" cx="4077.5" cy="3125.5" rx="4" ry="4" layerid="11" stroke-width="0"/><circle c_etype="pad_hole" cx="4077.5" cy="3125.5" r="2" layerid="11" stroke-width="0"/></g><g c_partid="part_pad" c_etype="pinpart" c_origin="4077.5,3135.5" layerid="11" number="7" net="1K_1" plated ="Y"  id="gge258" locked="1" c_rotation="180" c_width="8" c_height="8" title="1K_1" c_shape="ELLIPSE" pasteexpansion="0" solderexpansion="0.4"><ellipse c_etype="pad_shell" cx="4077.5" cy="3135.5" rx="4" ry="4" layerid="11" stroke-width="0"/><circle c_etype="pad_hole" cx="4077.5" cy="3135.5" r="2" layerid="11" stroke-width="0"/></g><g c_partid="part_pad" c_etype="pinpart" c_origin="4167.5,3145.5" layerid="11" number="5" net="U1_5" plated ="Y"  id="gge263" locked="1" c_rotation="180" c_width="8" c_height="8" title="U1_5" c_shape="ELLIPSE" pasteexpansion="0" solderexpansion="0.4"><ellipse c_etype="pad_shell" cx="4167.5" cy="3145.5" rx="4" ry="4" layerid="11" stroke-width="0"/><circle c_etype="pad_hole" cx="4167.5" cy="3145.5" r="2" layerid="11" stroke-width="0"/></g><g c_partid="part_pad" c_etype="pinpart" c_origin="4077.5,3145.5" layerid="11" number="6" net="X1_1" plated ="Y"  id="gge268" locked="1" c_rotation="180" c_width="8" c_height="8" title="X1_1" c_shape="ELLIPSE" pasteexpansion="0" solderexpansion="0.4"><ellipse c_etype="pad_shell" cx="4077.5" cy="3145.5" rx="4" ry="4" layerid="11" stroke-width="0"/><circle c_etype="pad_hole" cx="4077.5" cy="3145.5" r="2" layerid="11" stroke-width="0"/></g><g c_partid="part_pad" c_etype="pinpart" c_origin="4167.5,3125.5" layerid="11" number="3" net="U1_3" plated ="Y"  id="gge273" locked="1" c_rotation="180" c_width="8" c_height="8" title="U1_3" c_shape="ELLIPSE" pasteexpansion="0" solderexpansion="0.4"><ellipse c_etype="pad_shell" cx="4167.5" cy="3125.5" rx="4" ry="4" layerid="11" stroke-width="0"/><circle c_etype="pad_hole" cx="4167.5" cy="3125.5" r="2" layerid="11" stroke-width="0"/></g><g c_partid="part_pad" c_etype="pinpart" c_origin="4167.5,3115.5" layerid="11" number="2" net="GND" plated ="Y"  id="gge278" locked="1" c_rotation="180" c_width="8" c_height="8" title="GND" c_shape="ELLIPSE" pasteexpansion="0" solderexpansion="0.4"><ellipse c_etype="pad_shell" cx="4167.5" cy="3115.5" rx="4" ry="4" layerid="11" stroke-width="0"/><circle c_etype="pad_hole" cx="4167.5" cy="3115.5" r="2" layerid="11" stroke-width="0"/></g><g c_partid="part_pad" c_etype="pinpart" c_origin="4167.5,3095.5" layerid="11" number="1" net="X1_1" plated ="Y"  id="gge283" locked="1" c_rotation="180" c_width="8" c_height="8" title="X1_1" c_shape="RECT" pasteexpansion="0" solderexpansion="0.4"><polygon  c_etype="pad_shell" points="4163.5 3099.5 4171.5 3099.5 4171.5 3091.5 4163.5 3091.5" layerid="11" stroke-width="0" /><circle c_etype="pad_hole" cx="4167.5" cy="3095.5" r="2" layerid="11" stroke-width="0"/></g><g c_partid="part_hole" c_etype="pinpart" c_shapetype="group" c_origin="4055.433,3056.343" layerid="11" id="gge406" locked="0" ><circle cx="4055.433" cy="3056.343" r="4"  stroke-width="1" fill-opacity="0" /></g><g c_partid="part_hole" c_etype="pinpart" c_shapetype="group" c_origin="4185.354,3186.264" layerid="11" id="gge411" locked="0" ><circle cx="4185.354" cy="3186.264" r="4"  stroke-width="1" fill-opacity="0" /></g><polyline points="4175 3176.5 4165 3176.5 4165 3156.5 4175 3156.5 4175 3176.5" stroke-width="1"  stroke-linecap="round" fill="none" layerid="3" net="" id="gge109" locked="0" /><polyline points="4147 3128 4147 3178 4112 3178 4112 3128 4147 3128" stroke-width="1"  stroke-linecap="round" fill="none" layerid="3" net="" id="gge130" locked="0" /><polyline points="4152 3133 4177 3133 4177 3138 4167 3138 4167 3143 4177 3143 4177 3148 4167 3148 4167 3153 4177 3153 4177 3168" stroke-width="1"  stroke-linecap="round" fill="none" layerid="3" net="" id="gge131" locked="0" /><polyline points="4182 3183 4182 3123 4087 3123" stroke-width="1"  stroke-linecap="round" fill="none" layerid="3" net="" id="gge132" locked="0" /><polyline points="4087 3183 4182 3183" stroke-width="1"  stroke-linecap="round" fill="none" layerid="3" net="" id="gge133" locked="0" /><polyline points="4087 3123 4087 3182" stroke-width="1"  stroke-linecap="round" fill="none" layerid="3" net="" id="gge134" locked="0" /><polyline points="4172 3063.5 4155 3063.5" stroke-width="1"  stroke-linecap="round" fill="none" layerid="3" net="" id="gge193" locked="0" /><polyline points="4155 3087.5 4172 3087.5" stroke-width="1"  stroke-linecap="round" fill="none" layerid="3" net="" id="gge194" locked="0" /><polyline points="4175.5 3071.6 4175.5 3079.5" stroke-width="1"  stroke-linecap="round" fill="none" layerid="3" net="" id="gge195" locked="0" /><polyline points="4151.5 3071.5 4151.5 3079.5" stroke-width="1"  stroke-linecap="round" fill="none" layerid="3" net="" id="gge196" locked="0" /><polyline points="4129.303 3065.4 4126.703 3071.2" stroke-width="1"  stroke-linecap="round" fill="none" layerid="3" net="" id="gge296" locked="0" /><polyline points="4126.703 3071.2 4131.903 3071.2" stroke-width="1"  stroke-linecap="round" fill="none" layerid="3" net="" id="gge297" locked="0" /><polyline points="4131.903 3071.2 4129.303 3065.4" stroke-width="1"  stroke-linecap="round" fill="none" layerid="3" net="" id="gge298" locked="0" /><polyline points="4135.003 3102.3 4060.003 3102.3" stroke-width="1"  stroke-linecap="round" fill="none" layerid="3" net="" id="gge299" locked="0" /><polyline points="4135.003 3076.8 4060.003 3076.8" stroke-width="1"  stroke-linecap="round" fill="none" layerid="3" net="" id="gge300" locked="0" /><polyline points="4135.003 3110.2 4060.003 3110.2" stroke-width="1"  stroke-linecap="round" fill="none" layerid="3" net="" id="gge301" locked="0" /><polyline points="4060.003 3110.2 4060.003 3061" stroke-width="1"  stroke-linecap="round" fill="none" layerid="3" net="" id="gge302" locked="0" /><polyline points="4060.003 3061 4135.003 3061" stroke-width="1"  stroke-linecap="round" fill="none" layerid="3" net="" id="gge303" locked="0" /><polyline points="4135.003 3061 4135.003 3110.2" stroke-width="1"  stroke-linecap="round" fill="none" layerid="3" net="" id="gge304" locked="0" /><polyline points="4076.103 3085.4 4068.303 3093.3" stroke-width="1"  stroke-linecap="round" fill="none" layerid="3" net="" id="gge305" locked="0" /><polyline points="4101.703 3085.4 4093.803 3093.3" stroke-width="1"  stroke-linecap="round" fill="none" layerid="3" net="" id="gge306" locked="0" /><polyline points="4126.303 3085.4 4118.403 3093.3" stroke-width="1"  stroke-linecap="round" fill="none" layerid="3" net="" id="gge307" locked="0" /><g c_partid="part_pcbtext" c_etype="" c_origin="4157,3166.5" c_rotation="90" c_mirror="0" id="gge105" locked="0" layerid="3" c_shapetype="group" display="none"><path c_fontsize="4.5" c_fontfamily="" c_text="JUMPER2" d="M 4152.46 3164.45 L 4155.73 3164.45 L 4156.35 3164.66 L 4156.55 3164.86 L 4156.75 3165.27 L 4156.75 3165.68 L 4156.55 3166.09 L 4156.35 3166.3 L 4155.73 3166.5 L 4155.32 3166.5 M 4152.46 3163.1 L 4155.53 3163.1 L 4156.14 3162.9 L 4156.55 3162.49 L 4156.75 3161.88 L 4156.75 3161.47 L 4156.55 3160.85 L 4156.14 3160.45 L 4155.53 3160.24 L 4152.46 3160.24 M 4152.46 3158.89 L 4156.75 3158.89 M 4152.46 3158.89 L 4156.75 3157.25 M 4152.46 3155.62 L 4156.75 3157.25 M 4152.46 3155.62 L 4156.75 3155.62 M 4152.46 3154.27 L 4156.75 3154.27 M 4152.46 3154.27 L 4152.46 3152.43 L 4152.66 3151.81 L 4152.87 3151.61 L 4153.28 3151.4 L 4153.89 3151.4 L 4154.3 3151.61 L 4154.5 3151.81 L 4154.71 3152.43 L 4154.71 3154.27 M 4152.46 3150.05 L 4156.75 3150.05 M 4152.46 3150.05 L 4152.46 3147.4 M 4154.5 3150.05 L 4154.5 3148.42 M 4156.75 3150.05 L 4156.75 3147.4 M 4152.46 3146.05 L 4156.75 3146.05 M 4152.46 3146.05 L 4152.46 3144.2 L 4152.66 3143.59 L 4152.87 3143.39 L 4153.28 3143.18 L 4153.69 3143.18 L 4154.1 3143.39 L 4154.3 3143.59 L 4154.5 3144.2 L 4154.5 3146.05 M 4154.5 3144.61 L 4156.75 3143.18 M 4153.48 3141.63 L 4153.28 3141.63 L 4152.87 3141.42 L 4152.66 3141.22 L 4152.46 3140.81 L 4152.46 3139.99 L 4152.66 3139.58 L 4152.87 3139.38 L 4153.28 3139.17 L 4153.69 3139.17 L 4154.1 3139.38 L 4154.71 3139.79 L 4156.75 3141.83 L 4156.75 3138.97" fill="none"  stroke-width="0.6" c_note="note_name" /></g><g c_partid="part_pcbtext" c_etype="" c_origin="4164,3166.5" c_rotation="90" c_mirror="0" id="gge107" locked="0" layerid="3" c_shapetype="group" ><path c_fontsize="4.5" c_fontfamily="" c_text="JP1" d="M 4159.46 3164.45 L 4162.73 3164.45 L 4163.35 3164.66 L 4163.55 3164.86 L 4163.75 3165.27 L 4163.75 3165.68 L 4163.55 3166.09 L 4163.35 3166.3 L 4162.73 3166.5 L 4162.32 3166.5 M 4159.46 3163.1 L 4163.75 3163.1 M 4159.46 3163.1 L 4159.46 3161.26 L 4159.66 3160.65 L 4159.87 3160.45 L 4160.28 3160.24 L 4160.89 3160.24 L 4161.3 3160.45 L 4161.5 3160.65 L 4161.71 3161.26 L 4161.71 3163.1 M 4160.28 3158.89 L 4160.07 3158.48 L 4159.46 3157.87 L 4163.75 3157.87" fill="none"  stroke-width="0.6" c_note="note_pre" /></g><g c_partid="part_pcbtext" c_etype="" c_origin="4179,3172.5" c_rotation="90" c_mirror="0" id="gge110" locked="0" layerid="3" c_shapetype="group" ><path c_fontsize="2" c_fontfamily="" c_text="2" d="M 4178.36 3172.41 L 4178.27 3172.41 L 4178.09 3172.32 L 4178 3172.23 L 4177.91 3172.05 L 4177.91 3171.68 L 4178 3171.5 L 4178.09 3171.41 L 4178.27 3171.32 L 4178.45 3171.32 L 4178.64 3171.41 L 4178.91 3171.59 L 4179.82 3172.5 L 4179.82 3171.23" fill="none"  stroke-width="0.6"  /></g><g c_partid="part_pcbtext" c_etype="" c_origin="4179,3162.5" c_rotation="90" c_mirror="0" id="gge112" locked="0" layerid="3" c_shapetype="group" ><path c_fontsize="2" c_fontfamily="" c_text="1" d="M 4178.27 3162.5 L 4178.18 3162.32 L 4177.91 3162.05 L 4179.82 3162.05" fill="none"  stroke-width="0.6"  /></g><g c_partid="part_pcbtext" c_etype="" c_origin="4194.35,3209.23" c_rotation="90" c_mirror="0" id="gge126" locked="0" layerid="3" c_shapetype="group" display="none"><path c_fontsize="4.5" c_fontfamily="" c_text="ESP-01S_C82893" d="M 4189.8101 3209.23 L 4194.1001 3209.23 M 4189.8101 3209.23 L 4189.8101 3206.57 M 4191.8501 3209.23 L 4191.8501 3207.59 M 4194.1001 3209.23 L 4194.1001 3206.57 M 4190.4201 3202.36 L 4190.0101 3202.77 L 4189.8101 3203.38 L 4189.8101 3204.2 L 4190.0101 3204.81 L 4190.4201 3205.22 L 4190.8301 3205.22 L 4191.2401 3205.02 L 4191.4501 3204.81 L 4191.6501 3204.4 L 4192.0601 3203.18 L 4192.2601 3202.77 L 4192.4701 3202.56 L 4192.8801 3202.36 L 4193.4901 3202.36 L 4193.9001 3202.77 L 4194.1001 3203.38 L 4194.1001 3204.2 L 4193.9001 3204.81 L 4193.4901 3205.22 M 4189.8101 3201.01 L 4194.1001 3201.01 M 4189.8101 3201.01 L 4189.8101 3199.17 L 4190.0101 3198.55 L 4190.2201 3198.35 L 4190.6301 3198.14 L 4191.2401 3198.14 L 4191.6501 3198.35 L 4191.8501 3198.55 L 4192.0601 3199.17 L 4192.0601 3201.01 M 4192.2601 3196.79 L 4192.2601 3193.11 M 4189.8101 3190.53 L 4190.0101 3191.15 L 4190.6301 3191.56 L 4191.6501 3191.76 L 4192.2601 3191.76 L 4193.2901 3191.56 L 4193.9001 3191.15 L 4194.1001 3190.53 L 4194.1001 3190.13 L 4193.9001 3189.51 L 4193.2901 3189.1 L 4192.2601 3188.9 L 4191.6501 3188.9 L 4190.6301 3189.1 L 4190.0101 3189.51 L 4189.8101 3190.13 L 4189.8101 3190.53 M 4190.6301 3187.55 L 4190.4201 3187.14 L 4189.8101 3186.53 L 4194.1001 3186.53 M 4190.4201 3182.31 L 4190.0101 3182.72 L 4189.8101 3183.33 L 4189.8101 3184.15 L 4190.0101 3184.77 L 4190.4201 3185.18 L 4190.8301 3185.18 L 4191.2401 3184.97 L 4191.4501 3184.77 L 4191.6501 3184.36 L 4192.0601 3183.13 L 4192.2601 3182.72 L 4192.4701 3182.52 L 4192.8801 3182.31 L 4193.4901 3182.31 L 4193.9001 3182.72 L 4194.1001 3183.33 L 4194.1001 3184.15 L 4193.9001 3184.77 L 4193.4901 3185.18 M 4195.5401 3180.96 L 4195.5401 3177.28 M 4190.8301 3172.86 L 4190.4201 3173.07 L 4190.0101 3173.48 L 4189.8101 3173.88 L 4189.8101 3174.7 L 4190.0101 3175.11 L 4190.4201 3175.52 L 4190.8301 3175.73 L 4191.4501 3175.93 L 4192.4701 3175.93 L 4193.0801 3175.73 L 4193.4901 3175.52 L 4193.9001 3175.11 L 4194.1001 3174.7 L 4194.1001 3173.88 L 4193.9001 3173.48 L 4193.4901 3173.07 L 4193.0801 3172.86 M 4189.8101 3170.49 L 4190.0101 3171.1 L 4190.4201 3171.31 L 4190.8301 3171.31 L 4191.2401 3171.1 L 4191.4501 3170.69 L 4191.6501 3169.88 L 4191.8501 3169.26 L 4192.2601 3168.85 L 4192.6701 3168.65 L 4193.2901 3168.65 L 4193.7001 3168.85 L 4193.9001 3169.06 L 4194.1001 3169.67 L 4194.1001 3170.49 L 4193.9001 3171.1 L 4193.7001 3171.31 L 4193.2901 3171.51 L 4192.6701 3171.51 L 4192.2601 3171.31 L 4191.8501 3170.9 L 4191.6501 3170.28 L 4191.4501 3169.47 L 4191.2401 3169.06 L 4190.8301 3168.85 L 4190.4201 3168.85 L 4190.0101 3169.06 L 4189.8101 3169.67 L 4189.8101 3170.49 M 4190.8301 3167.09 L 4190.6301 3167.09 L 4190.2201 3166.89 L 4190.0101 3166.68 L 4189.8101 3166.28 L 4189.8101 3165.46 L 4190.0101 3165.05 L 4190.2201 3164.84 L 4190.6301 3164.64 L 4191.0401 3164.64 L 4191.4501 3164.84 L 4192.0601 3165.25 L 4194.1001 3167.3 L 4194.1001 3164.43 M 4189.8101 3162.06 L 4190.0101 3162.68 L 4190.4201 3162.88 L 4190.8301 3162.88 L 4191.2401 3162.68 L 4191.4501 3162.27 L 4191.6501 3161.45 L 4191.8501 3160.83 L 4192.2601 3160.43 L 4192.6701 3160.22 L 4193.2901 3160.22 L 4193.7001 3160.43 L 4193.9001 3160.63 L 4194.1001 3161.24 L 4194.1001 3162.06 L 4193.9001 3162.68 L 4193.7001 3162.88 L 4193.2901 3163.08 L 4192.6701 3163.08 L 4192.2601 3162.88 L 4191.8501 3162.47 L 4191.6501 3161.86 L 4191.4501 3161.04 L 4191.2401 3160.63 L 4190.8301 3160.43 L 4190.4201 3160.43 L 4190.0101 3160.63 L 4189.8101 3161.24 L 4189.8101 3162.06 M 4191.2401 3156.21 L 4191.8501 3156.42 L 4192.2601 3156.83 L 4192.4701 3157.44 L 4192.4701 3157.64 L 4192.2601 3158.26 L 4191.8501 3158.67 L 4191.2401 3158.87 L 4191.0401 3158.87 L 4190.4201 3158.67 L 4190.0101 3158.26 L 4189.8101 3157.64 L 4189.8101 3157.44 L 4190.0101 3156.83 L 4190.4201 3156.42 L 4191.2401 3156.21 L 4192.2601 3156.21 L 4193.2901 3156.42 L 4193.9001 3156.83 L 4194.1001 3157.44 L 4194.1001 3157.85 L 4193.9001 3158.46 L 4193.4901 3158.67 M 4189.8101 3154.45 L 4189.8101 3152.2 L 4191.4501 3153.43 L 4191.4501 3152.82 L 4191.6501 3152.41 L 4191.8501 3152.2 L 4192.4701 3152 L 4192.8801 3152 L 4193.4901 3152.2 L 4193.9001 3152.61 L 4194.1001 3153.23 L 4194.1001 3153.84 L 4193.9001 3154.45 L 4193.7001 3154.66 L 4193.2901 3154.86" fill="none"  stroke-width="0.6" c_note="note_name" /></g><g c_partid="part_pcbtext" c_etype="" c_origin="4184,3152" c_rotation="270" c_mirror="0" id="gge128" locked="0" layerid="3" c_shapetype="group" ><path c_fontsize="4.5" c_fontfamily="" c_text="MK1" d="M 4188.54 3152 L 4184.25 3152 M 4188.54 3152 L 4184.25 3153.64 M 4188.54 3155.27 L 4184.25 3153.64 M 4188.54 3155.27 L 4184.25 3155.27 M 4188.54 3156.62 L 4184.25 3156.62 M 4188.54 3159.49 L 4185.68 3156.62 M 4186.7 3157.65 L 4184.25 3159.49 M 4187.72 3160.84 L 4187.93 3161.25 L 4188.54 3161.86 L 4184.25 3161.86" fill="none"  stroke-width="0.6" c_note="note_pre" /></g><g c_partid="part_pcbtext" c_etype="" c_origin="4127,3138" c_rotation="270" c_mirror="0" id="gge185" locked="0" layerid="3" c_shapetype="group" ><path c_fontsize="5" c_fontfamily="" c_text="ESP-01S" d="M 4129.73 3138 L 4124.95 3138 M 4129.73 3138 L 4129.73 3140.95 M 4127.45 3138 L 4127.45 3139.82 M 4124.95 3138 L 4124.95 3140.95 M 4129.05 3145.64 L 4129.5 3145.18 L 4129.73 3144.5 L 4129.73 3143.59 L 4129.5 3142.91 L 4129.05 3142.45 L 4128.59 3142.45 L 4128.14 3142.68 L 4127.91 3142.91 L 4127.68 3143.36 L 4127.23 3144.73 L 4127 3145.18 L 4126.77 3145.41 L 4126.32 3145.64 L 4125.64 3145.64 L 4125.18 3145.18 L 4124.95 3144.5 L 4124.95 3143.59 L 4125.18 3142.91 L 4125.64 3142.45 M 4129.73 3147.14 L 4124.95 3147.14 M 4129.73 3147.14 L 4129.73 3149.18 L 4129.5 3149.86 L 4129.27 3150.09 L 4128.82 3150.32 L 4128.14 3150.32 L 4127.68 3150.09 L 4127.45 3149.86 L 4127.23 3149.18 L 4127.23 3147.14 M 4127 3151.82 L 4127 3155.91 M 4129.73 3158.77 L 4129.5 3158.09 L 4128.82 3157.64 L 4127.68 3157.41 L 4127 3157.41 L 4125.86 3157.64 L 4125.18 3158.09 L 4124.95 3158.77 L 4124.95 3159.23 L 4125.18 3159.91 L 4125.86 3160.36 L 4127 3160.59 L 4127.68 3160.59 L 4128.82 3160.36 L 4129.5 3159.91 L 4129.73 3159.23 L 4129.73 3158.77 M 4128.82 3162.09 L 4129.05 3162.55 L 4129.73 3163.23 L 4124.95 3163.23 M 4129.05 3167.91 L 4129.5 3167.45 L 4129.73 3166.77 L 4129.73 3165.86 L 4129.5 3165.18 L 4129.05 3164.73 L 4128.59 3164.73 L 4128.14 3164.95 L 4127.91 3165.18 L 4127.68 3165.64 L 4127.23 3167 L 4127 3167.45 L 4126.77 3167.68 L 4126.32 3167.91 L 4125.64 3167.91 L 4125.18 3167.45 L 4124.95 3166.77 L 4124.95 3165.86 L 4125.18 3165.18 L 4125.64 3164.73" fill="none"  stroke-width="0.8"  /></g><g c_partid="part_pcbtext" c_etype="" c_origin="4163.5,3054.5" c_rotation="0" c_mirror="0" id="gge189" locked="0" layerid="3" c_shapetype="group" display="none"><path c_fontsize="4.5" c_fontfamily="" c_text="SWITCH-MOMENTARY-2" d="M 4166.36 3050.57 L 4165.95 3050.16 L 4165.34 3049.96 L 4164.52 3049.96 L 4163.91 3050.16 L 4163.5 3050.57 L 4163.5 3050.98 L 4163.7 3051.39 L 4163.91 3051.6 L 4164.32 3051.8 L 4165.55 3052.21 L 4165.95 3052.41 L 4166.16 3052.62 L 4166.36 3053.03 L 4166.36 3053.64 L 4165.95 3054.05 L 4165.34 3054.25 L 4164.52 3054.25 L 4163.91 3054.05 L 4163.5 3053.64 M 4167.71 3049.96 L 4168.74 3054.25 M 4169.76 3049.96 L 4168.74 3054.25 M 4169.76 3049.96 L 4170.78 3054.25 M 4171.8 3049.96 L 4170.78 3054.25 M 4173.15 3049.96 L 4173.15 3054.25 M 4175.94 3049.96 L 4175.94 3054.25 M 4174.5 3049.96 L 4177.37 3049.96 M 4181.79 3050.98 L 4181.58 3050.57 L 4181.17 3050.16 L 4180.76 3049.96 L 4179.95 3049.96 L 4179.54 3050.16 L 4179.13 3050.57 L 4178.92 3050.98 L 4178.72 3051.6 L 4178.72 3052.62 L 4178.92 3053.23 L 4179.13 3053.64 L 4179.54 3054.05 L 4179.95 3054.25 L 4180.76 3054.25 L 4181.17 3054.05 L 4181.58 3053.64 L 4181.79 3053.23 M 4183.14 3049.96 L 4183.14 3054.25 M 4186 3049.96 L 4186 3054.25 M 4183.14 3052 L 4186 3052 M 4187.35 3052.41 L 4191.03 3052.41 M 4192.38 3049.96 L 4192.38 3054.25 M 4192.38 3049.96 L 4194.02 3054.25 M 4195.65 3049.96 L 4194.02 3054.25 M 4195.65 3049.96 L 4195.65 3054.25 M 4198.23 3049.96 L 4197.82 3050.16 L 4197.41 3050.57 L 4197.21 3050.98 L 4197 3051.6 L 4197 3052.62 L 4197.21 3053.23 L 4197.41 3053.64 L 4197.82 3054.05 L 4198.23 3054.25 L 4199.05 3054.25 L 4199.46 3054.05 L 4199.87 3053.64 L 4200.07 3053.23 L 4200.28 3052.62 L 4200.28 3051.6 L 4200.07 3050.98 L 4199.87 3050.57 L 4199.46 3050.16 L 4199.05 3049.96 L 4198.23 3049.96 M 4201.63 3049.96 L 4201.63 3054.25 M 4201.63 3049.96 L 4203.26 3054.25 M 4204.9 3049.96 L 4203.26 3054.25 M 4204.9 3049.96 L 4204.9 3054.25 M 4206.25 3049.96 L 4206.25 3054.25 M 4206.25 3049.96 L 4208.91 3049.96 M 4206.25 3052 L 4207.89 3052 M 4206.25 3054.25 L 4208.91 3054.25 M 4210.26 3049.96 L 4210.26 3054.25 M 4210.26 3049.96 L 4213.12 3054.25 M 4213.12 3049.96 L 4213.12 3054.25 M 4215.9 3049.96 L 4215.9 3054.25 M 4214.47 3049.96 L 4217.34 3049.96 M 4220.32 3049.96 L 4218.69 3054.25 M 4220.32 3049.96 L 4221.96 3054.25 M 4219.3 3052.82 L 4221.35 3052.82 M 4223.31 3049.96 L 4223.31 3054.25 M 4223.31 3049.96 L 4225.15 3049.96 L 4225.76 3050.16 L 4225.97 3050.37 L 4226.17 3050.78 L 4226.17 3051.19 L 4225.97 3051.6 L 4225.76 3051.8 L 4225.15 3052 L 4223.31 3052 M 4224.74 3052 L 4226.17 3054.25 M 4227.52 3049.96 L 4229.16 3052 L 4229.16 3054.25 M 4230.8 3049.96 L 4229.16 3052 M 4232.15 3052.41 L 4235.83 3052.41 M 4237.38 3050.98 L 4237.38 3050.78 L 4237.59 3050.37 L 4237.79 3050.16 L 4238.2 3049.96 L 4239.02 3049.96 L 4239.43 3050.16 L 4239.63 3050.37 L 4239.84 3050.78 L 4239.84 3051.19 L 4239.63 3051.6 L 4239.22 3052.21 L 4237.18 3054.25 L 4240.04 3054.25" fill="none"  stroke-width="0.6" c_note="note_name" /></g><g c_partid="part_pcbtext" c_etype="" c_origin="4163.5,3061.5" c_rotation="0" c_mirror="0" id="gge191" locked="0" layerid="3" c_shapetype="group" ><path c_fontsize="4.5" c_fontfamily="" c_text="S1" d="M 4166.36 3057.57 L 4165.95 3057.16 L 4165.34 3056.96 L 4164.52 3056.96 L 4163.91 3057.16 L 4163.5 3057.57 L 4163.5 3057.98 L 4163.7 3058.39 L 4163.91 3058.6 L 4164.32 3058.8 L 4165.55 3059.21 L 4165.95 3059.41 L 4166.16 3059.62 L 4166.36 3060.03 L 4166.36 3060.64 L 4165.95 3061.05 L 4165.34 3061.25 L 4164.52 3061.25 L 4163.91 3061.05 L 4163.5 3060.64 M 4167.71 3057.78 L 4168.12 3057.57 L 4168.74 3056.96 L 4168.74 3061.25" fill="none"  stroke-width="0.6" c_note="note_pre" /></g><g c_partid="part_pcbtext" c_etype="" c_origin="4054.553,3121.85" c_rotation="0" c_mirror="0" id="gge292" locked="0" layerid="3" c_shapetype="group" display="none"><path c_fontsize="4.5" c_fontfamily="" c_text="AKL701_3_15" d="M 4056.1929 3117.3101 L 4054.5529 3121.6001 M 4056.1929 3117.3101 L 4057.8229 3121.6001 M 4055.1629 3120.1701 L 4057.2129 3120.1701 M 4059.1729 3117.3101 L 4059.1729 3121.6001 M 4062.0429 3117.3101 L 4059.1729 3120.1701 M 4060.2029 3119.1501 L 4062.0429 3121.6001 M 4063.3929 3117.3101 L 4063.3929 3121.6001 M 4063.3929 3121.6001 L 4065.8429 3121.6001 M 4070.0529 3117.3101 L 4068.0129 3121.6001 M 4067.1929 3117.3101 L 4070.0529 3117.3101 M 4072.6329 3117.3101 L 4072.0229 3117.5101 L 4071.6129 3118.1301 L 4071.4029 3119.1501 L 4071.4029 3119.7601 L 4071.6129 3120.7901 L 4072.0229 3121.4001 L 4072.6329 3121.6001 L 4073.0429 3121.6001 L 4073.6529 3121.4001 L 4074.0629 3120.7901 L 4074.2729 3119.7601 L 4074.2729 3119.1501 L 4074.0629 3118.1301 L 4073.6529 3117.5101 L 4073.0429 3117.3101 L 4072.6329 3117.3101 M 4075.6229 3118.1301 L 4076.0329 3117.9201 L 4076.6429 3117.3101 L 4076.6429 3121.6001 M 4077.9929 3123.0401 L 4081.6729 3123.0401 M 4083.4329 3117.3101 L 4085.6829 3117.3101 L 4084.4529 3118.9501 L 4085.0729 3118.9501 L 4085.4829 3119.1501 L 4085.6829 3119.3501 L 4085.8929 3119.9701 L 4085.8929 3120.3801 L 4085.6829 3120.9901 L 4085.2729 3121.4001 L 4084.6629 3121.6001 L 4084.0529 3121.6001 L 4083.4329 3121.4001 L 4083.2329 3121.2001 L 4083.0229 3120.7901 M 4087.2429 3123.0401 L 4090.9229 3123.0401 M 4092.2729 3118.1301 L 4092.6829 3117.9201 L 4093.2929 3117.3101 L 4093.2929 3121.6001 M 4097.1029 3117.3101 L 4095.0529 3117.3101 L 4094.8529 3119.1501 L 4095.0529 3118.9501 L 4095.6629 3118.7401 L 4096.2829 3118.7401 L 4096.8929 3118.9501 L 4097.3029 3119.3501 L 4097.5029 3119.9701 L 4097.5029 3120.3801 L 4097.3029 3120.9901 L 4096.8929 3121.4001 L 4096.2829 3121.6001 L 4095.6629 3121.6001 L 4095.0529 3121.4001 L 4094.8529 3121.2001 L 4094.6429 3120.7901" fill="none"  stroke-width="0.6" c_note="note_name" /></g><g c_partid="part_pcbtext" c_etype="" c_origin="4097.503,3111.5" c_rotation="180" c_mirror="0" id="gge294" locked="0" layerid="3" c_shapetype="group" ><path c_fontsize="4.5" c_fontfamily="" c_text="X1" d="M 4097.503 3116.04 L 4094.643 3111.75 M 4094.643 3116.04 L 4097.503 3111.75 M 4093.293 3115.22 L 4092.883 3115.43 L 4092.263 3116.04 L 4092.263 3111.75" fill="none"  stroke-width="0.6" c_note="note_pre" /></g><g c_partid="part_pcbtext" c_etype="" c_origin="4124.403,3065" c_rotation="180" c_mirror="0" id="gge311" locked="0" layerid="3" c_shapetype="group" ><path c_fontsize="5" c_fontfamily="" c_text="1" d="M 4124.403 3066.82 L 4123.953 3067.05 L 4123.263 3067.73 L 4123.263 3062.95" fill="none"  stroke-width="0.6"  /></g><g c_partid="part_pcbtext" c_etype="" c_origin="4100.003,3065" c_rotation="180" c_mirror="0" id="gge313" locked="0" layerid="3" c_shapetype="group" ><path c_fontsize="5" c_fontfamily="" c_text="2" d="M 4099.773 3066.59 L 4099.773 3066.82 L 4099.553 3067.27 L 4099.323 3067.5 L 4098.863 3067.73 L 4097.953 3067.73 L 4097.503 3067.5 L 4097.273 3067.27 L 4097.053 3066.82 L 4097.053 3066.36 L 4097.273 3065.91 L 4097.733 3065.23 L 4100.003 3062.95 L 4096.823 3062.95" fill="none"  stroke-width="0.6"  /></g><g c_partid="part_pcbtext" c_etype="" c_origin="4075.003,3065" c_rotation="180" c_mirror="0" id="gge315" locked="0" layerid="3" c_shapetype="group" ><path c_fontsize="5" c_fontfamily="" c_text="3" d="M 4074.553 3067.73 L 4072.053 3067.73 L 4073.413 3065.91 L 4072.733 3065.91 L 4072.273 3065.68 L 4072.053 3065.45 L 4071.823 3064.77 L 4071.823 3064.32 L 4072.053 3063.64 L 4072.503 3063.18 L 4073.183 3062.95 L 4073.863 3062.95 L 4074.553 3063.18 L 4074.773 3063.41 L 4075.003 3063.86" fill="none"  stroke-width="0.6"  /></g><circle cx="4163.5" cy="3075.5" r="7" stroke-width="1" fill="none" layerid="3" id="gge197" locked="0"  /><circle cx="4097.503" cy="3089.5" r="9.8" stroke-width="1" fill="none" layerid="3" id="gge308" locked="0"  /><circle cx="4072.503" cy="3089.5" r="9.8" stroke-width="1" fill="none" layerid="3" id="gge309" locked="0"  /><circle cx="4122.503" cy="3089.5" r="9.8" stroke-width="1" fill="none" layerid="3" id="gge310" locked="0"  /><polyline points="4047.5591 3048.4685 4193.2283 3048.4685 4193.2283 3194.1378 4047.5591 3194.1378 4047.5591 3048.4685" stroke-width="1"  stroke-linecap="round" fill="none" layerid="10" net="" id="gge347" locked="0" /></svg>