<svg xmlns="http://www.w3.org/2000/svg" xmlns:xlink="http://www.w3.org/1999/xlink" width="39.091mm" height="39.878mm" viewBox="4037.6 3037.3 153.9 157"><title></title><style type="text/css">
*[layerid="1"] {stroke:#000000;fill:#000000;}
*[layerid="2"] {stroke:#000000;fill:#000000;}
*[layerid="3"] {stroke:#000000;fill:#000000;}
*[layerid="4"] {stroke:#000000;fill:#000000;}
*[layerid="5"] {stroke:#000000;fill:#000000;}
*[layerid="6"] {stroke:#000000;fill:#000000;}
*[layerid="7"] {stroke:#000000;fill:#000000;}
*[layerid="8"] {stroke:#000000;fill:#000000;}
*[layerid="9"] {stroke:#000000;fill:#000000;}
*[layerid="10"] {stroke:#000000;fill:#000000;}
*[layerid="11"] {stroke:#000000;fill:#000000;}
*[layerid="12"] {stroke:#000000;fill:#000000;}
*[layerid="13"] {stroke:#000000;fill:#000000;}
*[layerid="14"] {stroke:#000000;fill:#000000;}
*[layerid="15"] {stroke:#000000;fill:#000000;}
*[layerid="19"] {stroke:#000000;fill:#000000;}
*[layerid="21"] {stroke:#000000;fill:#000000;}
*[layerid="22"] {stroke:#000000;fill:#000000;}
*[layerid="23"] {stroke:#000000;fill:#000000;}
*[layerid="24"] {stroke:#000000;fill:#000000;}
*[layerid="25"] {stroke:#000000;fill:#000000;}
*[layerid="26"] {stroke:#000000;fill:#000000;}
*[layerid="27"] {stroke:#000000;fill:#000000;}
*[layerid="28"] {stroke:#000000;fill:#000000;}
*[layerid="29"] {stroke:#000000;fill:#000000;}
*[layerid="30"] {stroke:#000000;fill:#000000;}
*[layerid="31"] {stroke:#000000;fill:#000000;}
*[layerid="32"] {stroke:#000000;fill:#000000;}
*[layerid="33"] {stroke:#000000;fill:#000000;}
*[layerid="34"] {stroke:#000000;fill:#000000;}
*[layerid="35"] {stroke:#000000;fill:#000000;}
*[layerid="36"] {stroke:#000000;fill:#000000;}
*[layerid="37"] {stroke:#000000;fill:#000000;}
*[layerid="38"] {stroke:#000000;fill:#000000;}
*[layerid="39"] {stroke:#000000;fill:#000000;}
*[layerid="40"] {stroke:#000000;fill:#000000;}
*[layerid="41"] {stroke:#000000;fill:#000000;}
*[layerid="42"] {stroke:#000000;fill:#000000;}
*[layerid="43"] {stroke:#000000;fill:#000000;}
*[layerid="44"] {stroke:#000000;fill:#000000;}
*[layerid="45"] {stroke:#000000;fill:#000000;}
*[layerid="46"] {stroke:#000000;fill:#000000;}
*[layerid="47"] {stroke:#000000;fill:#000000;}
*[layerid="48"] {stroke:#000000;fill:#000000;}
*[layerid="49"] {stroke:#000000;fill:#000000;}
*[layerid="50"] {stroke:#000000;fill:#000000;}
*[layerid="51"] {stroke:#000000;fill:#000000;}
*[layerid="52"] {stroke:#000000;fill:#000000;}
*[layerid="99"] {stroke:#000000;fill:#000000;}
*[layerid="100"] {stroke:#000000;fill:#000000;}
*[layerid="101"] {stroke:#000000;fill:#000000;}
*[layerid="Hole"] {stroke:#000000;fill:#000000;}
*[layerid="DRCError"] {stroke:#000000;fill:#000000;}
*[fill="none"] {fill: none;}
*[stroke="none"] {stroke: none;}
path, polyline, polygon, line {stroke-linecap:round;}
g[c_partid="part_pad"][layerid="1"] ellipse:not([c_etype="pad_outer"]) {fill:#000000;}
g[c_partid="part_pad"][layerid="1"] polygon:not([c_etype="pad_outer"]) {fill:#000000;}
g[c_partid="part_pad"][layerid="1"] polyline:not([c_etype="pad_outer"]) {stroke:#000000;}
g[c_partid="part_pad"][layerid="2"] ellipse:not([c_etype="pad_outer"]) {fill:#000000;}
g[c_partid="part_pad"][layerid="2"] polygon:not([c_etype="pad_outer"]) {fill:#000000;}
g[c_partid="part_pad"][layerid="2"] polyline:not([c_etype="pad_outer"]) {stroke:#000000;}
g[c_partid="part_pad"][layerid="11"] ellipse:not([c_etype="pad_outer"]) {fill:#000000;}
g[c_partid="part_pad"][layerid="11"] polygon:not([c_etype="pad_outer"]) {fill:#000000;}
g[c_partid="part_pad"][layerid="11"] polyline:not([c_etype="pad_outer"]) {stroke:#000000;}
g[c_partid="part_pad"][layerid="11"] circle {fill:#FFFFFF;}
g[c_partid="part_pad"][layerid="11"] > polyline:nth-of-type(2) {stroke:#FFFFFF;}
g[c_partid="part_pad"][layerid="11"][c_shape="ELLIPSE"]  polyline:nth-last-of-type(1) {stroke:#FFFFFF;}
g[c_partid="part_pad"][layerid="11"][c_shape="RECT"]  polyline:nth-last-of-type(1) {stroke:#FFFFFF;}
g[c_partid="part_pad"][layerid="11"][c_shape="POLYGON"]  polyline:nth-last-of-type(1) {stroke:#FFFFFF;}
g[c_partid="part_via"] > * + circle, #gCurParts g[c_partid="part_via"] > * + circle {fill:#FFFFFF;}
g[c_partid="part_pad"] > polygon[c_etype="pad_outer"], #gCurParts g[c_partid="part_pad"] > polygon[c_etype="pad_outer"] {stroke-linejoin: miter;stroke-miterlimit: 100;}
g[c_partid="part_hole"] > circle {fill: #FFFFFF;}path, polyline, polygon {stroke-linejoin:round;}
rect, circle, ellipse, polyline, line, polygon, path {shape-rendering:crispEdges;}
</style>
<rect x="4037.6" y="3037.3" width="153.9" height="157" fill="#FFFFFF" stroke="none"/><path d="M 4048.9791 3181.3068 L 4048.82603 3181.27635 4048.69626 3181.18964 4048.60955 3181.05987 4048.5791 3180.9068 4048.5791 3049.8885 4048.60955 3049.73543 4048.69626 3049.60566 4048.82603 3049.51895 4048.9791 3049.4885 4179.9973 3049.4885 4180.15037 3049.51895 4180.28014 3049.60566 4180.36685 3049.73543 4180.3973 3049.8885 4180.3973 3180.9068 4180.36685 3181.05987 4180.28014 3181.18964 4180.15037 3181.27635 4179.9973 3181.3068 4048.9791 3181.3068 Z M 4093.70384 3167.9889 L 4094.01965 3168.02 4130.98035 3168.02 4131.29616 3167.9889 4131.58094 3167.90251 4131.84339 3167.76222 4132.0887 3167.56091 4135.06091 3164.5887 4135.26222 3164.34339 4135.40251 3164.08094 4135.4889 3163.79616 4135.52 3163.48035 4135.52 3156.29529 4135.55045 3156.14222 4135.63716 3156.01245 4137.41245 3154.23716 4137.54222 3154.15045 4137.69529 3154.12 4137.96345 3154.12 4138.11936 3154.15164 4138.25061 3154.24155 4138.33643 3154.3755 4138.41273 3154.57246 4138.68762 3155.08436 4139.02333 3155.5586 4139.41478 3155.988 4139.85602 3156.36603 4140.34038 3156.68698 4140.86051 3156.94597 4141.40852 3157.13909 4141.97611 3157.26339 4142.55467 3157.317 4143.13544 3157.29911 4143.7096 3157.20998 4144.26846 3157.05097 4144.80355 3156.82449 4145.30674 3156.53397 4145.77042 3156.18381 4146.18756 3155.77933 4146.55183 3155.32665 4146.85771 3154.83264 4147.10056 3154.30479 4147.2767 3153.75109 4147.38347 3153.17994 4147.41924 3152.6 4147.38347 3152.02006 4147.2767 3151.44891 4147.10056 3150.89521 4146.85771 3150.36736 4146.55183 3149.87335 4146.18756 3149.42067 4145.77042 3149.01619 4145.30674 3148.66603 4144.80355 3148.37551 4144.26846 3148.14903 4143.7096 3147.99002 4143.13544 3147.90089 4142.55467 3147.883 4141.97611 3147.93661 4141.40852 3148.06091 4140.86051 3148.25403 4140.34038 3148.51302 4139.85602 3148.83397 4139.41478 3149.212 4139.02333 3149.6414 4138.68762 3150.11564 4138.41273 3150.62754 4138.33643 3150.8245 4138.25061 3150.95845 4138.11936 3151.04836 4137.96345 3151.08 4136.91965 3151.08 4136.60384 3151.1111 4136.31906 3151.19749 4136.05661 3151.33778 4135.8113 3151.53909 4132.93909 3154.4113 4132.73778 3154.65661 4132.59749 3154.91906 4132.5111 3155.20384 4132.48 3155.51965 4132.48 3162.70471 4132.44955 3162.85778 4132.36284 3162.98755 4130.48755 3164.86284 4130.35778 3164.94955 4130.20471 3164.98 4102.98212 3164.98 4102.82905 3164.94955 4102.69928 3164.86284 4102.61257 3164.73307 4102.58212 3164.58 4102.61257 3164.42693 4102.70982 3164.28661 4103.07893 3163.81548 4103.38856 3163.30329 4103.63495 3162.75583 4103.72262 3162.63152 4103.85036 3162.54893 4103.99971 3162.52 4115.98035 3162.52 4116.29616 3162.4889 4116.58094 3162.40251 4116.84339 3162.26222 4117.0887 3162.06091 4119.06091 3160.0887 4119.26222 3159.84339 4119.40251 3159.58094 4119.4889 3159.29616 4119.52 3158.98035 4119.52 3112.79529 4119.55045 3112.64222 4119.63716 3112.51245 4121.51245 3110.63716 4121.64222 3110.55045 4121.79529 3110.52 4126.45 3110.52 4126.60307 3110.55045 4126.73284 3110.63716 4126.81955 3110.76693 4126.85 3110.92 4126.85 3114.88254 4126.87804 3115.13141 4126.95329 3115.34646 4127.07451 3115.53938 4127.23562 3115.70049 4127.42854 3115.82171 4127.64359 3115.89696 4127.89246 3115.925 4149.10754 3115.925 4149.35641 3115.89696 4149.57146 3115.82171 4149.76438 3115.70049 4149.92549 3115.53938 4150.04671 3115.34646 4150.12196 3115.13141 4150.15 3114.88254 4150.15 3103.11746 4150.12196 3102.86859 4150.04671 3102.65354 4149.92549 3102.46062 4149.76438 3102.29951 4149.57146 3102.17829 4149.35641 3102.10304 4149.10754 3102.075 4127.89246 3102.075 4127.64359 3102.10304 4127.42854 3102.17829 4127.23562 3102.29951 4127.07451 3102.46062 4126.95329 3102.65354 4126.87804 3102.86859 4126.85 3103.11746 4126.85 3107.08 4126.81955 3107.23307 4126.73284 3107.36284 4126.60307 3107.44955 4126.45 3107.48 4121.01965 3107.48 4120.70384 3107.5111 4120.41906 3107.59749 4120.15661 3107.73778 4119.9113 3107.93909 4116.93909 3110.9113 4116.73778 3111.15661 4116.59749 3111.41906 4116.5111 3111.70384 4116.48 3112.01965 4116.48 3158.20471 4116.44955 3158.35778 4116.36284 3158.48755 4115.48755 3159.36284 4115.35778 3159.44955 4115.20471 3159.48 4103.99971 3159.48 4103.85036 3159.45107 4103.72262 3159.36848 4103.63495 3159.24417 4103.38856 3158.69671 4103.07893 3158.18452 4102.70982 3157.71339 4102.28661 3157.29018 4101.81548 3156.92107 4101.30329 3156.61144 4100.75519 3156.36476 4100.63087 3156.27709 4100.54828 3156.14934 4100.51935 3156 4100.54828 3155.85066 4100.63087 3155.72291 4100.75519 3155.63524 4101.30329 3155.38856 4101.81548 3155.07893 4102.28661 3154.70982 4102.70982 3154.28661 4103.07893 3153.81548 4103.38856 3153.30329 4103.63419 3152.75752 4103.81225 3152.18611 4103.92013 3151.59741 4103.95627 3151 4103.92013 3150.40259 4103.81225 3149.81389 4103.63419 3149.24248 4103.38856 3148.69671 4103.07893 3148.18452 4102.70982 3147.71339 4102.28661 3147.29018 4101.81548 3146.92107 4101.30329 3146.61144 4100.75752 3146.36581 4100.18611 3146.18775 4099.59741 3146.07987 4099 3146.04373 4098.40259 3146.07987 4097.81389 3146.18775 4097.24248 3146.36581 4096.69671 3146.61144 4096.18452 3146.92107 4095.71339 3147.29018 4095.29018 3147.71339 4094.92107 3148.18452 4094.61144 3148.69671 4094.36476 3149.24481 4094.27709 3149.36913 4094.14934 3149.45172 4094 3149.48065 4093.85066 3149.45172 4093.72291 3149.36913 4093.63524 3149.24481 4093.38856 3148.69671 4093.07893 3148.18452 4092.70982 3147.71339 4092.28661 3147.29018 4091.81548 3146.92107 4091.30329 3146.61144 4090.75583 3146.36505 4090.63152 3146.27738 4090.54893 3146.14964 4090.52 3146.00029 4090.52 3142.47086 4090.54835 3142.32295 4090.62939 3142.19601 4090.75163 3142.10803 4090.93151 3142.02455 4091.12347 3141.92103 4091.23558 3141.905 4091.36254 3141.905 4091.61141 3141.87696 4091.82646 3141.80171 4092.01938 3141.68049 4092.18049 3141.51938 4092.30171 3141.32646 4092.37696 3141.11141 4092.405 3140.86254 4092.4159 3140.65577 4092.44799 3140.56809 4092.70019 3140.06902 4092.8763 3139.56183 4092.98324 3139.03569 4093.0191 3138.5 4092.98324 3137.96431 4092.8763 3137.43817 4092.70019 3136.93098 4092.44799 3136.43191 4092.4159 3136.34423 4092.405 3136.13746 4092.37696 3135.88859 4092.30171 3135.67354 4092.18049 3135.48062 4092.01938 3135.31951 4091.82646 3135.19829 4091.61141 3135.12304 4091.36254 3135.095 4091.23558 3135.095 4091.12347 3135.07897 4090.93151 3134.97545 4090.4445 3134.74945 4089.93171 3134.59038 4089.4023 3134.50108 4088.8657 3134.48314 4088.3315 3134.53688 4087.80924 3134.66134 4087.30822 3134.85431 4086.95882 3135.04578 4086.86581 3135.0825 4086.63746 3135.095 4086.38859 3135.12304 4086.17354 3135.19829 4085.98062 3135.31951 4085.81951 3135.48062 4085.69829 3135.67354 4085.62304 3135.88859 4085.595 3136.13746 4085.58079 3136.37596 4085.53916 3136.47413 4085.41287 3136.68734 4085.20328 3137.18163 4085.06143 3137.69945 4084.98987 3138.23155 4084.98987 3138.76845 4085.06143 3139.30055 4085.20328 3139.81837 4085.41287 3140.31266 4085.53916 3140.52587 4085.58079 3140.62404 4085.595 3140.86254 4085.62304 3141.11141 4085.69829 3141.32646 4085.81951 3141.51938 4085.98062 3141.68049 4086.17354 3141.80171 4086.38859 3141.87696 4086.63746 3141.905 4086.86581 3141.9175 4086.95882 3141.95422 4087.27223 3142.12597 4087.38256 3142.21511 4087.45485 3142.33716 4087.48 3142.47675 4087.48 3146.00029 4087.45107 3146.14964 4087.36848 3146.27738 4087.24417 3146.36505 4086.69671 3146.61144 4086.18452 3146.92107 4085.71339 3147.29018 4085.29018 3147.71339 4084.92107 3148.18452 4084.61144 3148.69671 4084.36476 3149.24481 4084.27709 3149.36913 4084.14934 3149.45172 4084 3149.48065 4083.85066 3149.45172 4083.72291 3149.36913 4083.63524 3149.24481 4083.38856 3148.69671 4083.07893 3148.18452 4082.70982 3147.71339 4082.28661 3147.29018 4081.81548 3146.92107 4081.30329 3146.61144 4080.75752 3146.36581 4080.18611 3146.18775 4079.59741 3146.07987 4079 3146.04373 4078.40259 3146.07987 4077.81389 3146.18775 4077.24248 3146.36581 4076.69671 3146.61144 4076.18452 3146.92107 4075.71339 3147.29018 4075.29018 3147.71339 4074.92107 3148.18452 4074.61144 3148.69671 4074.36476 3149.24481 4074.18775 3149.81389 4074.07987 3150.40259 4074.04373 3151 4074.07987 3151.59741 4074.18775 3152.18611 4074.34773 3152.6995 4074.36476 3152.75519 4074.61144 3153.30329 4074.92107 3153.81548 4075.29018 3154.28661 4075.71339 3154.70982 4076.18452 3155.07893 4076.69671 3155.38856 4077.24481 3155.63524 4077.36913 3155.72291 4077.45172 3155.85066 4077.48065 3156 4077.45172 3156.14934 4077.36913 3156.27709 4077.24481 3156.36476 4076.69671 3156.61144 4076.18452 3156.92107 4075.71339 3157.29018 4075.29018 3157.71339 4074.92107 3158.18452 4074.61144 3158.69671 4074.36476 3159.24481 4074.27709 3159.36913 4074.14934 3159.45172 4074 3159.48065 4073.85066 3159.45172 4073.72291 3159.36913 4073.63524 3159.24481 4073.38856 3158.69671 4073.07893 3158.18452 4072.70982 3157.71339 4072.28661 3157.29018 4071.81548 3156.92107 4071.30329 3156.61144 4070.75519 3156.36476 4070.18611 3156.18775 4069.59741 3156.07987 4069 3156.04373 4068.40259 3156.07987 4067.81389 3156.18775 4067.3005 3156.34773 4067.24481 3156.36476 4066.69671 3156.61144 4066.18452 3156.92107 4065.71339 3157.29018 4065.29018 3157.71339 4064.92107 3158.18452 4064.61144 3158.69671 4064.36581 3159.24248 4064.18775 3159.81389 4064.07987 3160.40259 4064.04373 3161 4064.07987 3161.59741 4064.18775 3162.18611 4064.36581 3162.75752 4064.61144 3163.30329 4064.92107 3163.81548 4065.29018 3164.28661 4065.71339 3164.70982 4066.18452 3165.07893 4066.69671 3165.38856 4067.24248 3165.63419 4067.81389 3165.81225 4068.40259 3165.92013 4069 3165.95627 4069.59741 3165.92013 4070.18611 3165.81225 4070.75752 3165.63419 4071.30329 3165.38856 4071.81548 3165.07893 4072.28661 3164.70982 4072.70982 3164.28661 4073.07893 3163.81548 4073.38856 3163.30329 4073.63524 3162.75519 4073.72291 3162.63087 4073.85066 3162.54828 4074 3162.51935 4074.14934 3162.54828 4074.27709 3162.63087 4074.36476 3162.75519 4074.61144 3163.30329 4074.92107 3163.81548 4075.29018 3164.28661 4075.71339 3164.70982 4076.18452 3165.07893 4076.69671 3165.38856 4077.24248 3165.63419 4077.81389 3165.81225 4078.40259 3165.92013 4079 3165.95627 4079.59741 3165.92013 4080.18611 3165.81225 4080.75752 3165.63419 4081.30329 3165.38856 4081.81548 3165.07893 4082.28661 3164.70982 4082.70982 3164.28661 4083.07893 3163.81548 4083.38856 3163.30329 4083.63524 3162.75519 4083.72291 3162.63087 4083.85066 3162.54828 4084 3162.51935 4084.14934 3162.54828 4084.27709 3162.63087 4084.36476 3162.75519 4084.61144 3163.30329 4084.92107 3163.81548 4085.29018 3164.28661 4085.71339 3164.70982 4086.18452 3165.07893 4086.69671 3165.38856 4087.24248 3165.63419 4087.81389 3165.81225 4088.40259 3165.92013 4089 3165.95627 4089.59741 3165.92013 4090.18611 3165.81225 4090.75752 3165.63419 4091.00715 3165.52184 4091.16326 3165.48668 4091.32066 3165.51553 4091.45416 3165.60376 4092.3951 3166.54471 4092.47386 3166.65653 4092.59749 3167.08094 4092.73778 3167.34339 4092.92657 3167.57343 4093.15661 3167.76222 4093.41906 3167.90251 4093.70384 3167.9889 Z M 4071.5 3142.51927 L 4072.10501 3142.48267 4072.70119 3142.37342 4073.27986 3142.1931 4073.83257 3141.94434 4074.35127 3141.63078 4074.82839 3141.25698 4075.25698 3140.82839 4075.63078 3140.35127 4075.94434 3139.83257 4076.1931 3139.27986 4076.37342 3138.70119 4076.48267 3138.10501 4076.51927 3137.5 4076.48267 3136.89499 4076.37342 3136.29881 4076.1931 3135.72014 4075.94434 3135.16743 4075.63078 3134.64873 4075.25698 3134.17161 4074.82839 3133.74302 4074.35127 3133.36922 4073.83257 3133.05566 4073.40841 3132.86476 4073.2841 3132.77709 4073.2015 3132.64934 4073.17258 3132.5 4073.2015 3132.35066 4073.2841 3132.22291 4073.40841 3132.13524 4073.83257 3131.94434 4074.35127 3131.63078 4074.82839 3131.25698 4075.25698 3130.82839 4075.63078 3130.35127 4075.94434 3129.83257 4076.1931 3129.27986 4076.37342 3128.70119 4076.48267 3128.10501 4076.51927 3127.5 4076.48267 3126.89499 4076.37342 3126.29881 4076.1931 3125.72014 4075.94434 3125.16743 4075.63078 3124.64873 4075.25698 3124.17161 4074.82839 3123.74302 4074.35127 3123.36922 4073.83257 3123.05566 4073.40841 3122.86476 4073.2841 3122.77709 4073.2015 3122.64934 4073.17258 3122.5 4073.2015 3122.35066 4073.2841 3122.22291 4073.40841 3122.13524 4073.83257 3121.94434 4074.35127 3121.63078 4074.82839 3121.25698 4075.25698 3120.82839 4075.63078 3120.35127 4075.94434 3119.83257 4076.1931 3119.27986 4076.37342 3118.70119 4076.48267 3118.10501 4076.51927 3117.5 4076.48267 3116.89499 4076.37342 3116.29881 4076.1931 3115.72014 4075.94434 3115.16743 4075.63078 3114.64873 4075.25698 3114.17161 4074.82839 3113.74302 4074.35127 3113.36922 4073.83257 3113.05566 4073.40841 3112.86476 4073.2841 3112.77709 4073.2015 3112.64934 4073.17258 3112.5 4073.2015 3112.35066 4073.2841 3112.22291 4073.40841 3112.13524 4073.83257 3111.94434 4074.35127 3111.63078 4074.82839 3111.25698 4075.25698 3110.82839 4075.63078 3110.35127 4075.94434 3109.83257 4076.1931 3109.27986 4076.37342 3108.70119 4076.48267 3108.10501 4076.51927 3107.5 4076.48267 3106.89499 4076.37342 3106.29881 4076.1931 3105.72014 4075.94434 3105.16743 4075.63078 3104.64873 4075.25698 3104.17161 4074.82839 3103.74302 4074.35127 3103.36922 4073.83257 3103.05566 4073.27986 3102.8069 4072.70119 3102.62658 4072.10501 3102.51733 4071.5 3102.48073 4070.89499 3102.51733 4070.29881 3102.62658 4069.72014 3102.8069 4069.16743 3103.05566 4068.64873 3103.36922 4068.17161 3103.74302 4067.74302 3104.17161 4067.36922 3104.64873 4067.05566 3105.16743 4066.8069 3105.72014 4066.62658 3106.29881 4066.51733 3106.89499 4066.48073 3107.5 4066.51733 3108.10501 4066.62658 3108.70119 4066.8069 3109.27986 4067.05566 3109.83257 4067.36922 3110.35127 4067.74302 3110.82839 4068.17161 3111.25698 4068.64873 3111.63078 4069.16743 3111.94434 4069.59159 3112.13524 4069.7159 3112.22291 4069.7985 3112.35066 4069.82742 3112.5 4069.7985 3112.64934 4069.7159 3112.77709 4069.59159 3112.86476 4069.16743 3113.05566 4068.64873 3113.36922 4068.17161 3113.74302 4067.74302 3114.17161 4067.36922 3114.64873 4067.05566 3115.16743 4066.8069 3115.72014 4066.62658 3116.29881 4066.51733 3116.89499 4066.48073 3117.5 4066.51733 3118.10501 4066.62658 3118.70119 4066.8069 3119.27986 4067.05566 3119.83257 4067.36922 3120.35127 4067.74302 3120.82839 4068.17161 3121.25698 4068.64873 3121.63078 4069.16743 3121.94434 4069.59159 3122.13524 4069.7159 3122.22291 4069.7985 3122.35066 4069.82742 3122.5 4069.7985 3122.64934 4069.7159 3122.77709 4069.59159 3122.86476 4069.16743 3123.05566 4068.64873 3123.36922 4068.17161 3123.74302 4067.74302 3124.17161 4067.36922 3124.64873 4067.05566 3125.16743 4066.8069 3125.72014 4066.62658 3126.29881 4066.51733 3126.89499 4066.48073 3127.5 4066.51733 3128.10501 4066.62658 3128.70119 4066.8069 3129.27986 4067.05566 3129.83257 4067.36922 3130.35127 4067.74302 3130.82839 4068.17161 3131.25698 4068.64873 3131.63078 4069.16743 3131.94434 4069.59159 3132.13524 4069.7159 3132.22291 4069.7985 3132.35066 4069.82742 3132.5 4069.7985 3132.64934 4069.7159 3132.77709 4069.59159 3132.86476 4069.16743 3133.05566 4068.64873 3133.36922 4068.17161 3133.74302 4067.74302 3134.17161 4067.36922 3134.64873 4067.05566 3135.16743 4066.79697 3135.74221 4066.7096 3135.86624 4066.58232 3135.94881 4066.43344 3135.97804 4065.79652 3135.98 4065.64279 3135.94979 4065.51245 3135.86284 4061.13716 3131.48755 4061.05045 3131.35778 4061.02 3131.20471 4061.02 3102.79529 4061.05045 3102.64222 4061.13716 3102.51245 4068.51245 3095.13716 4068.64222 3095.05045 4068.79529 3095.02 4085.38519 3095.02 4085.55061 3095.05581 4085.68642 3095.15682 4085.76829 3095.30496 4085.78157 3095.47369 4085.69829 3095.67354 4085.62304 3095.88859 4085.595 3096.13746 4085.595 3100.86254 4085.62304 3101.11141 4085.69829 3101.32646 4085.81951 3101.51938 4085.98062 3101.68049 4086.17354 3101.80171 4086.38859 3101.87696 4086.63746 3101.905 4091.36254 3101.905 4091.61141 3101.87696 4091.82646 3101.80171 4092.01938 3101.68049 4092.18049 3101.51938 4092.30171 3101.32646 4092.37696 3101.11141 4092.405 3100.86254 4092.405 3096.13746 4092.37696 3095.88859 4092.30171 3095.67354 4092.21843 3095.47369 4092.23171 3095.30496 4092.31358 3095.15682 4092.44939 3095.05581 4092.61481 3095.02 4146.70471 3095.02 4146.85778 3095.05045 4146.98755 3095.13716 4152.36284 3100.51245 4152.44955 3100.64222 4152.48 3100.79529 4152.48 3128.70471 4152.44955 3128.85778 4152.36284 3128.98755 4150.83284 3130.51755 4150.70307 3130.60426 4150.55 3130.63471 4150.39693 3130.60426 4150.26716 3130.51755 4150.18045 3130.38778 4150.15 3130.23471 4150.15 3128.11746 4150.12196 3127.86859 4150.04671 3127.65354 4149.92549 3127.46062 4149.76438 3127.29951 4149.57146 3127.17829 4149.35641 3127.10304 4149.10754 3127.075 4127.89246 3127.075 4127.64359 3127.10304 4127.42854 3127.17829 4127.23562 3127.29951 4127.07451 3127.46062 4126.95329 3127.65354 4126.87804 3127.86859 4126.85 3128.11746 4126.85 3139.88254 4126.87804 3140.13141 4126.95329 3140.34646 4127.07451 3140.53938 4127.23562 3140.70049 4127.42854 3140.82171 4127.64359 3140.89696 4127.89246 3140.925 4149.10754 3140.925 4149.35641 3140.89696 4149.57146 3140.82171 4149.76438 3140.70049 4149.92549 3140.53938 4150.04671 3140.34646 4150.12196 3140.13141 4150.15 3139.88254 4150.15 3135.60581 4150.18916 3135.4332 4150.29898 3135.29438 4150.58895 3135.06066 4155.06091 3130.5887 4155.26222 3130.34339 4155.40251 3130.08094 4155.4889 3129.79616 4155.52 3129.48035 4155.52 3100.01965 4155.4889 3099.70384 4155.40251 3099.41906 4155.26222 3099.15661 4155.06091 3098.9113 4148.5887 3092.43909 4148.34339 3092.23778 4148.08094 3092.09749 4147.79616 3092.0111 4147.48035 3091.98 4068.01965 3091.98 4067.70384 3092.0111 4067.41906 3092.09749 4067.15661 3092.23778 4066.9113 3092.43909 4058.43909 3100.9113 4058.23778 3101.15661 4058.09749 3101.41906 4058.0111 3101.70384 4057.98 3102.01965 4057.98 3132.48035 4058.0111 3132.79616 4058.09749 3133.08094 4058.23778 3133.34339 4058.42657 3133.57343 4058.65661 3133.76222 4058.91906 3133.90251 4059.34347 3134.02614 4059.45529 3134.1049 4063.9113 3138.56091 4064.15661 3138.76222 4064.41906 3138.90251 4064.70384 3138.9889 4065.01965 3139.02 4066.4316 3139.02 4066.58099 3139.04894 4066.70876 3139.13159 4066.79642 3139.25597 4067.0557 3139.83264 4067.36922 3140.35127 4067.74302 3140.82839 4068.17161 3141.25698 4068.64873 3141.63078 4069.16743 3141.94434 4069.72014 3142.1931 4070.29881 3142.37342 4070.89499 3142.48267 4071.5 3142.51927 Z M 4161.5 3142.51927 L 4162.10501 3142.48267 4162.70119 3142.37342 4163.27986 3142.1931 4163.83257 3141.94434 4164.35127 3141.63078 4164.82839 3141.25698 4165.25698 3140.82839 4165.63078 3140.35127 4165.94434 3139.83257 4166.1931 3139.27986 4166.37342 3138.70119 4166.48267 3138.10501 4166.51927 3137.5 4166.48267 3136.89499 4166.37342 3136.29881 4166.1931 3135.72014 4165.94434 3135.16743 4165.63078 3134.64873 4165.25698 3134.17161 4164.82839 3133.74302 4164.35127 3133.36922 4163.83257 3133.05566 4163.40841 3132.86476 4163.2841 3132.77709 4163.2015 3132.64934 4163.17258 3132.5 4163.2015 3132.35066 4163.2841 3132.22291 4163.40841 3132.13524 4163.83257 3131.94434 4164.35127 3131.63078 4164.82839 3131.25698 4165.25698 3130.82839 4165.63078 3130.35127 4165.94434 3129.83257 4166.1931 3129.27986 4166.37342 3128.70119 4166.48267 3128.10501 4166.51927 3127.5 4166.48267 3126.89499 4166.37342 3126.29881 4166.1931 3125.72014 4165.94434 3125.16743 4165.63078 3124.64873 4165.25698 3124.17161 4164.82839 3123.74302 4164.35127 3123.36922 4163.83257 3123.05566 4163.40841 3122.86476 4163.2841 3122.77709 4163.2015 3122.64934 4163.17258 3122.5 4163.2015 3122.35066 4163.2841 3122.22291 4163.40841 3122.13524 4163.83257 3121.94434 4164.35127 3121.63078 4164.82839 3121.25698 4165.25698 3120.82839 4165.63078 3120.35127 4165.94434 3119.83257 4166.1931 3119.27986 4166.37342 3118.70119 4166.48267 3118.10501 4166.51927 3117.5 4166.48267 3116.89499 4166.37342 3116.29881 4166.1931 3115.72014 4165.94434 3115.16743 4165.63078 3114.64873 4165.25698 3114.17161 4164.82839 3113.74302 4164.35127 3113.36922 4163.83257 3113.05566 4163.40841 3112.86476 4163.3192 3112.80185 4163.231 3112.79168 4162.70119 3112.62658 4162.10501 3112.51733 4161.5 3112.48073 4160.89499 3112.51733 4160.29881 3112.62658 4159.769 3112.79168 4159.6808 3112.80185 4159.59159 3112.86476 4159.16743 3113.05566 4158.64873 3113.36922 4158.17161 3113.74302 4157.74302 3114.17161 4157.36922 3114.64873 4157.05566 3115.16743 4156.8069 3115.72014 4156.62658 3116.29881 4156.51733 3116.89499 4156.48073 3117.5 4156.51733 3118.10501 4156.62658 3118.70119 4156.8069 3119.27986 4157.05566 3119.83257 4157.36922 3120.35127 4157.74302 3120.82839 4158.17161 3121.25698 4158.64873 3121.63078 4159.16743 3121.94434 4159.59159 3122.13524 4159.7159 3122.22291 4159.7985 3122.35066 4159.82742 3122.5 4159.7985 3122.64934 4159.7159 3122.77709 4159.59159 3122.86476 4159.16743 3123.05566 4158.64873 3123.36922 4158.17161 3123.74302 4157.74302 3124.17161 4157.36922 3124.64873 4157.05566 3125.16743 4156.8069 3125.72014 4156.62658 3126.29881 4156.51733 3126.89499 4156.48073 3127.5 4156.51733 3128.10501 4156.62658 3128.70119 4156.8069 3129.27986 4157.05566 3129.83257 4157.36922 3130.35127 4157.74302 3130.82839 4158.17161 3131.25698 4158.64873 3131.63078 4159.16743 3131.94434 4159.59159 3132.13524 4159.7159 3132.22291 4159.7985 3132.35066 4159.82742 3132.5 4159.7985 3132.64934 4159.7159 3132.77709 4159.59159 3132.86476 4159.16743 3133.05566 4158.64873 3133.36922 4158.17161 3133.74302 4157.74302 3134.17161 4157.36922 3134.64873 4157.05566 3135.16743 4156.8069 3135.72014 4156.62658 3136.29881 4156.51733 3136.89499 4156.48073 3137.5 4156.51733 3138.10501 4156.62658 3138.70119 4156.8069 3139.27986 4157.05566 3139.83257 4157.36922 3140.35127 4157.74302 3140.82839 4158.17161 3141.25698 4158.64873 3141.63078 4159.16743 3141.94434 4159.72014 3142.1931 4160.29881 3142.37342 4160.89499 3142.48267 4161.5 3142.51927 Z M 4115.77754 3179.32 L 4116.02641 3179.29196 4116.24146 3179.21671 4116.43438 3179.09549 4116.59549 3178.93438 4116.66131 3178.82963 4116.77221 3178.71364 4116.91976 3178.65057 4117.08024 3178.65057 4117.22779 3178.71364 4117.33869 3178.82963 4117.40451 3178.93438 4117.56562 3179.09549 4117.75854 3179.21671 4117.97359 3179.29196 4118.22246 3179.32 4119.85 3179.32 4119.85 3176.65 4117.22 3176.65 4117.06693 3176.61955 4116.93716 3176.53284 4116.85045 3176.40307 4116.82 3176.25 4116.82 3172.75 4116.85045 3172.59693 4116.93716 3172.46716 4117.06693 3172.38045 4117.22 3172.35 4119.85 3172.35 4119.85 3169.68 4118.22246 3169.68 4117.97359 3169.70804 4117.75854 3169.78329 4117.56562 3169.90451 4117.40451 3170.06562 4117.33869 3170.17037 4117.22779 3170.28636 4117.08024 3170.34943 4116.91976 3170.34943 4116.77221 3170.28636 4116.66131 3170.17037 4116.59549 3170.06562 4116.43438 3169.90451 4116.24146 3169.78329 4116.02641 3169.70804 4115.77754 3169.68 4108.22246 3169.68 4107.97359 3169.70804 4107.75854 3169.78329 4107.56562 3169.90451 4107.40451 3170.06562 4107.28329 3170.25854 4107.20804 3170.47359 4107.18 3170.72246 4107.18 3178.27754 4107.20804 3178.52641 4107.28329 3178.74146 4107.40451 3178.93438 4107.56562 3179.09549 4107.75854 3179.21671 4107.97359 3179.29196 4108.22246 3179.32 4115.77754 3179.32 Z M 4157.27359 3092.49196 L 4157.52246 3092.52 4165.47754 3092.52 4165.72641 3092.49196 4165.94146 3092.41671 4166.13438 3092.29549 4166.29549 3092.13438 4166.41671 3091.94146 4166.49196 3091.72641 4166.52 3091.47754 4166.52 3083.52246 4166.49196 3083.27359 4166.41671 3083.05854 4166.29549 3082.86562 4166.13438 3082.70451 4165.94146 3082.58329 4165.72641 3082.50804 4165.47754 3082.48 4157.52246 3082.48 4157.27359 3082.50804 4157.05854 3082.58329 4156.86562 3082.70451 4156.70451 3082.86562 4156.58329 3083.05854 4156.50804 3083.27359 4156.48 3083.52246 4156.48 3091.47754 4156.50804 3091.72641 4156.58329 3091.94146 4156.70451 3092.13438 4156.86562 3092.29549 4157.05854 3092.41671 4157.27359 3092.49196 Z M 4168.15467 3157.317 L 4168.73544 3157.29911 4169.3096 3157.20998 4169.86846 3157.05097 4170.40355 3156.82449 4170.90674 3156.53397 4171.37042 3156.18381 4171.78756 3155.77933 4172.15183 3155.32665 4172.45771 3154.83264 4172.70056 3154.30479 4172.8767 3153.75109 4172.98347 3153.17994 4173.01924 3152.6 4172.98347 3152.02006 4172.8767 3151.44891 4172.70056 3150.89521 4172.45771 3150.36736 4172.15183 3149.87335 4171.78756 3149.42067 4171.37042 3149.01619 4170.90674 3148.66603 4170.40355 3148.37551 4169.86846 3148.14903 4169.3096 3147.99002 4168.73544 3147.90089 4168.15467 3147.883 4167.57611 3147.93661 4167.00852 3148.06091 4166.46051 3148.25403 4165.94038 3148.51302 4165.45602 3148.83397 4165.01478 3149.212 4164.62333 3149.6414 4164.28762 3150.11564 4164.01273 3150.62754 4163.80284 3151.16935 4163.66111 3151.73284 4163.58971 3152.30948 4163.58971 3152.89052 4163.66111 3153.46716 4163.80284 3154.03065 4164.01273 3154.57246 4164.28762 3155.08436 4164.62333 3155.5586 4165.01478 3155.988 4165.45602 3156.36603 4165.94038 3156.68698 4166.46051 3156.94597 4167.00852 3157.13909 4167.57611 3157.26339 4168.15467 3157.317 Z M 4168.15467 3175.117 L 4168.73544 3175.09911 4169.3096 3175.00998 4169.86846 3174.85097 4170.40355 3174.62449 4170.90674 3174.33397 4171.37042 3173.98381 4171.78756 3173.57933 4172.15183 3173.12665 4172.45771 3172.63264 4172.70056 3172.10479 4172.8767 3171.55109 4172.98347 3170.97994 4173.01924 3170.4 4172.98347 3169.82006 4172.8767 3169.24891 4172.70056 3168.69521 4172.45771 3168.16736 4172.15183 3167.67335 4171.78756 3167.22067 4171.37042 3166.81619 4170.90674 3166.46603 4170.40355 3166.17551 4169.86846 3165.94903 4169.3096 3165.79002 4168.73544 3165.70089 4168.15467 3165.683 4167.57611 3165.73661 4167.00852 3165.86091 4166.46051 3166.05403 4165.94038 3166.31302 4165.45602 3166.63397 4165.01478 3167.012 4164.62333 3167.4414 4164.28762 3167.91564 4164.01273 3168.42754 4163.80284 3168.96935 4163.66111 3169.53284 4163.58971 3170.10948 4163.58971 3170.69052 4163.66111 3171.26716 4163.80284 3171.83065 4164.01273 3172.37246 4164.28762 3172.88436 4164.62333 3173.3586 4165.01478 3173.788 4165.45602 3174.16603 4165.94038 3174.48698 4166.46051 3174.74597 4167.00852 3174.93909 4167.57611 3175.06339 4168.15467 3175.117 Z M 4108.36254 3088.905 L 4108.61141 3088.87696 4108.82646 3088.80171 4109.01938 3088.68049 4109.18049 3088.51938 4109.30171 3088.32646 4109.37696 3088.11141 4109.405 3087.86254 4109.405 3083.13746 4109.37696 3082.88859 4109.30171 3082.67354 4109.18049 3082.48062 4109.01938 3082.31951 4108.82646 3082.19829 4108.61141 3082.12304 4108.36254 3082.095 4103.63746 3082.095 4103.38859 3082.12304 4103.17354 3082.19829 4102.98062 3082.31951 4102.81951 3082.48062 4102.69829 3082.67354 4102.62304 3082.88859 4102.595 3083.13746 4102.595 3087.86254 4102.62304 3088.11141 4102.69829 3088.32646 4102.81951 3088.51938 4102.98062 3088.68049 4103.17354 3088.80171 4103.38859 3088.87696 4103.63746 3088.905 4108.36254 3088.905 Z M 4068.36254 3088.905 L 4068.61141 3088.87696 4068.82646 3088.80171 4069.01938 3088.68049 4069.18049 3088.51938 4069.30171 3088.32646 4069.37696 3088.11141 4069.405 3087.86254 4069.405 3083.13746 4069.37696 3082.88859 4069.30171 3082.67354 4069.18049 3082.48062 4069.01938 3082.31951 4068.82646 3082.19829 4068.61141 3082.12304 4068.36254 3082.095 4063.63746 3082.095 4063.38859 3082.12304 4063.17354 3082.19829 4062.98062 3082.31951 4062.81951 3082.48062 4062.69829 3082.67354 4062.62304 3082.88859 4062.595 3083.13746 4062.595 3087.86254 4062.62304 3088.11141 4062.69829 3088.32646 4062.81951 3088.51938 4062.98062 3088.68049 4063.17354 3088.80171 4063.38859 3088.87696 4063.63746 3088.905 4068.36254 3088.905 Z M 4068.36254 3069.905 L 4068.61141 3069.87696 4068.82646 3069.80171 4069.01938 3069.68049 4069.18049 3069.51938 4069.30171 3069.32646 4069.37696 3069.11141 4069.405 3068.86254 4069.405 3064.13746 4069.37696 3063.88859 4069.30171 3063.67354 4069.18049 3063.48062 4069.01938 3063.31951 4068.82646 3063.19829 4068.61141 3063.12304 4068.36254 3063.095 4063.63746 3063.095 4063.38859 3063.12304 4063.17354 3063.19829 4062.98062 3063.31951 4062.81951 3063.48062 4062.69829 3063.67354 4062.62304 3063.88859 4062.595 3064.13746 4062.595 3068.86254 4062.62304 3069.11141 4062.69829 3069.32646 4062.81951 3069.51938 4062.98062 3069.68049 4063.17354 3069.80171 4063.38859 3069.87696 4063.63746 3069.905 4068.36254 3069.905 Z M 4132.935 3080.7975 L 4132.935 3077.075 4127.89246 3077.075 4127.64359 3077.10304 4127.42854 3077.17829 4127.23562 3077.29951 4127.07451 3077.46062 4126.95329 3077.65354 4126.87804 3077.86859 4126.85 3078.11746 4126.85 3080.7975 4132.935 3080.7975 Z M 4144.065 3087.2025 L 4144.065 3090.925 4149.10754 3090.925 4149.35641 3090.89696 4149.57146 3090.82171 4149.76438 3090.70049 4149.92549 3090.53938 4150.04671 3090.34646 4150.12196 3090.13141 4150.15 3089.88254 4150.15 3087.2025 4144.065 3087.2025 Z M 4144.065 3077.075 L 4144.065 3080.7975 4150.15 3080.7975 4150.15 3078.11746 4150.12196 3077.86859 4150.04671 3077.65354 4149.92549 3077.46062 4149.76438 3077.29951 4149.57146 3077.17829 4149.35641 3077.10304 4149.10754 3077.075 4144.065 3077.075 Z M 4127.64359 3090.89696 L 4127.89246 3090.925 4132.935 3090.925 4132.935 3087.2025 4126.85 3087.2025 4126.85 3089.88254 4126.87804 3090.13141 4126.95329 3090.34646 4127.07451 3090.53938 4127.23562 3090.70049 4127.42854 3090.82171 4127.64359 3090.89696 Z M 4126.82 3172.35 L 4126.82 3170.72246 4126.79196 3170.47359 4126.71671 3170.25854 4126.59549 3170.06562 4126.43438 3169.90451 4126.24146 3169.78329 4126.02641 3169.70804 4125.77754 3169.68 4124.15 3169.68 4124.15 3172.35 4126.82 3172.35 Z M 4125.77754 3179.32 L 4126.02641 3179.29196 4126.24146 3179.21671 4126.43438 3179.09549 4126.59549 3178.93438 4126.71671 3178.74146 4126.79196 3178.52641 4126.82 3178.27754 4126.82 3176.65 4124.15 3176.65 4124.15 3179.32 4125.77754 3179.32 Z M 4163.75 3111.9815 L 4163.83257 3111.94434 4164.35127 3111.63078 4164.82839 3111.25698 4165.25698 3110.82839 4165.63078 3110.35127 4165.94434 3109.83257 4165.9815 3109.75 4163.75 3109.75 4163.75 3111.9815 Z M 4163.75 3103.0185 L 4163.75 3105.25 4165.9815 3105.25 4165.94434 3105.16743 4165.63078 3104.64873 4165.25698 3104.17161 4164.82839 3103.74302 4164.35127 3103.36922 4163.83257 3103.05566 4163.75 3103.0185 Z M 4159.25 3111.9815 L 4159.25 3109.75 4157.0185 3109.75 4157.05566 3109.83257 4157.36922 3110.35127 4157.74302 3110.82839 4158.17161 3111.25698 4158.64873 3111.63078 4159.16743 3111.94434 4159.25 3111.9815 Z M 4159.25 3105.25 L 4159.25 3103.0185 4159.16743 3103.05566 4158.64873 3103.36922 4158.17161 3103.74302 4157.74302 3104.17161 4157.36922 3104.64873 4157.05566 3105.16743 4157.0185 3105.25 4159.25 3105.25 Z M 4066.7815 3155.42672 L 4066.7815 3153.2185 4064.57328 3153.2185 4064.61144 3153.30329 4064.92107 3153.81548 4065.29018 3154.28661 4065.71339 3154.70982 4066.18452 3155.07893 4066.69671 3155.38856 4066.7815 3155.42672 Z M 4073.42672 3148.7815 L 4073.38856 3148.69671 4073.07893 3148.18452 4072.70982 3147.71339 4072.28661 3147.29018 4071.81548 3146.92107 4071.30329 3146.61144 4071.2185 3146.57328 4071.2185 3148.7815 4073.42672 3148.7815 Z M 4071.2185 3153.2185 L 4071.2185 3155.42672 4071.30329 3155.38856 4071.81548 3155.07893 4072.28661 3154.70982 4072.70982 3154.28661 4073.07893 3153.81548 4073.38856 3153.30329 4073.42672 3153.2185 4071.2185 3153.2185 Z M 4066.7815 3148.7815 L 4066.7815 3146.57328 4066.69671 3146.61144 4066.18452 3146.92107 4065.71339 3147.29018 4065.29018 3147.71339 4064.92107 3148.18452 4064.61144 3148.69671 4064.57328 3148.7815 4066.7815 3148.7815 Z M 4144.8 3166.17402 L 4144.8 3168.3 4146.91873 3168.3 4146.85771 3168.16736 4146.55183 3167.67335 4146.18756 3167.22067 4145.77042 3166.81619 4145.30674 3166.46603 4144.8 3166.17402 Z M 4144.80034 3174.62585 L 4145.30674 3174.33397 4145.77042 3173.98381 4146.18756 3173.57933 4146.55183 3173.12665 4146.85771 3172.63264 4146.91873 3172.5 4144.8 3172.5 4144.80034 3174.62585 Z M 4140.6 3174.61626 L 4140.6 3172.5 4138.48122 3172.5 4138.68762 3172.88436 4139.02333 3173.3586 4139.41478 3173.788 4139.85602 3174.16603 4140.34038 3174.48698 4140.6 3174.61626 Z M 4138.68762 3167.91564 L 4138.48122 3168.3 4140.6 3168.3 4140.6 3166.18374 4140.34038 3166.31302 4139.85602 3166.63397 4139.41478 3167.012 4139.02333 3167.4414 4138.68762 3167.91564 Z M 4108.36254 3069.905 L 4108.61141 3069.87696 4108.82646 3069.80171 4109.01938 3069.68049 4109.18049 3069.51938 4109.30171 3069.32646 4109.37696 3069.11141 4109.405 3068.86254 4109.405 3067.9425 4107.4425 3067.9425 4107.4425 3069.905 4108.36254 3069.905 Z M 4107.4425 3063.095 L 4107.4425 3065.0575 4109.405 3065.0575 4109.405 3064.13746 4109.37696 3063.88859 4109.30171 3063.67354 4109.18049 3063.48062 4109.01938 3063.31951 4108.82646 3063.19829 4108.61141 3063.12304 4108.36254 3063.095 4107.4425 3063.095 Z M 4104.5575 3069.905 L 4104.5575 3067.9425 4102.595 3067.9425 4102.595 3068.86254 4102.62304 3069.11141 4102.69829 3069.32646 4102.81951 3069.51938 4102.98062 3069.68049 4103.17354 3069.80171 4103.38859 3069.87696 4103.63746 3069.905 4104.5575 3069.905 Z M 4104.5575 3065.0575 L 4104.5575 3063.095 4103.63746 3063.095 4103.38859 3063.12304 4103.17354 3063.19829 4102.98062 3063.31951 4102.81951 3063.48062 4102.69829 3063.67354 4102.62304 3063.88859 4102.595 3064.13746 4102.595 3065.0575 4104.5575 3065.0575 Z " stroke-width="0" layerid="1" attachedcopperid="gge514" c_shapetype="line" id="gge514_0" class=""></path><polyline points="4071.5 3137.5 4065 3137.5 4060 3132.5 4059.5 3132.5 4059.5 3102 4068 3093.5 4147.5 3093.5 4154 3100 4154 3129.5 4149.499 3134.001 4138.5 3134.001" stroke-width="1"  stroke-linecap="round" fill="none" layerid="1" net="X1_1" id="gge511" locked="0" /><polyline points="4089 3138.5 4089 3151" stroke-width="1"  stroke-linecap="round" fill="none" layerid="1" net="MK1_3" id="gge488" locked="0" /><polyline points="4122 3174.5 4137.02 3174.5 4141.05 3170.41 4142.7 3170.4" stroke-width="1"  stroke-linecap="round" fill="none" layerid="1" net="GND" id="gge471" locked="0" /><polyline points="4142.7 3152.6 4136.9 3152.6 4134 3155.5 4134 3163.5 4131 3166.5 4094 3166.5 4094 3166 4089 3161" stroke-width="1"  stroke-linecap="round" fill="none" layerid="1" net="MK1_6" id="gge476" locked="0" /><polyline points="4069 3151 4063.5 3151 4060 3154.5 4060 3177 4063.5 3180.5 4120 3180.5 4122 3178.5 4122 3174.5" stroke-width="1"  stroke-linecap="round" fill="none" layerid="1" net="GND" id="gge477" locked="0" /><polyline points="4138.5 3109 4121 3109 4118 3112 4118 3159 4116 3161 4099 3161" stroke-width="1"  stroke-linecap="round" fill="none" layerid="1" net="MK1_5" id="gge469" locked="0" /><g c_partid="part_pad" c_etype="pinpart" c_origin="4161.5,3087.5" layerid="11" number="2" net="X1_1" plated =""  id="gge418" locked="0" c_rotation="0" c_width="6" c_height="6" title="X1_1" c_shape="ELLIPSE" pasteexpansion="0" solderexpansion="0.4"><ellipse c_etype="pad_shell" cx="4161.5" cy="3087.5" rx="3" ry="3" layerid="11" stroke-width="0"/><circle c_etype="pad_hole" cx="4161.5" cy="3087.5" r="1.8" layerid="11" stroke-width="0"/></g><g c_partid="part_pad" c_etype="pinpart" c_origin="4138.5,3084.001" layerid="11" number="3" net="GND" plated =""  id="gge424" locked="0" c_rotation="0" c_width="6" c_height="6" title="GND" c_shape="ELLIPSE" pasteexpansion="0" solderexpansion="0.4"><ellipse c_etype="pad_shell" cx="4138.5" cy="3084.001" rx="3" ry="3" layerid="11" stroke-width="0"/><circle c_etype="pad_hole" cx="4138.5" cy="3084.001" r="1.8" layerid="11" stroke-width="0"/></g><g c_partid="part_pad" c_etype="pinpart" c_origin="4099,3151" layerid="11" number="4" net="MK1_4" plated =""  id="gge430" locked="0" c_rotation="0" c_width="6" c_height="6" title="MK1_4" c_shape="ELLIPSE" pasteexpansion="0" solderexpansion="0.4"><ellipse c_etype="pad_shell" cx="4099" cy="3151" rx="3" ry="3" layerid="11" stroke-width="0"/><circle c_etype="pad_hole" cx="4099" cy="3151" r="1.8" layerid="11" stroke-width="0"/></g><g c_partid="part_pad" c_etype="pinpart" c_origin="4112,3174.5" layerid="11" number="6" net="JP1_2" plated =""  id="gge442" locked="0" c_rotation="0" c_width="6" c_height="6" title="JP1_2" c_shape="ELLIPSE" pasteexpansion="0" solderexpansion="0.4"><ellipse c_etype="pad_shell" cx="4112" cy="3174.5" rx="3" ry="3" layerid="11" stroke-width="0"/><circle c_etype="pad_hole" cx="4112" cy="3174.5" r="1.8" layerid="11" stroke-width="0"/></g><g c_partid="part_pad" c_etype="pinpart" c_origin="4142.7,3170.4" layerid="11" number="7" net="GND" plated =""  id="gge448" locked="0" c_rotation="0" c_width="6" c_height="6" title="GND" c_shape="ELLIPSE" pasteexpansion="0" solderexpansion="0.4"><ellipse c_etype="pad_shell" cx="4142.7" cy="3170.4" rx="3" ry="3" layerid="11" stroke-width="0"/><circle c_etype="pad_hole" cx="4142.7" cy="3170.4" r="1.8" layerid="11" stroke-width="0"/></g><g c_partid="part_pad" c_etype="pinpart" c_origin="4089,3138.5" layerid="11" number="8" net="MK1_3" plated =""  id="gge481" locked="0" c_rotation="0" c_width="6" c_height="6" title="MK1_3" c_shape="ELLIPSE" pasteexpansion="0" solderexpansion="0.4"><ellipse c_etype="pad_shell" cx="4089" cy="3138.5" rx="3" ry="3" layerid="11" stroke-width="0"/><circle c_etype="pad_hole" cx="4089" cy="3138.5" r="1.8" layerid="11" stroke-width="0"/></g><g c_partid="part_pad" c_etype="pinpart" c_origin="4071.5,3137.5" layerid="11" number="9" net="X1_1" plated =""  id="gge504" locked="0" c_rotation="0" c_width="6" c_height="6" title="X1_1" c_shape="ELLIPSE" pasteexpansion="0" solderexpansion="0.4"><ellipse c_etype="pad_shell" cx="4071.5" cy="3137.5" rx="3" ry="3" layerid="11" stroke-width="0"/><circle c_etype="pad_hole" cx="4071.5" cy="3137.5" r="1.8" layerid="11" stroke-width="0"/></g><g c_partid="part_pad" c_etype="pinpart" c_origin="4122,3174.5" layerid="11" number="1" net="GND" plated ="Y"  id="gge114" locked="0" c_rotation="90" c_width="7.6" c_height="7.6" title="GND" c_shape="RECT" pasteexpansion="0" solderexpansion="0.4"><polygon  c_etype="pad_shell" points="4118.2 3178.3 4118.2 3170.7 4125.8 3170.7 4125.8 3178.3" layerid="11" stroke-width="0" /><circle c_etype="pad_hole" cx="4122" cy="3174.5" r="1.97" layerid="11" stroke-width="0"/></g><g c_partid="part_pad" c_etype="pinpart" c_origin="4112,3174.5" layerid="11" number="2" net="JP1_2" plated ="Y"  id="gge119" locked="0" c_rotation="90" c_width="7.6" c_height="7.6" title="JP1_2" c_shape="RECT" pasteexpansion="0" solderexpansion="0.4"><polygon  c_etype="pad_shell" points="4108.2 3178.3 4108.2 3170.7 4115.8 3170.7 4115.8 3178.3" layerid="11" stroke-width="0" /><circle c_etype="pad_hole" cx="4112" cy="3174.5" r="1.97" layerid="11" stroke-width="0"/></g><g c_partid="part_pad" c_etype="pinpart" c_origin="4069,3161" layerid="11" number="8" net="MK1_8" plated ="Y"  id="gge145" locked="0" c_rotation="0" c_width="7.874" c_height="7.874" title="MK1_8" c_shape="ELLIPSE" pasteexpansion="0" solderexpansion="0.2"><ellipse c_etype="pad_shell" cx="4069" cy="3161" rx="3.937" ry="3.937" layerid="11" stroke-width="0"/><circle c_etype="pad_hole" cx="4069" cy="3161" r="2.362" layerid="11" stroke-width="0"/></g><g c_partid="part_pad" c_etype="pinpart" c_origin="4079,3161" layerid="11" number="7" net="MK1_7" plated ="Y"  id="gge150" locked="0" c_rotation="0" c_width="7.874" c_height="7.874" title="MK1_7" c_shape="ELLIPSE" pasteexpansion="0" solderexpansion="0.2"><ellipse c_etype="pad_shell" cx="4079" cy="3161" rx="3.937" ry="3.937" layerid="11" stroke-width="0"/><circle c_etype="pad_hole" cx="4079" cy="3161" r="2.362" layerid="11" stroke-width="0"/></g><g c_partid="part_pad" c_etype="pinpart" c_origin="4089,3161" layerid="11" number="6" net="MK1_6" plated ="Y"  id="gge155" locked="0" c_rotation="0" c_width="7.874" c_height="7.874" title="MK1_6" c_shape="ELLIPSE" pasteexpansion="0" solderexpansion="0.2"><ellipse c_etype="pad_shell" cx="4089" cy="3161" rx="3.937" ry="3.937" layerid="11" stroke-width="0"/><circle c_etype="pad_hole" cx="4089" cy="3161" r="2.362" layerid="11" stroke-width="0"/></g><g c_partid="part_pad" c_etype="pinpart" c_origin="4099,3161" layerid="11" number="5" net="MK1_5" plated ="Y"  id="gge160" locked="0" c_rotation="0" c_width="7.874" c_height="7.874" title="MK1_5" c_shape="ELLIPSE" pasteexpansion="0" solderexpansion="0.2"><ellipse c_etype="pad_shell" cx="4099" cy="3161" rx="3.937" ry="3.937" layerid="11" stroke-width="0"/><circle c_etype="pad_hole" cx="4099" cy="3161" r="2.362" layerid="11" stroke-width="0"/></g><g c_partid="part_pad" c_etype="pinpart" c_origin="4099,3151" layerid="11" number="4" net="MK1_4" plated ="Y"  id="gge165" locked="0" c_rotation="0" c_width="7.874" c_height="7.874" title="MK1_4" c_shape="ELLIPSE" pasteexpansion="0" solderexpansion="0.2"><ellipse c_etype="pad_shell" cx="4099" cy="3151" rx="3.937" ry="3.937" layerid="11" stroke-width="0"/><circle c_etype="pad_hole" cx="4099" cy="3151" r="2.362" layerid="11" stroke-width="0"/></g><g c_partid="part_pad" c_etype="pinpart" c_origin="4089,3151" layerid="11" number="3" net="MK1_3" plated ="Y"  id="gge170" locked="0" c_rotation="0" c_width="7.874" c_height="7.874" title="MK1_3" c_shape="ELLIPSE" pasteexpansion="0" solderexpansion="0.2"><ellipse c_etype="pad_shell" cx="4089" cy="3151" rx="3.937" ry="3.937" layerid="11" stroke-width="0"/><circle c_etype="pad_hole" cx="4089" cy="3151" r="2.362" layerid="11" stroke-width="0"/></g><g c_partid="part_pad" c_etype="pinpart" c_origin="4079,3151" layerid="11" number="2" net="MK1_2" plated ="Y"  id="gge175" locked="0" c_rotation="0" c_width="7.874" c_height="7.874" title="MK1_2" c_shape="ELLIPSE" pasteexpansion="0" solderexpansion="0.2"><ellipse c_etype="pad_shell" cx="4079" cy="3151" rx="3.937" ry="3.937" layerid="11" stroke-width="0"/><circle c_etype="pad_hole" cx="4079" cy="3151" r="2.362" layerid="11" stroke-width="0"/></g><g c_partid="part_pad" c_etype="pinpart" c_origin="4069,3151" layerid="11" number="1" net="GND" plated ="Y"  id="gge180" locked="0" c_rotation="0" c_width="7.874" c_height="7.874" title="GND" c_shape="ELLIPSE" pasteexpansion="0" solderexpansion="0.2"><ellipse c_etype="pad_shell" cx="4069" cy="3151" rx="3.937" ry="3.937" layerid="11" stroke-width="0"/><circle c_etype="pad_hole" cx="4069" cy="3151" r="2.362" layerid="11" stroke-width="0"/></g><g c_partid="part_pad" c_etype="pinpart" c_origin="4142.7,3152.6" layerid="11" number="1" net="MK1_6" plated ="Y"  id="gge213" locked="0" c_rotation="0" c_width="7.4" c_height="7.4" title="MK1_6" c_shape="ELLIPSE" pasteexpansion="0" solderexpansion="0.4"><ellipse c_etype="pad_shell" cx="4142.7" cy="3152.6" rx="3.7" ry="3.7" layerid="11" stroke-width="0"/><circle c_etype="pad_hole" cx="4142.7" cy="3152.6" r="2" layerid="11" stroke-width="0"/></g><g c_partid="part_pad" c_etype="pinpart" c_origin="4168.3,3152.6" layerid="11" number="2" net="" plated ="Y"  id="gge218" locked="0" c_rotation="0" c_width="7.4" c_height="7.4" title="" c_shape="ELLIPSE" pasteexpansion="0" solderexpansion="0.4"><ellipse c_etype="pad_shell" cx="4168.3" cy="3152.6" rx="3.7" ry="3.7" layerid="11" stroke-width="0"/><circle c_etype="pad_hole" cx="4168.3" cy="3152.6" r="2" layerid="11" stroke-width="0"/></g><g c_partid="part_pad" c_etype="pinpart" c_origin="4142.7,3170.4" layerid="11" number="3" net="GND" plated ="Y"  id="gge223" locked="0" c_rotation="0" c_width="7.4" c_height="7.4" title="GND" c_shape="ELLIPSE" pasteexpansion="0" solderexpansion="0.4"><ellipse c_etype="pad_shell" cx="4142.7" cy="3170.4" rx="3.7" ry="3.7" layerid="11" stroke-width="0"/><circle c_etype="pad_hole" cx="4142.7" cy="3170.4" r="2" layerid="11" stroke-width="0"/></g><g c_partid="part_pad" c_etype="pinpart" c_origin="4168.3,3170.4" layerid="11" number="4" net="" plated ="Y"  id="gge228" locked="0" c_rotation="0" c_width="7.4" c_height="7.4" title="" c_shape="ELLIPSE" pasteexpansion="0" solderexpansion="0.4"><ellipse c_etype="pad_shell" cx="4168.3" cy="3170.4" rx="3.7" ry="3.7" layerid="11" stroke-width="0"/><circle c_etype="pad_hole" cx="4168.3" cy="3170.4" r="2" layerid="11" stroke-width="0"/></g><g c_partid="part_pad" c_etype="pinpart" c_origin="4138.5,3084.001" layerid="11" number="3" net="GND" plated ="Y"  id="gge317" locked="0" c_rotation="180" c_width="21.26" c_height="11.81" title="GND" c_shape="RECT" pasteexpansion="0" solderexpansion="0.4"><polygon  c_etype="pad_shell" points="4149.13 3089.908 4127.87 3089.908 4127.87 3078.093 4149.13 3078.093" layerid="11" stroke-width="0" /><circle c_etype="pad_hole" cx="4138.5" cy="3084" r="2.95" layerid="11" stroke-width="0"/></g><g c_partid="part_pad" c_etype="pinpart" c_origin="4138.5,3109.001" layerid="11" number="2" net="MK1_5" plated ="Y"  id="gge322" locked="0" c_rotation="180" c_width="21.26" c_height="11.81" title="MK1_5" c_shape="RECT" pasteexpansion="0" solderexpansion="0.4"><polygon  c_etype="pad_shell" points="4149.13 3114.908 4127.87 3114.908 4127.87 3103.093 4149.13 3103.093" layerid="11" stroke-width="0" /><circle c_etype="pad_hole" cx="4138.5" cy="3109" r="2.95" layerid="11" stroke-width="0"/></g><g c_partid="part_pad" c_etype="pinpart" c_origin="4138.5,3134.001" layerid="11" number="1" net="X1_1" plated ="Y"  id="gge327" locked="0" c_rotation="180" c_width="21.26" c_height="11.81" title="X1_1" c_shape="RECT" pasteexpansion="0" solderexpansion="0.4"><polygon  c_etype="pad_shell" points="4149.13 3139.908 4127.87 3139.908 4127.87 3128.093 4149.13 3128.093" layerid="11" stroke-width="0" /><circle c_etype="pad_hole" cx="4138.5" cy="3134" r="2.95" layerid="11" stroke-width="0"/></g><g c_partid="part_pad" c_etype="pinpart" c_origin="4089,3098.5" layerid="11" number="1" net="JP1_2" plated ="Y"  id="gge25" locked="0" c_rotation="90" c_width="4.77" c_height="4.77" title="JP1_2" c_shape="RECT" pasteexpansion="0" solderexpansion="0.4"><polygon  c_etype="pad_shell" points="4086.615 3096.115 4086.615 3100.885 4091.385 3100.885 4091.385 3096.115" layerid="11" stroke-width="0" /><circle c_etype="pad_hole" cx="4089" cy="3098.5" r="1.6" layerid="11" stroke-width="0"/></g><g c_partid="part_pad" c_etype="pinpart" c_origin="4089,3138.5" layerid="11" number="2" net="MK1_3" plated ="Y"  id="gge30" locked="0" c_rotation="90" c_width="4.77" c_height="4.77" title="MK1_3" c_shape="RECT" pasteexpansion="0" solderexpansion="0.4"><polygon  c_etype="pad_shell" points="4086.615 3136.115 4086.615 3140.885 4091.385 3140.885 4091.385 3136.115" layerid="11" stroke-width="0" /><circle c_etype="pad_hole" cx="4089" cy="3138.5" r="1.6" layerid="11" stroke-width="0"/></g><g c_partid="part_pad" c_etype="pinpart" c_origin="4106,3085.5" layerid="11" number="1" net="1K_1" plated ="Y"  id="gge59" locked="0" c_rotation="0" c_width="4.77" c_height="4.77" title="1K_1" c_shape="RECT" pasteexpansion="0" solderexpansion="0.4"><polygon  c_etype="pad_shell" points="4108.385 3083.115 4103.615 3083.115 4103.615 3087.885 4108.385 3087.885" layerid="11" stroke-width="0" /><circle c_etype="pad_hole" cx="4106" cy="3085.5" r="1.6" layerid="11" stroke-width="0"/></g><g c_partid="part_pad" c_etype="pinpart" c_origin="4066,3085.5" layerid="11" number="2" net="MK1_4" plated ="Y"  id="gge64" locked="0" c_rotation="0" c_width="4.77" c_height="4.77" title="MK1_4" c_shape="RECT" pasteexpansion="0" solderexpansion="0.4"><polygon  c_etype="pad_shell" points="4068.385 3083.115 4063.615 3083.115 4063.615 3087.885 4068.385 3087.885" layerid="11" stroke-width="0" /><circle c_etype="pad_hole" cx="4066" cy="3085.5" r="1.6" layerid="11" stroke-width="0"/></g><g c_partid="part_pad" c_etype="pinpart" c_origin="4106,3066.5" layerid="11" number="1" net="GND" plated ="Y"  id="gge93" locked="0" c_rotation="0" c_width="4.77" c_height="4.77" title="GND" c_shape="RECT" pasteexpansion="0" solderexpansion="0.4"><polygon  c_etype="pad_shell" points="4108.385 3064.115 4103.615 3064.115 4103.615 3068.885 4108.385 3068.885" layerid="11" stroke-width="0" /><circle c_etype="pad_hole" cx="4106" cy="3066.5" r="1.6" layerid="11" stroke-width="0"/></g><g c_partid="part_pad" c_etype="pinpart" c_origin="4066,3066.5" layerid="11" number="2" net="MK1_4" plated ="Y"  id="gge98" locked="0" c_rotation="0" c_width="4.77" c_height="4.77" title="MK1_4" c_shape="RECT" pasteexpansion="0" solderexpansion="0.4"><polygon  c_etype="pad_shell" points="4068.385 3064.115 4063.615 3064.115 4063.615 3068.885 4068.385 3068.885" layerid="11" stroke-width="0" /><circle c_etype="pad_hole" cx="4066" cy="3066.5" r="1.6" layerid="11" stroke-width="0"/></g><g c_partid="part_pad" c_etype="pinpart" c_origin="4161.5,3127.5" layerid="11" number="4" net="U1_4" plated ="Y"  id="gge243" locked="1" c_rotation="180" c_width="8" c_height="8" title="U1_4" c_shape="ELLIPSE" pasteexpansion="0" solderexpansion="0.4"><ellipse c_etype="pad_shell" cx="4161.5" cy="3127.5" rx="4" ry="4" layerid="11" stroke-width="0"/><circle c_etype="pad_hole" cx="4161.5" cy="3127.5" r="2" layerid="11" stroke-width="0"/></g><g c_partid="part_pad" c_etype="pinpart" c_origin="4071.5,3107.5" layerid="11" number="9" net="U1_9" plated ="Y"  id="gge248" locked="1" c_rotation="180" c_width="8" c_height="8" title="U1_9" c_shape="ELLIPSE" pasteexpansion="0" solderexpansion="0.4"><ellipse c_etype="pad_shell" cx="4071.5" cy="3107.5" rx="4" ry="4" layerid="11" stroke-width="0"/><circle c_etype="pad_hole" cx="4071.5" cy="3107.5" r="2" layerid="11" stroke-width="0"/></g><g c_partid="part_pad" c_etype="pinpart" c_origin="4071.5,3117.5" layerid="11" number="8" net="U1_8" plated ="Y"  id="gge253" locked="1" c_rotation="180" c_width="8" c_height="8" title="U1_8" c_shape="ELLIPSE" pasteexpansion="0" solderexpansion="0.4"><ellipse c_etype="pad_shell" cx="4071.5" cy="3117.5" rx="4" ry="4" layerid="11" stroke-width="0"/><circle c_etype="pad_hole" cx="4071.5" cy="3117.5" r="2" layerid="11" stroke-width="0"/></g><g c_partid="part_pad" c_etype="pinpart" c_origin="4071.5,3127.5" layerid="11" number="7" net="1K_1" plated ="Y"  id="gge258" locked="1" c_rotation="180" c_width="8" c_height="8" title="1K_1" c_shape="ELLIPSE" pasteexpansion="0" solderexpansion="0.4"><ellipse c_etype="pad_shell" cx="4071.5" cy="3127.5" rx="4" ry="4" layerid="11" stroke-width="0"/><circle c_etype="pad_hole" cx="4071.5" cy="3127.5" r="2" layerid="11" stroke-width="0"/></g><g c_partid="part_pad" c_etype="pinpart" c_origin="4161.5,3137.5" layerid="11" number="5" net="U1_5" plated ="Y"  id="gge263" locked="1" c_rotation="180" c_width="8" c_height="8" title="U1_5" c_shape="ELLIPSE" pasteexpansion="0" solderexpansion="0.4"><ellipse c_etype="pad_shell" cx="4161.5" cy="3137.5" rx="4" ry="4" layerid="11" stroke-width="0"/><circle c_etype="pad_hole" cx="4161.5" cy="3137.5" r="2" layerid="11" stroke-width="0"/></g><g c_partid="part_pad" c_etype="pinpart" c_origin="4071.5,3137.5" layerid="11" number="6" net="X1_1" plated ="Y"  id="gge268" locked="1" c_rotation="180" c_width="8" c_height="8" title="X1_1" c_shape="ELLIPSE" pasteexpansion="0" solderexpansion="0.4"><ellipse c_etype="pad_shell" cx="4071.5" cy="3137.5" rx="4" ry="4" layerid="11" stroke-width="0"/><circle c_etype="pad_hole" cx="4071.5" cy="3137.5" r="2" layerid="11" stroke-width="0"/></g><g c_partid="part_pad" c_etype="pinpart" c_origin="4161.5,3117.5" layerid="11" number="3" net="U1_3" plated ="Y"  id="gge273" locked="1" c_rotation="180" c_width="8" c_height="8" title="U1_3" c_shape="ELLIPSE" pasteexpansion="0" solderexpansion="0.4"><ellipse c_etype="pad_shell" cx="4161.5" cy="3117.5" rx="4" ry="4" layerid="11" stroke-width="0"/><circle c_etype="pad_hole" cx="4161.5" cy="3117.5" r="2" layerid="11" stroke-width="0"/></g><g c_partid="part_pad" c_etype="pinpart" c_origin="4161.5,3107.5" layerid="11" number="2" net="GND" plated ="Y"  id="gge278" locked="1" c_rotation="180" c_width="8" c_height="8" title="GND" c_shape="ELLIPSE" pasteexpansion="0" solderexpansion="0.4"><ellipse c_etype="pad_shell" cx="4161.5" cy="3107.5" rx="4" ry="4" layerid="11" stroke-width="0"/><circle c_etype="pad_hole" cx="4161.5" cy="3107.5" r="2" layerid="11" stroke-width="0"/></g><g c_partid="part_pad" c_etype="pinpart" c_origin="4161.5,3087.5" layerid="11" number="1" net="X1_1" plated ="Y"  id="gge283" locked="1" c_rotation="180" c_width="8" c_height="8" title="X1_1" c_shape="RECT" pasteexpansion="0" solderexpansion="0.4"><polygon  c_etype="pad_shell" points="4157.5 3091.5 4165.5 3091.5 4165.5 3083.5 4157.5 3083.5" layerid="11" stroke-width="0" /><circle c_etype="pad_hole" cx="4161.5" cy="3087.5" r="2" layerid="11" stroke-width="0"/></g><polyline points="4107 3179.5 4107 3169.5 4127 3169.5 4127 3179.5 4107 3179.5" stroke-width="1"  stroke-linecap="round" fill="none" layerid="3" net="" id="gge109" locked="0" /><polyline points="4059 3106 4109 3106 4109 3141 4059 3141 4059 3106" stroke-width="1"  stroke-linecap="round" fill="none" layerid="3" net="" id="gge130" locked="0" /><polyline points="4064 3101 4064 3076 4069 3076 4069 3086 4074 3086 4074 3076 4079 3076 4079 3086 4084 3086 4084 3076 4099 3076" stroke-width="1"  stroke-linecap="round" fill="none" layerid="3" net="" id="gge131" locked="0" /><polyline points="4114 3071 4054 3071 4054 3166" stroke-width="1"  stroke-linecap="round" fill="none" layerid="3" net="" id="gge132" locked="0" /><polyline points="4114 3166 4114 3071" stroke-width="1"  stroke-linecap="round" fill="none" layerid="3" net="" id="gge133" locked="0" /><polyline points="4054 3166 4113 3166" stroke-width="1"  stroke-linecap="round" fill="none" layerid="3" net="" id="gge134" locked="0" /><polyline points="4164 3149.5 4147 3149.5" stroke-width="1"  stroke-linecap="round" fill="none" layerid="3" net="" id="gge193" locked="0" /><polyline points="4147 3173.5 4164 3173.5" stroke-width="1"  stroke-linecap="round" fill="none" layerid="3" net="" id="gge194" locked="0" /><polyline points="4167.5 3157.6 4167.5 3165.5" stroke-width="1"  stroke-linecap="round" fill="none" layerid="3" net="" id="gge195" locked="0" /><polyline points="4143.5 3157.5 4143.5 3165.5" stroke-width="1"  stroke-linecap="round" fill="none" layerid="3" net="" id="gge196" locked="0" /><polyline points="4165.6 3140.803 4159.8 3138.203" stroke-width="1"  stroke-linecap="round" fill="none" layerid="3" net="" id="gge296" locked="0" /><polyline points="4159.8 3138.203 4159.8 3143.403" stroke-width="1"  stroke-linecap="round" fill="none" layerid="3" net="" id="gge297" locked="0" /><polyline points="4159.8 3143.403 4165.6 3140.803" stroke-width="1"  stroke-linecap="round" fill="none" layerid="3" net="" id="gge298" locked="0" /><polyline points="4128.7 3146.503 4128.7 3071.503" stroke-width="1"  stroke-linecap="round" fill="none" layerid="3" net="" id="gge299" locked="0" /><polyline points="4154.2 3146.503 4154.2 3071.503" stroke-width="1"  stroke-linecap="round" fill="none" layerid="3" net="" id="gge300" locked="0" /><polyline points="4120.8 3146.503 4120.8 3071.503" stroke-width="1"  stroke-linecap="round" fill="none" layerid="3" net="" id="gge301" locked="0" /><polyline points="4120.8 3071.503 4170 3071.503" stroke-width="1"  stroke-linecap="round" fill="none" layerid="3" net="" id="gge302" locked="0" /><polyline points="4170 3071.503 4170 3146.503" stroke-width="1"  stroke-linecap="round" fill="none" layerid="3" net="" id="gge303" locked="0" /><polyline points="4170 3146.503 4120.8 3146.503" stroke-width="1"  stroke-linecap="round" fill="none" layerid="3" net="" id="gge304" locked="0" /><polyline points="4145.6 3087.603 4137.7 3079.803" stroke-width="1"  stroke-linecap="round" fill="none" layerid="3" net="" id="gge305" locked="0" /><polyline points="4145.6 3113.203 4137.7 3105.303" stroke-width="1"  stroke-linecap="round" fill="none" layerid="3" net="" id="gge306" locked="0" /><polyline points="4145.6 3137.803 4137.7 3129.903" stroke-width="1"  stroke-linecap="round" fill="none" layerid="3" net="" id="gge307" locked="0" /><g c_partid="part_pcbtext" c_etype="" c_origin="4117,3161.5" c_rotation="0" c_mirror="0" id="gge105" locked="0" layerid="3" c_shapetype="group" display="none"><path c_fontsize="4.5" c_fontfamily="" c_text="JUMPER2" d="M 4119.05 3156.96 L 4119.05 3160.23 L 4118.84 3160.85 L 4118.64 3161.05 L 4118.23 3161.25 L 4117.82 3161.25 L 4117.41 3161.05 L 4117.2 3160.85 L 4117 3160.23 L 4117 3159.82 M 4120.4 3156.96 L 4120.4 3160.03 L 4120.6 3160.64 L 4121.01 3161.05 L 4121.62 3161.25 L 4122.03 3161.25 L 4122.65 3161.05 L 4123.05 3160.64 L 4123.26 3160.03 L 4123.26 3156.96 M 4124.61 3156.96 L 4124.61 3161.25 M 4124.61 3156.96 L 4126.25 3161.25 M 4127.88 3156.96 L 4126.25 3161.25 M 4127.88 3156.96 L 4127.88 3161.25 M 4129.23 3156.96 L 4129.23 3161.25 M 4129.23 3156.96 L 4131.07 3156.96 L 4131.69 3157.16 L 4131.89 3157.37 L 4132.1 3157.78 L 4132.1 3158.39 L 4131.89 3158.8 L 4131.69 3159 L 4131.07 3159.21 L 4129.23 3159.21 M 4133.45 3156.96 L 4133.45 3161.25 M 4133.45 3156.96 L 4136.1 3156.96 M 4133.45 3159 L 4135.08 3159 M 4133.45 3161.25 L 4136.1 3161.25 M 4137.45 3156.96 L 4137.45 3161.25 M 4137.45 3156.96 L 4139.3 3156.96 L 4139.91 3157.16 L 4140.11 3157.37 L 4140.32 3157.78 L 4140.32 3158.19 L 4140.11 3158.6 L 4139.91 3158.8 L 4139.3 3159 L 4137.45 3159 M 4138.89 3159 L 4140.32 3161.25 M 4141.87 3157.98 L 4141.87 3157.78 L 4142.08 3157.37 L 4142.28 3157.16 L 4142.69 3156.96 L 4143.51 3156.96 L 4143.92 3157.16 L 4144.12 3157.37 L 4144.33 3157.78 L 4144.33 3158.19 L 4144.12 3158.6 L 4143.71 3159.21 L 4141.67 3161.25 L 4144.53 3161.25" fill="none"  stroke-width="0.6" c_note="note_name" /></g><g c_partid="part_pcbtext" c_etype="" c_origin="4117,3168.5" c_rotation="0" c_mirror="0" id="gge107" locked="0" layerid="3" c_shapetype="group" ><path c_fontsize="4.5" c_fontfamily="" c_text="JP1" d="M 4119.05 3163.96 L 4119.05 3167.23 L 4118.84 3167.85 L 4118.64 3168.05 L 4118.23 3168.25 L 4117.82 3168.25 L 4117.41 3168.05 L 4117.2 3167.85 L 4117 3167.23 L 4117 3166.82 M 4120.4 3163.96 L 4120.4 3168.25 M 4120.4 3163.96 L 4122.24 3163.96 L 4122.85 3164.16 L 4123.05 3164.37 L 4123.26 3164.78 L 4123.26 3165.39 L 4123.05 3165.8 L 4122.85 3166 L 4122.24 3166.21 L 4120.4 3166.21 M 4124.61 3164.78 L 4125.02 3164.57 L 4125.63 3163.96 L 4125.63 3168.25" fill="none"  stroke-width="0.6" c_note="note_pre" /></g><g c_partid="part_pcbtext" c_etype="" c_origin="4111,3183.5" c_rotation="0" c_mirror="0" id="gge110" locked="0" layerid="3" c_shapetype="group" ><path c_fontsize="2" c_fontfamily="" c_text="2" d="M 4111.09 3182.86 L 4111.09 3182.77 L 4111.18 3182.59 L 4111.27 3182.5 L 4111.45 3182.41 L 4111.82 3182.41 L 4112 3182.5 L 4112.09 3182.59 L 4112.18 3182.77 L 4112.18 3182.95 L 4112.09 3183.14 L 4111.91 3183.41 L 4111 3184.32 L 4112.27 3184.32" fill="none"  stroke-width="0.6"  /></g><g c_partid="part_pcbtext" c_etype="" c_origin="4121,3183.5" c_rotation="0" c_mirror="0" id="gge112" locked="0" layerid="3" c_shapetype="group" ><path c_fontsize="2" c_fontfamily="" c_text="1" d="M 4121 3182.77 L 4121.18 3182.68 L 4121.45 3182.41 L 4121.45 3184.32" fill="none"  stroke-width="0.6"  /></g><g c_partid="part_pcbtext" c_etype="" c_origin="4083,3062" c_rotation="0" c_mirror="0" id="gge126" locked="0" layerid="3" c_shapetype="group" display="none"><path c_fontsize="4.5" c_fontfamily="" c_text="ESP-01S_C82893" d="M 4083 3057.46 L 4083 3061.75 M 4083 3057.46 L 4085.66 3057.46 M 4083 3059.5 L 4084.64 3059.5 M 4083 3061.75 L 4085.66 3061.75 M 4089.87 3058.07 L 4089.46 3057.66 L 4088.85 3057.46 L 4088.03 3057.46 L 4087.42 3057.66 L 4087.01 3058.07 L 4087.01 3058.48 L 4087.21 3058.89 L 4087.42 3059.1 L 4087.83 3059.3 L 4089.05 3059.71 L 4089.46 3059.91 L 4089.67 3060.12 L 4089.87 3060.53 L 4089.87 3061.14 L 4089.46 3061.55 L 4088.85 3061.75 L 4088.03 3061.75 L 4087.42 3061.55 L 4087.01 3061.14 M 4091.22 3057.46 L 4091.22 3061.75 M 4091.22 3057.46 L 4093.06 3057.46 L 4093.68 3057.66 L 4093.88 3057.87 L 4094.09 3058.28 L 4094.09 3058.89 L 4093.88 3059.3 L 4093.68 3059.5 L 4093.06 3059.71 L 4091.22 3059.71 M 4095.44 3059.91 L 4099.12 3059.91 M 4101.7 3057.46 L 4101.08 3057.66 L 4100.67 3058.28 L 4100.47 3059.3 L 4100.47 3059.91 L 4100.67 3060.94 L 4101.08 3061.55 L 4101.7 3061.75 L 4102.1 3061.75 L 4102.72 3061.55 L 4103.13 3060.94 L 4103.33 3059.91 L 4103.33 3059.3 L 4103.13 3058.28 L 4102.72 3057.66 L 4102.1 3057.46 L 4101.7 3057.46 M 4104.68 3058.28 L 4105.09 3058.07 L 4105.7 3057.46 L 4105.7 3061.75 M 4109.92 3058.07 L 4109.51 3057.66 L 4108.9 3057.46 L 4108.08 3057.46 L 4107.46 3057.66 L 4107.05 3058.07 L 4107.05 3058.48 L 4107.26 3058.89 L 4107.46 3059.1 L 4107.87 3059.3 L 4109.1 3059.71 L 4109.51 3059.91 L 4109.71 3060.12 L 4109.92 3060.53 L 4109.92 3061.14 L 4109.51 3061.55 L 4108.9 3061.75 L 4108.08 3061.75 L 4107.46 3061.55 L 4107.05 3061.14 M 4111.27 3063.19 L 4114.95 3063.19 M 4119.37 3058.48 L 4119.16 3058.07 L 4118.75 3057.66 L 4118.35 3057.46 L 4117.53 3057.46 L 4117.12 3057.66 L 4116.71 3058.07 L 4116.5 3058.48 L 4116.3 3059.1 L 4116.3 3060.12 L 4116.5 3060.73 L 4116.71 3061.14 L 4117.12 3061.55 L 4117.53 3061.75 L 4118.35 3061.75 L 4118.75 3061.55 L 4119.16 3061.14 L 4119.37 3060.73 M 4121.74 3057.46 L 4121.13 3057.66 L 4120.92 3058.07 L 4120.92 3058.48 L 4121.13 3058.89 L 4121.54 3059.1 L 4122.35 3059.3 L 4122.97 3059.5 L 4123.38 3059.91 L 4123.58 3060.32 L 4123.58 3060.94 L 4123.38 3061.35 L 4123.17 3061.55 L 4122.56 3061.75 L 4121.74 3061.75 L 4121.13 3061.55 L 4120.92 3061.35 L 4120.72 3060.94 L 4120.72 3060.32 L 4120.92 3059.91 L 4121.33 3059.5 L 4121.95 3059.3 L 4122.76 3059.1 L 4123.17 3058.89 L 4123.38 3058.48 L 4123.38 3058.07 L 4123.17 3057.66 L 4122.56 3057.46 L 4121.74 3057.46 M 4125.14 3058.48 L 4125.14 3058.28 L 4125.34 3057.87 L 4125.55 3057.66 L 4125.95 3057.46 L 4126.77 3057.46 L 4127.18 3057.66 L 4127.39 3057.87 L 4127.59 3058.28 L 4127.59 3058.69 L 4127.39 3059.1 L 4126.98 3059.71 L 4124.93 3061.75 L 4127.8 3061.75 M 4130.17 3057.46 L 4129.55 3057.66 L 4129.35 3058.07 L 4129.35 3058.48 L 4129.55 3058.89 L 4129.96 3059.1 L 4130.78 3059.3 L 4131.4 3059.5 L 4131.8 3059.91 L 4132.01 3060.32 L 4132.01 3060.94 L 4131.8 3061.35 L 4131.6 3061.55 L 4130.99 3061.75 L 4130.17 3061.75 L 4129.55 3061.55 L 4129.35 3061.35 L 4129.15 3060.94 L 4129.15 3060.32 L 4129.35 3059.91 L 4129.76 3059.5 L 4130.37 3059.3 L 4131.19 3059.1 L 4131.6 3058.89 L 4131.8 3058.48 L 4131.8 3058.07 L 4131.6 3057.66 L 4130.99 3057.46 L 4130.17 3057.46 M 4136.02 3058.89 L 4135.81 3059.5 L 4135.4 3059.91 L 4134.79 3060.12 L 4134.59 3060.12 L 4133.97 3059.91 L 4133.56 3059.5 L 4133.36 3058.89 L 4133.36 3058.69 L 4133.56 3058.07 L 4133.97 3057.66 L 4134.59 3057.46 L 4134.79 3057.46 L 4135.4 3057.66 L 4135.81 3058.07 L 4136.02 3058.89 L 4136.02 3059.91 L 4135.81 3060.94 L 4135.4 3061.55 L 4134.79 3061.75 L 4134.38 3061.75 L 4133.77 3061.55 L 4133.56 3061.14 M 4137.78 3057.46 L 4140.03 3057.46 L 4138.8 3059.1 L 4139.41 3059.1 L 4139.82 3059.3 L 4140.03 3059.5 L 4140.23 3060.12 L 4140.23 3060.53 L 4140.03 3061.14 L 4139.62 3061.55 L 4139 3061.75 L 4138.39 3061.75 L 4137.78 3061.55 L 4137.57 3061.35 L 4137.37 3060.94" fill="none"  stroke-width="0.6" c_note="note_name" /></g><g c_partid="part_pcbtext" c_etype="" c_origin="4083,3069" c_rotation="0" c_mirror="0" id="gge128" locked="0" layerid="3" c_shapetype="group" ><path c_fontsize="4.5" c_fontfamily="" c_text="MK1" d="M 4083 3064.46 L 4083 3068.75 M 4083 3064.46 L 4084.64 3068.75 M 4086.27 3064.46 L 4084.64 3068.75 M 4086.27 3064.46 L 4086.27 3068.75 M 4087.62 3064.46 L 4087.62 3068.75 M 4090.49 3064.46 L 4087.62 3067.32 M 4088.65 3066.3 L 4090.49 3068.75 M 4091.84 3065.28 L 4092.25 3065.07 L 4092.86 3064.46 L 4092.86 3068.75" fill="none"  stroke-width="0.6" c_note="note_pre" /></g><g c_partid="part_pcbtext" c_etype="" c_origin="4069,3126" c_rotation="0" c_mirror="0" id="gge185" locked="0" layerid="3" c_shapetype="group" ><path c_fontsize="5" c_fontfamily="" c_text="ESP-01S" d="M 4069 3123.27 L 4069 3128.05 M 4069 3123.27 L 4071.95 3123.27 M 4069 3125.55 L 4070.82 3125.55 M 4069 3128.05 L 4071.95 3128.05 M 4076.64 3123.95 L 4076.18 3123.5 L 4075.5 3123.27 L 4074.59 3123.27 L 4073.91 3123.5 L 4073.45 3123.95 L 4073.45 3124.41 L 4073.68 3124.86 L 4073.91 3125.09 L 4074.36 3125.32 L 4075.73 3125.77 L 4076.18 3126 L 4076.41 3126.23 L 4076.64 3126.68 L 4076.64 3127.36 L 4076.18 3127.82 L 4075.5 3128.05 L 4074.59 3128.05 L 4073.91 3127.82 L 4073.45 3127.36 M 4078.14 3123.27 L 4078.14 3128.05 M 4078.14 3123.27 L 4080.18 3123.27 L 4080.86 3123.5 L 4081.09 3123.73 L 4081.32 3124.18 L 4081.32 3124.86 L 4081.09 3125.32 L 4080.86 3125.55 L 4080.18 3125.77 L 4078.14 3125.77 M 4082.82 3126 L 4086.91 3126 M 4089.77 3123.27 L 4089.09 3123.5 L 4088.64 3124.18 L 4088.41 3125.32 L 4088.41 3126 L 4088.64 3127.14 L 4089.09 3127.82 L 4089.77 3128.05 L 4090.23 3128.05 L 4090.91 3127.82 L 4091.36 3127.14 L 4091.59 3126 L 4091.59 3125.32 L 4091.36 3124.18 L 4090.91 3123.5 L 4090.23 3123.27 L 4089.77 3123.27 M 4093.09 3124.18 L 4093.55 3123.95 L 4094.23 3123.27 L 4094.23 3128.05 M 4098.91 3123.95 L 4098.45 3123.5 L 4097.77 3123.27 L 4096.86 3123.27 L 4096.18 3123.5 L 4095.73 3123.95 L 4095.73 3124.41 L 4095.95 3124.86 L 4096.18 3125.09 L 4096.64 3125.32 L 4098 3125.77 L 4098.45 3126 L 4098.68 3126.23 L 4098.91 3126.68 L 4098.91 3127.36 L 4098.45 3127.82 L 4097.77 3128.05 L 4096.86 3128.05 L 4096.18 3127.82 L 4095.73 3127.36" fill="none"  stroke-width="0.8"  /></g><g c_partid="part_pcbtext" c_etype="" c_origin="4155.5,3140.5" c_rotation="0" c_mirror="0" id="gge189" locked="0" layerid="3" c_shapetype="group" display="none"><path c_fontsize="4.5" c_fontfamily="" c_text="SWITCH-MOMENTARY-2" d="M 4158.36 3136.57 L 4157.95 3136.16 L 4157.34 3135.96 L 4156.52 3135.96 L 4155.91 3136.16 L 4155.5 3136.57 L 4155.5 3136.98 L 4155.7 3137.39 L 4155.91 3137.6 L 4156.32 3137.8 L 4157.55 3138.21 L 4157.95 3138.41 L 4158.16 3138.62 L 4158.36 3139.03 L 4158.36 3139.64 L 4157.95 3140.05 L 4157.34 3140.25 L 4156.52 3140.25 L 4155.91 3140.05 L 4155.5 3139.64 M 4159.71 3135.96 L 4160.74 3140.25 M 4161.76 3135.96 L 4160.74 3140.25 M 4161.76 3135.96 L 4162.78 3140.25 M 4163.8 3135.96 L 4162.78 3140.25 M 4165.15 3135.96 L 4165.15 3140.25 M 4167.94 3135.96 L 4167.94 3140.25 M 4166.5 3135.96 L 4169.37 3135.96 M 4173.79 3136.98 L 4173.58 3136.57 L 4173.17 3136.16 L 4172.76 3135.96 L 4171.95 3135.96 L 4171.54 3136.16 L 4171.13 3136.57 L 4170.92 3136.98 L 4170.72 3137.6 L 4170.72 3138.62 L 4170.92 3139.23 L 4171.13 3139.64 L 4171.54 3140.05 L 4171.95 3140.25 L 4172.76 3140.25 L 4173.17 3140.05 L 4173.58 3139.64 L 4173.79 3139.23 M 4175.14 3135.96 L 4175.14 3140.25 M 4178 3135.96 L 4178 3140.25 M 4175.14 3138 L 4178 3138 M 4179.35 3138.41 L 4183.03 3138.41 M 4184.38 3135.96 L 4184.38 3140.25 M 4184.38 3135.96 L 4186.02 3140.25 M 4187.65 3135.96 L 4186.02 3140.25 M 4187.65 3135.96 L 4187.65 3140.25 M 4190.23 3135.96 L 4189.82 3136.16 L 4189.41 3136.57 L 4189.21 3136.98 L 4189 3137.6 L 4189 3138.62 L 4189.21 3139.23 L 4189.41 3139.64 L 4189.82 3140.05 L 4190.23 3140.25 L 4191.05 3140.25 L 4191.46 3140.05 L 4191.87 3139.64 L 4192.07 3139.23 L 4192.28 3138.62 L 4192.28 3137.6 L 4192.07 3136.98 L 4191.87 3136.57 L 4191.46 3136.16 L 4191.05 3135.96 L 4190.23 3135.96 M 4193.63 3135.96 L 4193.63 3140.25 M 4193.63 3135.96 L 4195.26 3140.25 M 4196.9 3135.96 L 4195.26 3140.25 M 4196.9 3135.96 L 4196.9 3140.25 M 4198.25 3135.96 L 4198.25 3140.25 M 4198.25 3135.96 L 4200.91 3135.96 M 4198.25 3138 L 4199.89 3138 M 4198.25 3140.25 L 4200.91 3140.25 M 4202.26 3135.96 L 4202.26 3140.25 M 4202.26 3135.96 L 4205.12 3140.25 M 4205.12 3135.96 L 4205.12 3140.25 M 4207.9 3135.96 L 4207.9 3140.25 M 4206.47 3135.96 L 4209.34 3135.96 M 4212.32 3135.96 L 4210.69 3140.25 M 4212.32 3135.96 L 4213.96 3140.25 M 4211.3 3138.82 L 4213.35 3138.82 M 4215.31 3135.96 L 4215.31 3140.25 M 4215.31 3135.96 L 4217.15 3135.96 L 4217.76 3136.16 L 4217.97 3136.37 L 4218.17 3136.78 L 4218.17 3137.19 L 4217.97 3137.6 L 4217.76 3137.8 L 4217.15 3138 L 4215.31 3138 M 4216.74 3138 L 4218.17 3140.25 M 4219.52 3135.96 L 4221.16 3138 L 4221.16 3140.25 M 4222.8 3135.96 L 4221.16 3138 M 4224.15 3138.41 L 4227.83 3138.41 M 4229.38 3136.98 L 4229.38 3136.78 L 4229.59 3136.37 L 4229.79 3136.16 L 4230.2 3135.96 L 4231.02 3135.96 L 4231.43 3136.16 L 4231.63 3136.37 L 4231.84 3136.78 L 4231.84 3137.19 L 4231.63 3137.6 L 4231.22 3138.21 L 4229.18 3140.25 L 4232.04 3140.25" fill="none"  stroke-width="0.6" c_note="note_name" /></g><g c_partid="part_pcbtext" c_etype="" c_origin="4155.5,3147.5" c_rotation="0" c_mirror="0" id="gge191" locked="0" layerid="3" c_shapetype="group" ><path c_fontsize="4.5" c_fontfamily="" c_text="S1" d="M 4158.36 3143.57 L 4157.95 3143.16 L 4157.34 3142.96 L 4156.52 3142.96 L 4155.91 3143.16 L 4155.5 3143.57 L 4155.5 3143.98 L 4155.7 3144.39 L 4155.91 3144.6 L 4156.32 3144.8 L 4157.55 3145.21 L 4157.95 3145.41 L 4158.16 3145.62 L 4158.36 3146.03 L 4158.36 3146.64 L 4157.95 3147.05 L 4157.34 3147.25 L 4156.52 3147.25 L 4155.91 3147.05 L 4155.5 3146.64 M 4159.71 3143.78 L 4160.12 3143.57 L 4160.74 3142.96 L 4160.74 3147.25" fill="none"  stroke-width="0.6" c_note="note_pre" /></g><g c_partid="part_pcbtext" c_etype="" c_origin="4112.5,3109.003" c_rotation="90" c_mirror="0" id="gge292" locked="0" layerid="3" c_shapetype="group" display="none"><path c_fontsize="4.5" c_fontfamily="" c_text="AKL701_3_15" d="M 4107.96 3107.363 L 4112.25 3109.003 M 4107.96 3107.363 L 4112.25 3105.733 M 4110.82 3108.393 L 4110.82 3106.343 M 4107.96 3104.383 L 4112.25 3104.383 M 4107.96 3101.513 L 4110.82 3104.383 M 4109.8 3103.353 L 4112.25 3101.513 M 4107.96 3100.163 L 4112.25 3100.163 M 4112.25 3100.163 L 4112.25 3097.713 M 4107.96 3093.503 L 4112.25 3095.543 M 4107.96 3096.363 L 4107.96 3093.503 M 4107.96 3090.923 L 4108.16 3091.533 L 4108.78 3091.943 L 4109.8 3092.153 L 4110.41 3092.153 L 4111.44 3091.943 L 4112.05 3091.533 L 4112.25 3090.923 L 4112.25 3090.513 L 4112.05 3089.903 L 4111.44 3089.493 L 4110.41 3089.283 L 4109.8 3089.283 L 4108.78 3089.493 L 4108.16 3089.903 L 4107.96 3090.513 L 4107.96 3090.923 M 4108.78 3087.933 L 4108.57 3087.523 L 4107.96 3086.913 L 4112.25 3086.913 M 4113.69 3085.563 L 4113.69 3081.883 M 4107.96 3080.123 L 4107.96 3077.873 L 4109.6 3079.103 L 4109.6 3078.483 L 4109.8 3078.073 L 4110 3077.873 L 4110.62 3077.663 L 4111.03 3077.663 L 4111.64 3077.873 L 4112.05 3078.283 L 4112.25 3078.893 L 4112.25 3079.503 L 4112.05 3080.123 L 4111.85 3080.323 L 4111.44 3080.533 M 4113.69 3076.313 L 4113.69 3072.633 M 4108.78 3071.283 L 4108.57 3070.873 L 4107.96 3070.263 L 4112.25 3070.263 M 4107.96 3066.453 L 4107.96 3068.503 L 4109.8 3068.703 L 4109.6 3068.503 L 4109.39 3067.893 L 4109.39 3067.273 L 4109.6 3066.663 L 4110 3066.253 L 4110.62 3066.053 L 4111.03 3066.053 L 4111.64 3066.253 L 4112.05 3066.663 L 4112.25 3067.273 L 4112.25 3067.893 L 4112.05 3068.503 L 4111.85 3068.703 L 4111.44 3068.913" fill="none"  stroke-width="0.6" c_note="note_name" /></g><g c_partid="part_pcbtext" c_etype="" c_origin="4119.5,3109.003" c_rotation="90" c_mirror="0" id="gge294" locked="0" layerid="3" c_shapetype="group" ><path c_fontsize="4.5" c_fontfamily="" c_text="X1" d="M 4114.96 3109.003 L 4119.25 3106.143 M 4114.96 3106.143 L 4119.25 3109.003 M 4115.78 3104.793 L 4115.57 3104.383 L 4114.96 3103.763 L 4119.25 3103.763" fill="none"  stroke-width="0.6" c_note="note_pre" /></g><g c_partid="part_pcbtext" c_etype="" c_origin="4166,3135.903" c_rotation="90" c_mirror="0" id="gge311" locked="0" layerid="3" c_shapetype="group" ><path c_fontsize="5" c_fontfamily="" c_text="1" d="M 4164.18 3135.903 L 4163.95 3135.453 L 4163.27 3134.763 L 4168.05 3134.763" fill="none"  stroke-width="0.6"  /></g><g c_partid="part_pcbtext" c_etype="" c_origin="4166,3111.503" c_rotation="90" c_mirror="0" id="gge313" locked="0" layerid="3" c_shapetype="group" ><path c_fontsize="5" c_fontfamily="" c_text="2" d="M 4164.41 3111.273 L 4164.18 3111.273 L 4163.73 3111.053 L 4163.5 3110.823 L 4163.27 3110.363 L 4163.27 3109.453 L 4163.5 3109.003 L 4163.73 3108.773 L 4164.18 3108.553 L 4164.64 3108.553 L 4165.09 3108.773 L 4165.77 3109.233 L 4168.05 3111.503 L 4168.05 3108.323" fill="none"  stroke-width="0.6"  /></g><g c_partid="part_pcbtext" c_etype="" c_origin="4166,3086.503" c_rotation="90" c_mirror="0" id="gge315" locked="0" layerid="3" c_shapetype="group" ><path c_fontsize="5" c_fontfamily="" c_text="3" d="M 4163.27 3086.053 L 4163.27 3083.553 L 4165.09 3084.913 L 4165.09 3084.233 L 4165.32 3083.773 L 4165.55 3083.553 L 4166.23 3083.323 L 4166.68 3083.323 L 4167.36 3083.553 L 4167.82 3084.003 L 4168.05 3084.683 L 4168.05 3085.363 L 4167.82 3086.053 L 4167.59 3086.273 L 4167.14 3086.503" fill="none"  stroke-width="0.6"  /></g><circle cx="4155.5" cy="3161.5" r="7" stroke-width="1" fill="none" layerid="3" id="gge197" locked="0"  /><circle cx="4141.5" cy="3109.003" r="9.8" stroke-width="1" fill="none" layerid="3" id="gge308" locked="0"  /><circle cx="4141.5" cy="3084.003" r="9.8" stroke-width="1" fill="none" layerid="3" id="gge309" locked="0"  /><circle cx="4141.5" cy="3134.003" r="9.8" stroke-width="1" fill="none" layerid="3" id="gge310" locked="0"  /><polyline points="4047.5596 3048.4684 4181.4178 3048.4684 4181.4178 3182.3267 4047.5596 3182.3267 4047.5596 3048.4684" stroke-width="1"  stroke-linecap="round" fill="none" layerid="10" net="" id="gge347" locked="0" /></svg>